<mxfile host="65bd71144e">
    <diagram id="q4knvyhPd0blsNCatt9X" name="Page-1">
        <mxGraphModel dx="1019" dy="2576" grid="1" gridSize="10" guides="1" tooltips="1" connect="1" arrows="1" fold="1" page="1" pageScale="1" pageWidth="1169" pageHeight="1654" math="0" shadow="0">
            <root>
                <mxCell id="0"/>
                <mxCell id="1" parent="0"/>
                <mxCell id="2" value="" style="aspect=fixed;perimeter=ellipsePerimeter;html=1;align=center;shadow=0;dashed=0;spacingTop=3;image;image=img/lib/active_directory/databases.svg;fontSize=14;fontStyle=2" vertex="1" parent="1">
                    <mxGeometry x="90" y="-514.87" width="91.84" height="90" as="geometry"/>
                </mxCell>
                <mxCell id="5" value="" style="aspect=fixed;perimeter=ellipsePerimeter;html=1;align=center;shadow=0;dashed=0;spacingTop=3;image;image=img/lib/active_directory/database_server.svg;fontSize=14;fontStyle=2" vertex="1" parent="1">
                    <mxGeometry x="666.08" y="-523" width="75.03" height="91.5" as="geometry"/>
                </mxCell>
                <mxCell id="6" value="Elasticsearch" style="text;html=1;align=center;verticalAlign=middle;resizable=0;points=[];autosize=1;strokeColor=none;fillColor=none;fontSize=14;fontStyle=2" vertex="1" parent="1">
                    <mxGeometry x="659.76" y="-426.5" width="110" height="30" as="geometry"/>
                </mxCell>
                <mxCell id="8" value="Source data" style="text;html=1;align=center;verticalAlign=middle;resizable=0;points=[];autosize=1;strokeColor=none;fillColor=none;fontSize=14;fontStyle=2" vertex="1" parent="1">
                    <mxGeometry x="85.92000000000002" y="-426.5" width="100" height="30" as="geometry"/>
                </mxCell>
                <mxCell id="13" value="" style="shape=arrow;endArrow=block;html=1;fontSize=14;exitX=1;exitY=0.5;exitDx=0;exitDy=0;targetPerimeterSpacing=0;endSize=7;startSize=0;align=center;fontStyle=2" edge="1" parent="1" source="2">
                    <mxGeometry width="50" height="50" relative="1" as="geometry">
                        <mxPoint x="566.08" y="-343.87" as="sourcePoint"/>
                        <mxPoint x="280" y="-470" as="targetPoint"/>
                        <Array as="points"/>
                    </mxGeometry>
                </mxCell>
                <mxCell id="26" value="spark" style="edgeLabel;html=1;align=center;verticalAlign=middle;resizable=0;points=[];fontSize=14;fontStyle=2" vertex="1" connectable="0" parent="13">
                    <mxGeometry x="-0.1614" y="1" relative="1" as="geometry">
                        <mxPoint as="offset"/>
                    </mxGeometry>
                </mxCell>
                <mxCell id="14" value="" style="aspect=fixed;perimeter=ellipsePerimeter;html=1;align=center;shadow=0;dashed=0;spacingTop=3;image;image=img/lib/active_directory/tunnel.svg;fontSize=14;fontStyle=2" vertex="1" parent="1">
                    <mxGeometry x="290" y="-479.38" width="120" height="24" as="geometry"/>
                </mxCell>
                <mxCell id="15" value="Kafka" style="text;html=1;align=center;verticalAlign=middle;resizable=0;points=[];autosize=1;strokeColor=none;fillColor=none;fontSize=14;fontStyle=2" vertex="1" parent="1">
                    <mxGeometry x="325" y="-445" width="60" height="30" as="geometry"/>
                </mxCell>
                <mxCell id="28" value="" style="shape=image;verticalLabelPosition=bottom;labelBackgroundColor=default;verticalAlign=top;aspect=fixed;imageAspect=0;image=data:image/webp,UklGRtoSAQBXRUJQVlA4IM4SAQBw/QWdASoVChYEPm02l0kkIqKhIvHpWIANiWVu/HMvSyBpT9kf0A9Ts/lf8mpyrp3+y/uX+U/8P7////04sC+G/s/+N/4f+D/e/51uG+qPwt9l/wv+f/vP7tfL//kd/nnP/P/8P7B+xh5H+v/8n/E/5z92fmz/cf9l/sPcL/I/9P/t/9b+///c+wP9Tv+r/fv9N8Wf+L+0PuU/eT8yvgP/Vf9F+5X/2+If/V/tH/zPix/ZP9N+1n/U+QH+o/8z///9324//////gW/wn/1////j+A3+Zf87///8H3jP/N+8P/u+VH+r/9H92//572X///6P/0+AD//+2v/AP//1m/lv+T/zv+D/yf+9+AXyz90/1v9z/zfp31qf379svkYw52o/yn8G/y/8T7lv73vZ+fWoL+O/0n/Z/nH/gfoee+6o+gL33/Zv2YPqP2Z9YP4r/U/+f/K/AH+wfrL/0vCL9W/cf4Af5z/k//J/o/eM/zf/5/y/Sp9d+xH+yXptf///2/En93v//7zn7Wf/8XhticDbE4G2JwNsTgbYnA2xOBticDbE4G2JwNsTgbYnA2xOBr4yQ2XLX3YjLPw4feCla2B6U3rmg/h3V1wz4Mn5wZPzgyfnBk/ODJ+cGT84Mn5wZPzgyfnBk/ODJ+cGT84Mn5wZPzgyfnBk/ODJ+cGT84Mn5wZPzgyfnBk/ODJ+cGT8jud1nH35xEPKLcmEv2W2UdY/+qbmDQsuPOjTISfnBk/ODJ+cGT84Mn5wZPzgyfnBk/ODJ+cGT84Mn5wZPzgyfnBk/ODJ+cGT84Mn5wZPzgyfnBk/ODJ+cGT84Mn5wZPzgYvXgHyresw83yxcKZiZCEuSmO9d1nsZLz7ITIdnD51RXNQsfQ1FGaKWlRJF+8hyIQfra2GjDciKVQw61DzPgyfnBk/ODJ+cGT84Mn5wZPzgyfnBk/ODJ+cGT84Mn5wZPzgyfnBk/ODJ+cGT84Mn5wZPzgyfnBk/ODJ+cGT8jkSOUu/OWfnBHiImtUJXDwQTGv0Oq8gsvQghxk8JPu7vKU3OK4bUP9DYOT0NrbDS1kmKIMmeYkcgE8okAbcHzu0G9N+04wXScDbE4G2JwNsTgbYnA2xOBticDbE4G2JwNsTgbYnA2xOBticDbE4G2JwNsTgbYnA2xOBticDbE4G2JwNsTgbJC31w7iM1sPumoiiEWckuUqGjl6dTPdrDfmJATpAUZcEsFZ0C5dmANsUysG8//OYJoSbfvS0BdKuuGfBk/ODJ+cGT84Mn5wZPzgyfnBk/ODJ+cGT84Mn5wZPzgyfnBk/ODJ+cGT84Mn5wZPzgyfnBk/ODJ+cGDnn2m+lHD33YR9B4TH0QJzeM/o/THpqRg8E5nHy06eXYWrex0Hwn+2Ea631XxpG8fhDyBtcWvx50nA2xOBticDbE4G2JwNsTgbYnA2xOBticDbE4G2JwNsTgbYnA2xOBticDbE4G2JwNsTgbYnA2xOBtib5tI6xNFeQjThfSd6lDuJekju4Ce1AUi+Y1d4PM+BTsafagUafbd7Y+4kRfT5sAB3QGvgjbULPalY4iCEK2+oM9eEl0fnAqc/Nrp/HsaNG6OIeUmJwNsTgbYnA2xOBticDbE4G2JwNsTgbYnA2xOBticDbE4G2JwNsTgbYnA2xOBticDbE4G2JwNsTgbYeEPvIgNGNYmtUM96dutAxp8zvZa182ZF+cn5wdBuE0puA5853H1H4g87CdIsJgNp0HFXZjWC8vfPVsL3Ygt+ZkPz9mCV3e2Ea64Z8GT84Mn5wZPzgyfnA9bvl4kxOBticDbE4G2JwNsTgbYnA2xOBVp4aIQSzMKsqTvFF+cn5wZPzgyfnBk/ODJ+bStQ0lECD4B1wqnQanS5qLEhkGzQHmfBk/ODJ+cGT83CkIGn7fxonKogC8TD6NVVHpeY8EocKqWJk7MPXQT2En5wZPzgyfnBk/ODJ+cGTKOkJ9Ub0316QyFVV1wz4Mn5wZPzgyfnBk/ODJ+cGT8gxtQOA9Z5YMn5wZPzgyfnBk/ODJ+cGDhWdaMNEY4U1ZQNYlbgdaC/0i/OT84Mn5wZPzgyiNGqZnQnpggGpQmYf3XDLYxzli3FjUDIvsDiMIo8DbE4G2JwNsTgbYnA2xN99B4Vo7QuyoPBf5Jii/OT84Mn5wZPzgyfD1juI6d/bsvNMKlqwiPQTFF+cGRk26nHxpiyZsLWa78rhE+ED4IFoNrWhAcDWLTEdvmceKuwJq+C5dWV7LfB+1hP3K9js4GfBk/ODJ8rEAQTDpezUDo9eIx08uvqhrrhnuLef8j7++qnJG2s/ky+wTPb0c0JMvQiokgiGjR0Hb/k3w3vjbrzvk/Obm5ec2AslzitnSkNqxicc+VOC2wpTsggZ0RnwZPzgYsTjDrKIRv7ez8TScohG/t7PvVfkoqEtZNCELXu+dJwNsTgbYnA2xOBticDa3ZjybxxhFJKCCgakxRflVamD6XvnShjaPZyxnKtucnKKD7ZTy8QnmAa66zGIqLZ1zgWfyjT4ULxfCPyX/CbRIE42TzQ4dbXLXcNne9zKqphyQ81jX2ScPBMUX5yWbLRtfj20UOA4jgF2C8py8TPdgmHot2YbKsnk2nA143UvqSf/5dT7XxnaZ4OnYVayOpPWbujh6MlvFJ0yP+CYnWev5/jGBiQCFsld8KMUdNuHTD9MkiugBVS1q6IPP4K+dCvGe0CesgVh9ABiojYuEKPA2xN83ty19Gc5vRW1nYIIxNJyiEb+3s/E0nKIRv7ezptr8gRCquuGfBk/ODBzO3lbUxZp9wz4Mn5wZPh6bK4oB7VTwWEW5rzk/ODKwBrKPkAkRwpvEHdvDBoW8VOSQevoUkEsawXYBM/AKsvkv8HL50nAq3oExKHC/Rot+2IAXa6mg9ns3XOzSRz1KTEXvxuMDd8qgQ61zF9rXnZOFcGWMWY1I3l0iYbMWQtacC4ofNlne+zwyYbyVlFWwDUGhbC7Sd7YSfm2HXzOywUFrGnqA6rhnwZPzgyfnBk/ODJ+cGT84Mlq8Yq07NJ3HPaRfQe3Hs9U6TgbYm+jDpePVjqY8hJGTVLUVTgyfnBk/ODJ+cGT84O5ZawgPyKu4+eWChDUZ1q2CYZO29RnHuqKVLP7+C6gbx8mWYd//ioNVMUdeMgmBEsC63pPbYGMZScDa3BxP/lAl08p4C7d+vsa64Z8GT+OjeHNfFTQINTWtCGNRThhT4IzhAa4mlGvQmRiQwkHS8OAD95VKW/mOqaH633KIRv7ezecKjphabhaSV+Z8GT84Mn5wZPzgyfnBk/Nsn5ibHoJuyL84aJUQGJLNrR2zlY9YgwMyTYRrrhfZJMukwepzH+1sRUhOKShqL85PzgyfnBk/ODJ+T0UAmQ0xkfHtFjmewiQxlBycOmSg0tQHojPgyXl0GJ1VGXs7b1iIgD2k/ODJ+cGT84Tuuvl9jR8+sGmqfWF3jkhU6jWQsXGBYu5na539HKLZuFo/a1k7L/MaTPgyfnBk/ODJ+cGT84Mn5wZPyW4loLye/mZwZPzbkqFnonlmi99VDM42EuKIRv7ez8TScmmxO9omaOyWDJIxOWEb+3s/E0nKIRv7ez8TScohGlxKm5FkQNsTgbh7fNsCZlcOLrxr/aMSK+xrrhgyaAWY/FEmVcnA2xOBticDbE4NEKdUBeNBSTNCpjwrIqkeU6rvKsiASoAv5gSU6oCdf9OHl5+uI5wNsTgbXAG+KfmzSD0GR+CD9FOxlttlQ+AqmkZHTWm4pd9yD9rBkZYHHeiWlmpOlwZL9wPsm0r0nK3GYoNeS4gcMHN+/ShUlXQZ6cB+SkFWg6wr++oYCBDBqpX5Y2IbHf4KuHIGibXzpOBth/IjVl/UDDrKIRv7ez8RThNUm/t7PxNJyiEb+3s/E0nKIRsEu8g7esfF91zbA7A2xOBtdMq5Pc6Eu5ZiR0r8zoMYYZnblEMdUT2Y+KL85PzgyfnBk/ODDF6Yxj9iBLXlLiq92rccrRvJSJJy4RdagOWbuFoh/XVHgbYnA2FWfjL2YBDqUdCvBb5HoueMnz1PTwgpekOUrTvZAce9YvfcbYnxK6VuTrA8PKQHnHvqxdkf3KX6mG4AgpHXqKYO3ChGvx3S1F1I2VOATXJDUQrs/1SBxWDXTecmPnScDbE4HOoRrrhnwZPzgyfnBk/ODJ+SF6gP6XiPVCgFOT84MNOBmdDNJwgnyn1bHnSHDzPga83bApC9a+JRBbEDbE4G2JwNsTgbYnA2FWjy/F7oU5gnNN6cjXpsaO7kbAV9LUQzksILccNNTAzjHpgvM+DJ8RG+u+/7SbJ79n+KfS0G2v9tf7YnBy9Y2xOBticDbE4G2JwNsTgbYnA2xOBticDa3wBS55OcHM61dLrhntcE0+peMKGqMM+DDTKwygBBqwnxixGs4Mn5wZPzgyfnBk/ODJe9Aq+UU3Ch42C47zNV8u2y6O15gh3WZI92RXAyKNYa64ZyvJjaf0bDQiPA2xOBticDbE4G2JwNsTgbYnA2xOBticDbE4G2JwNsTgbYnA2xN8/9qkhl99UlbZO/t7PxMli6Bjz+1ksHwAg2G9i72qwRfnC6yOvusCv5OOHDNYSfnBk/ODJ+cGT84Mn5IYXNrPvM9iJ/hNBGM5tJ4CUFn+7uLUIxtu0fHKJ5uCoJZIB+1xO4PrRLcxspisOJ1ZlO64UV1Ei5yGQgWXYS2o6myqEN1UmUOcitMoc5FaZQ5yK0yhzCcK23O2En5wZPzgyfnBk/ODJ+cGT8j8DxrNHVVOHV4Mc/khSEZHmuzhbRAnlin2TRlNHypoE5pd8Brv0nvoq0m5u/+LIDs+aFdyPzuL8sB0meHkFh8FPw2xOBticDbE4G2JwNsTgbzplRa+xU4q4iHu7sLQSQNo8Gmm/x8fLamhg/yAvKDfRs8J6eWUnDLmKEyF1SI0uo/vyKK4g0brILSgcWqERZyvQdFQI292QkSqEN1UmUOcitMoc5FaIo+5gkjoL4YN0a8cxzgbYnA2xOBticDbE4G2JwNhGEQyDA/qy16UKE0xZEXxk1IZIlIn+klNgSMbRIRibH3PeTSztd2fkFR1/OJO47//Ia+OSKh5zhpiIRsXca3x6n9P9A6mUqGRP/iL0VJvSOE+5F+cn5uKBm2V+aE107cfl7qWwk+LcP5xkAtaeXNTh5nwZPzgyfnBk/ODJ+cGS8a1FhaZTueKVzI2rRi9+Eg04159Jg3O/62R8/ZVtavnTHMXqQESo3ajJGUBh/S1VRGe5vEZ7m8UJjGaHWFtV+RQ8OK0V6RfnJ+cGT84Mn5wZPzgyXiFsc6DYZdiNyQPSakbA7pli0hZhnJJu0uY0zfOk4G1rJwVliWKdV1wvMx89qF70neSV+Z8GT84Mn5wZPzgyfnBk+GV1cnlKGHcxI5wEtX9zchZFHJVOltL9G6Ho78cAeBYUfXojjKeCdlwYrSfnBk/ODJ+cGUBtmduDe9hRkrsExOBticC0Nvj+By9Vds7CNOT84Mn5tryTjphLXfOT84Mn5wZPzahOm5rQLDLr5yfkNHH62DJMcrLbMQTLvOk0JqDP8qNcKAXj8z4Mn5wZPzgyfnBk/ODJ+bb8fy9+7UQ6l8DWFAONvJqiTUgUwO7VC9f0HkH9ItR05Zfe5Twha6oYfzkypfrgjPIXuyEiVOrr3WgeZ8GVZGKL85Pzgye+ld6u93lmZdnXZXk/ODJ+cGUV9OFIYRvjnoUPIUqYphOLR+75zuCZDEZ6qrOk4Fgr3Pz8XXm0a8oa5PK8TYKei8hKWLYCgLlEyR4G2JwNsTgbYnA2tZIUyvm5hhl5wWeBtiZ6mykmqYZPOPGYPLjddWNG1QNpvyj0a6xahPYvRu1GSMoVZjXWXMdao68SJI9irj0VwvdkJEqejhCjsYovzk/ODJ+cGT84MxTfBy82R0l8iEsuu9IlMn5wZPzgyfm00loiSlwWkG6hK43y5xqVe/KKoSAaM6wnt++K2bB9oXTl9eOJINyfnAy7qxHGj27biiEn5KLtN/3SFN50CfBa44NRuHVyn6g+Ak8BJtxbJA6tOT84Mn5wZPzgyfkMMPfg+QoYgeV6uuGQDUJbwjNFi5Srmkt/W1eqOln3YwPo7mUmKAVgBjYHLKitv4DUMJQlSRMUJcJaAW6R+iabu4YCR+N8ieX5yfnBk/OB/WEn5wZim76JMeqPlgAle655PzgyfnBk/OFjmt4ZzlhYkAsveYLpuKO4Z8TKIJfP3aUAa4sZcl3ds/9uexi4Ql/3azM1Bf2dtsFHwc+EgOr1NTk77zLPprVOoIS9kgbYnA2xOBticDbE4FzPLAYSU0AWNWCYlMCrsFXHUEWn3ymwXpUj+dIIMNHouj7DLVuy4EBsxqYsvtm/BgvgV3z0rolg+otR05Zfe5TwTsuDFaT8oXDCopUKctKgRjA84Mn5wZPzgyfnBkwDEzBlj1yq4hVYSfnBlAfhQ6doZI8R17e7ISJVCG6qTKHORWmTmavAJHfbsuXsJPzgyfFmmmwpK4C/i4ovzhpirSWoH7S42b1tLcqPjjR8HQLBwRMSa9j4iwDYGIMmlUDJG44litCX54nL6p1+cn5wZPzgyfnBk/JQDzgg3vEdQ4c9Bhta3XihNqBSbxeF4BVy7fARHPe3S7a5Up41taKRjcdrtL2FZ/eyuv7TKf/DwtKBxalaEU7m86/K/OTA77D6OmZnfLgsPM+DJ+cGT84Mn5tui9rk4fHgs0ekX5yfnBk/ODJ+cGT4z4z75/8mqn2H/LyL85Pzgwxu3hbsoyobfgbYnA2xOY4uaE5biDJ+GhmL09gCR/Bk/ODJ+cGT84MlzDGn/7+F99Vp5ANJIEg7WpXPJpeAVGbCewTAHTs9AYunNtnUjSuYX77wxt7XkRdFi/N2zigLHCIZeTWcy2rIRMZPpZKYQ3VSZQ5kkzioNGY14SC/cM+DJ+cGT84Mn5tui9sq49A5AdTzPgyfnBk/ODJ+cGT85zJUH0+m7djWmfI2+dJwNsQB+RZR0CJnYlhiA8Xuvqh+3budntzqSblIkeu8UHWmH8j+selLd+A1K81EDzE+7YOr0ukPIOpTgbRgUjfjuZ07rAJ4pwX1bFk8DbE4G1uuBIR6hy3O53uEvsNT4fnhHIAMUFvTXu1CKmq9YtPepiK6O8iM6y2EDbaBzFUeFz3zPgaEkQM7BDabBnh3q+dYWdF40zcWmObHKmqVANdhFuU5xn2lZ9ZPaOZg5dP0Mys++mwDF23+efKHw6a2Xu8LMj/hwCLRgnTvPUwpEohjrT8sS9Hyytf29n4mk0uWKs8E2eXu1bE4G2JwNsTgbYnA2xOBvMTbJNcJC9JeISIa64Z8GZGpCzO/PacKNB3Vakfx5IrjRCJb9NBz94j3OfOQU1y7d9RtA+CYI9oWVtOChwlr8VEuFOxOBX99zLqAIHjynR/1s4pv+qUHnjyoA2fJkAQKY8O4Y8trMAgF52yx/ass44CS/1dZjMBCtX+a461uZxI9swL2BkcNAIFQb9TIP/bYtPZ1bDZAkWls471q+zU4/jJGchmGJ0WBv9hyUAfsTgWjjdwMFI6TmHUS1yzggiBt1VOL85QNI0YqY51aF58bKuubs596q8HMT0fy+ip7sGceZ4Q2uEHhUUpk51+4d6i/OT84Mn5wZPzgZRLQ2a5VUkyhzkVplDnIrTKHORWmUOciReFoUdgt01B+acitMn7bZyvjyD10R4G2KgMOYz4OQyp1MwBhDTyIzxbftKT9U/eQ8+0X5wxjZG8/bimFWX8BuKdS8e49nzKSEReA5ZcXGloQrM9d8E8ILknGX2CDsKja0YP87Uwm5sNnIUJYBgdtC3wC9iLNZu7+04oi/h54H/Sa7aIpkY2TaeiCMzp21QlMUkYZKoi11v1HKrgA4EYnR5/kWDhCzxGoYmsaunODJ+cD0sDP0ROCpujEmv9sTfLjXLo3O7JJWTxkX5yfnBk/ODJ+cGF1CexejdebSey6F/YgC8f7w+x/yeIz0qYi1reaJ8PTvnoJicDbE4G2J6NjoyxdxzkxR9H9pHVRCcLvniN7lM4Fo84GwsXgHKm5q0fzCxo3Z9BPCGiL8F/u4LkgtH5p615SDXBy9bLgIW/SUiSj3a8nAdyEzo1V1C7bXXlir81+LUXdzM5uYEp3vMJuV8CHHSb6WPC1rPzGmj9O2hHvuWnOdKo7pLnH5nFxA6C/7q/SgpT7ojjB6c8npwSx3tP4QO9URxtm61fyJ66DTlbY6CDdfnJ+cDAJUVR0iEk2jqGsHpOBticDbE4G2JwLCj69EcZRk4ywpjXXDPgyfnBk/ODJef/zqpLK4HXBqHb6mhzkVplDnIrTKHORWmUOcitGj6kYiKewdTKlmtaCUFBpmBKu9my3OH+E3ubqyYG1wVOdA3MXAi/SGUxMjNNGonaJ35yZa3njLxs00Rz1ufDuy+KdWOW7bgP2uc+X+mCJVyh9NnGyZXhLqfwZAbmju8nIWWK3gLD/KQYb/WhGBCfwu4rk0hBJeZ7adkqsZLHhWyaYUbcdoh+LrGmYatme3aiszLzqdGa97J/Fa9JzxQ/YrpNtrVdiXG//eIXOW2gBsgwSPad86Pr2pjU6ah1lEDhQ5Lf/UtJ85Cfb2fiaTlEI39vZ+JpMONkGgtTV1vzTq4IqU36RDdmfBk/ODJ+cGT84Mnw2BBqhv/1292QkSqEN1UmUOcitMoc5Ecgb/T8CX6Qa5A9KEvaSwajNwa+cl8/E4DeXb3D0VJBcbtwYeCMjwXy74ttxdC+GHE+olFhQ8hlZzFx5GX6gNKQhmsmBHsuy76TPlJlxMg6emlHWHn8CzMCleQKPFjL8Da4EtZNx1pDnrm7fyQSKbDDtjtExywZPzg1Ts1gmHyF7JPCQ+7h0Ii3N4GG4mwjf29n4mk5RCN/b2fiZlIcL+T/Gw/XkhTsI2EzpT84Mn5wZPzgyfnBk/ODJ+cGT84MnvaT2BB7TQKJ66ug4+1a9btF9bGutGPNiExRalMLhxOVwG3gBxiZhPINkfC7k7wMibqaSxJ7fVh7yNULHbwiy2ZUhi8CYMZBOHjqqLNuFb8M0h/0QuhMpCJ0qmT84MOKwNJu8QuJSpW8E347B8zBeEfGTybu2wjXXDPgyXNNap/E3jHd2fgbYnA2xOBticDa3xwKzD/wPg5n15yfnBk/ODJ+cGT84Mn5CT20bkFtJN92FRyt5Vf+Q9m161Rt7/WEeRYq9BlntAdYttssBCudnf3qzVEgBVVQ6jihs82J93OYxHSR/T0+jJ5rrCWyuf3fwhPz2VsY34tUKJ5pxv+HsmBsDrReXwklUNCHPbsDzimgK7BDSjySnb+l8bfADoK8aFA47WUqUiuvG1Kbce+UAwXPS0gRJBQVLaB1U4xyoRmDo36K+6kp04bGE8iRjG2Jvv+fa0+1FmKYMOaQEdgtvDRjywHE62PXrmF1S9DrKIRv7ez8TScohG/nUW+SSSofhPnScDbE4G2JwNsTgWHrHCd0LAk9wBMfmfBk/ODJ+cGT84MnvbVxhhyIFaB/lTdgVs2lFDAcU6whMTSu4BTwsZNdwN6Zt46Y24kEQUO3qEBDVncY25YpgGzqVHS1/oRJYavEWqZQtuFqRdhq2Ggy7YQrG/TcBNO6Cyy7OQNsjHp7udIC8Mut+ag6iL6B629W2knMxs//wDdHNqRxSf/BVBzvdnMe8vqXXnsABBqZPWMaWtleb+sl5UENXbMvuZbsBreI3uI/lLx/nIsiSKMd5YYi3RlEzMpt3DSqpSNsP8w3m4OnCv1yHsn2y7W8SjUQUpGVom0fGSM5kZ8GT84Mn5wZPzgyfnBk/ODJ+cGS9Yr0+uvyxnEOmi4gN1PrDt2QqvgQTCV3vrN94+SPUHMtaAgijR216wsS4x+u9i6WzOsyOmThLeDxsBrmAbpdDV8Z2B/hSx8HvRC8q1vlmpQ6s1q9VJiCg11sSxv9YN63f/P4UCWrrSpHmaCWs05H+wTtok9l1XzPRERx0IePf4GHwTbvrC+QydJRIrn2e3wJfCpWyeeTlSQPMd/JTuY/9/kJoaR7lS1suPzOVJ7H51WoNtO7XJKXcy7O/s0xgrxLDhnCc4Mn5wZPzgyfnBk/ODJ+cGT84Mn5wZPeLqvk5iF5SCoD3j2ogMtjDm0M77qgCbVarfg5mXESEwO3GAU/vAeh/Wj/+LndZc2ri1rUEwEyZF3YdTmuzl/VEhwjbk5UVn+LVKEYBycP56D3ax2Cx1Z9RJgqs1nE0p5dg0x1WTtpz+c38GT84Mn5wZPzgxGMHIFFZdnrJ3m+aH72M/0ZLMTySvzPba5RR9r5XRk/ODKLcb4Jyr8z4Mn5H0435oH/A2IXNVft0DCRZLWxTVmeP26raELVFCx0DqeblVo5cIcEVEJYoKduj5GFhJ3HHeSuXrdVGNbyXWLuoKkI51huw6BticDbE4G2JwNsTgbC3HDwqHQsLrVRW6ZYrqh4NNsxMogZ/JpUqV+Z8GT84Mn5wMaf/24JIzPmt7BmT6dXdOTOMhkpJPuUs2nx3scJr0dDH5wZL/UQLXAzl2PM+DJ+cGT84Mn5wYWXSajMEI9xKmNSZ26gWlDJ/H4gclpsbaBQ4mFrT9k3EybjILKYayK6hQzd/LDJVoRh0UUlw5RtrvrCCFZZwxSzODbxG6CAws97uLhYsJncu8VeXV3hr6mTjpY5Dh4haUej6KA7JgEivLt93yrHkwTF+cn5wZPzgyfnBk/IaJXLhtDERkigwHgbYnA2xOBticDbE4G2JwNsTgbYmeVC/DO2rTywrtQ5WU5N6oEdhF6uGvEdQm+AX7Oeo1FbTr6+dJwNsTgbYnA2xOBticDbEzzONa4XexyutNfD2/j3P+tFlci5FehAwkc4j6oawJiZ3cLWg/SKFKUTs+bB0Ynn2wxb0i/OT84Mn5wZPzgyfzO4vzk/ODJ+cGT84Mn5wZPzgyfnBku4xfhnbVp5YV2ogNR1wpTHH7n5RTXS4JpoendXeTvfDh68B1e0xrrhnwZPzgyfnBk/ODJ+cGS7k/H6rfVABezzij0xezQoIbWB6N2ywVf+TVYDFKEbXXDPgyfnBk/IKT4Rju3YGx2X6mDL8K40hCe83dzkTN0/0morDTCWFX56rAs+xwz8/G7oHMIVNrF1lNOahz7UEx2K2JqAo9rWM9vvsdAdv31Aji6wQkM3Q3eB1a8NKvlCZ8GT84MMiQEg5iaTlEI39vZ+JpOUQjf29n4mk5RCN/b2fiaTlEI37b3v6iUPkJuzOBTq6ALG3tUu3kW1YQDI4C9DyAEUnduimNaL85PzgyfnBk/ODJ+cGT823Ws24a2vS4+WVSf0hLElP7MGwoflQ1H+ScDbE4G2JwNsTgVaRJusdBSVx3EPD+GCZq+Ze2HdMupqyvLItg9cFFDejzQrcQeQLBbVqZBrXZC1LpSVrkjlnAkU+kqqr9y3qFsdqpfTZyxNCvDPgyfnBmBPzk/ODJ+cGT84Mn5wZPzgyfnAscb1/GHCuThz6zwYoARAktwPgun2KZFPx72DSNdDzPgyfnBk/ODJ+cGT84MmAcU3GSb5+zGnCKDodKx/2tBAZ8ZbXNOyMcJc2lwxvUQGUFZ4oPqHmfBk/ODJ+cGT84MwJ+eb84Mn5wZPfYGftJtostCmT84Mn5wZPzgyfnBk/ODJ+cGT84Mn5wZRGbcDxyvf10ex42REDjxOOM4bsy+btH0y21FVCKxUlfmfBk/ODJ+cGT84Mn5th5LMv1Huhmo7CuFCBPLZS+xOUYQbiIZDQlovqYP+4np1vQbktPblDXXDPgyfnBk/ODJ+cGT84Mn5wZPzaeh+85KjuJMTgbYnA2xOBticDbE4G2JwNsTgbAhhYbe0FhTgTlkMZelyofmZHtIxs1xyuuzqGmLAFlpLeFp98lUOWV3Bzs7iUvmfBk/ODJ+cGT84Mn5uL3EThgz6Akzw+fxhEvM3FAy6w8CsZrOy2pe45y9/H2Vh4Yn4N4gBXRiHcExRfnJ+cGT84Mn5wZPzgyfnBk/ODJ+cGT84Mn5wZPzgyfnBk/ODJ+cGT8lDk+ynBE6xItG1XgfQ7RIvsUF+bCec4lEQJtZ4tfpzrnCE/1DGChUWlcm/b19DRbmFZlt0NlbPo2YgQvWvPOUxNppVhCB50nA2xOBticDbE4G101rVa5rn07LPdfjSi45NYXPN0RTzNrWKKKWx8yO6Yx9ZsSqXrAgWDWa6HMkltIpKym0jboRB9YxOarIkMzK3+aY1RPocC+ptNOfqK9M5Q0fxJgBCS1C2+8nIs8UPljKV6sj7SNvXxb0IDQg2LjJE1JVPuR/c8PHUzt6IWor6tK9k1iXRmZAjsbe3GOqCKMe2Mp5wZPzgyfnBk/ODJ+cGT84Mn5wZPzgyfnA9a/ai5MoG3VcSYKkhkTJiH/L/33V0CuSWyCPfPti+x+A0RKRyNLwnV9+cG8DbE4G2JwNsTgbYmmHvlzgN/kHhUUpK+7O3CrbS+X61awfGQjkJEA5skTT2zus0ui4OliXSYvgoaQk/NhiuiAstTnFe97YakDd5WPoYT1jAyH/wvrxjIGNdciPhhOzXfMovWWHhHNvkBc752/9djvQUtB/VMnpKD2FHtsASSfTvoEfYhuI7OQLb8UkqvqO/JLgZWph94bz/QfgbYnA2xOBticDbE4G2JwNsTgbYnA2xOBsIwiG10OxrznZVdcM+DB4PRW6V5GzyD5UsFkc8/meTKqqgCV0tn3P0UgWRN9wAy5F+cn5wZPzgyfm2HX6ALDKRoPLmM6HzUg0DATX+QzPhXZG/PvUKDoHsD54plKkovodD94q1k4eeDBQHs/Bk/ODUNOZl/OT84MogNgeB2M+NdcM+DJ+cGT8oS098RtidDtojyZAuB6CY32qoItvcD4VVRzcHUyvK7W1EkVzSoGsj54JfxCzGPfFs5M4t2X5XSjHziuTfXhvwQknA2xOBVzV9afhyb4CmBYiNFiPnhEgkvPlAoqvfnPWZB+FzGZ2uMVsI11wz4Mn5wYjf+zfguj22wMKrFTCTmqq5ZeKmN0tSbrlvhIRQK4GYUjoNSWxYCK5UxzpBcGH/dmNJwNsTgbYnA2xOBticDbE4G2JwNsTgbYnA2uoUTKVUhRFvI7/ap0xKPu1EGRubj1qddez36C1+wbEA7+E4AgdkMP6MGZ5PvWJNwijFdo7qSoooHxziBTPGxd/RjiSZk+McvjGcO+WWQvmhEcr2xQ5dbh/GUsY5VjsDNkfTY2TK3qgGYL7577HuTohNRKi97CDCQMWW1GIVey6uxvmfBk/NtNVUPWsLZgBrDtiFbT4hzALxhqx6OTYhYKmZU4ZYfxm9MRq1fufVxYNsAGtgj2PD+OxiCwTFF+cn5wZLxnv4ZUoKkC1TK21NkjwNrXxzA9Hu7HoquFlCiZDFeVftqaxIdU/V/3q64Z8GT84Mn5wZPzgyfnBk/ODJ+cGT84Ml2pVgK3z/sRpZw1LdyFrYV98JBGcKqs7+4L41wz4Mn5wYaZaOIrw+ixuD2QQ8ewQyZ4MoZCYggOzr4on0xyoM9LLpB0Cr5zy+IGyiZ+7JVPTtIzFv1jTk/ODJ8Kj5M3KTT3xlBraFwSjklU0qFpPzgxWCcdNnf6OuPTJ0NXDkDNTSgXAlM1h/q07zxQUe36iBG3uyEiVQhuqkyhzkVplDnIrTKHORWmUOcitMngbOX0JhLnjpOBticDbE4G2QleZmQI8z4Mn5wZPzgyfnBk/ODJ+cGT84MmAYq/K70dLq0rZmAaUATNMZcr1xOxTKg2VIqU2BjJcWuhI8ivfzEvXW3yRv8Jio5ET7YM0yVGk7MyEO3i8tyUx+swUSQT6aJWC6JaMKxX+8PfNLoyl9ardkCJ5GrVeWxf/89y8E16UW7TqrHSvwE2K/8GS7l5Zld6uyyPzikE6kAU+KPTbjGCsbWunfXz1hjA8nule1kL3ZCRKoQ3VSZQ5yK0yhzkVplDnIrTKHORWmTiC14zDjpM0m4pIup0Du4Otegixgc9IHgbYnA2xOBticDbE4G2JwNsTgbYnA2xOBticDbE4GwizlQ7A5wgo3N+85UDoX4zeYY91jhcu89Ixk44yLg4rAYBs4v3b0tafSKBsP/x9n1lhaxX+ySX+P5e4wrTkKBqW3BmzRt+9Yur1LWr50FYwcgKHSb4mEO6F56Z/S/Y7ewbd68dV65Xs7qvkEf0i/OT84Mn5wZPzgyfnBhbyHGcRnfz0p9TmsjzYA4WWy3oZmfBk/ODJ+cGT84Mn5wZPzbD1i7ISJVCF0yZ6sMHxqk3VBg+NUm6oMHzB1c321pqEyhzkVplDnIrRpdghVJlDnIjDwpDfgfRY4KQhKecrkF1IMIoMAeMycg2xCXxuBjNAOqr51ECeRsL10jOHktWYvoPU8EqyQz0OerlbARD/7yAEY9zPzg5vzgwt/sFok0onGLexGn85AOGL/p2f3f91lV8R8hcM+DJ+cGT84Mn5wZPzg6A7MwBticDbE4G2JwNsTgbYnA2L8q8X6EPSg7S8onIrTJ8CR0mQmUOcitMn599vEO1eIEbcJzHz5kL3ZCRKoQxA+6Cz/QWf6Cz/RKNDoFH5nwKp6qlixrlQBx77b8lwva1R63QT5ajCjVQG2JwNsTgbYnA2xMwVX4wcTkmJFQD9rZtVvhCM+oDTEz3C1+JP2AevklfBYm1LwKJIIWuMjqwhfqraUKuBZdqDH/pTmvWC2AA243u25unMDp9m4oedKNAQ0CBCC5zmaxG5UiGbUU31uqy/6HctcO9wP33KsLqmGDepqR+Q+latRvmF+//xSPNPS4jDzPgyfnBk/ODJ+cGT84Mn5wYWY52H1QN16F2v+PzPpIYxoxs8PsfSL9LVXijE7i/OT8kXEbEiQmu0hCMeGfO9u58wc0U3Na4VkQoqrEjqegr3xUxh4SjPgyfnBk/ODJZT+k3b2yR/tqIZvO5avBZ2dVbXPqQWrzPg7iMYRCKuu/Nn1cOG+VtE0tTMJpA/XL0eywn4v/u3XhPwnHsV1wAZkVFR9FGjhbtanFRaW6hiMzNX6uBSS5+taE5uCeItLB5pXSXy3wGOiQQj5OLOk4G2JwNsTgbYnA2xOBticC56HMS+PQqqLlwSn8DbE4G2JwNsTgbYnA2xOBticDbFM8vo3m4cqbyyCG6rfOk8p+Fi5LPUB5fkMj5lYB4gwM7SfrsSa+nrS9/1IexSxqkk+QJkOuO/cn5wZPewOtltlcguH3TYJH5FwRG4elCyMi/4k5VQHRoCL85PzgyfnBk/VTi/OT86SGMUX5yfnBk/ODJ+cGT84Mn5wZLLn9ctvc0sUXGYIG2JwNsTgbYnA2xOBticDbE4G2Jvn/NvNec861e65y1RfnJ+rrg90+m57SHQMzlwdjPTegmJwNgNRhzYxW9LA0u0ByU5EgXxn23J8sr9VKvZ185PzgyfnBk/ODJ+cGT84Mn5wZPzgyfnBk/ODJ+cGT84Mn5wZQNunBk/ODJ+cGT84Mn5wZPzgyfnBk/ODJ71z9Ugr1aUVoFbNpJ+cGT84Mn5tg0QvUJPBCtRV+g1P69/BAJSWJMDJBwRgQwqAk8WVy8KhZPzgyfnBk/ODJ+cGT84Mn5wZPzgyfnBk/ODJ+cGT84Mn5wZPzgyfnBk/ODJ+cGT84Mn5wZPzgyfnBk/ODJ+bTFm5DJsI/CgLYxD5m5cpsHQOX5wtwLhtqrP9uI9k4+pj7uI9ekWGMGxP2XxaMBJJlynTmVHIQ1ZpI0EoIq1E7+kScD6ScKmnJ+cGT84Mn5wZPzgyfnBk/ODJ+cGT84Mn5wZPzgyfnBk/ODJ+cGT84Mn5wZPzgyfnBk/ODJ+cGT84Mn5wZPzg5rUuJRASyOew8NReD9idd8CQD4iI+lDvVlqLkERP5oT7ZP5Fp917NB05YyCl9QVObALOy54RKH0wXHThD6SudeBnwZPzgyfnBk/ODJ+cGT84Mn5wZPzgyfnBk/ODJ+cGT84Mn5wZPzgyfnBk/ODJ+cGT84Mn5wZPzgyfnBk/ODJ+cGT5OdWpZzX1sNonIuK3M2KqXz6hY7EF1i/cTvXOk3z934zfaaJt/w5f2DnRE6K3eQPA2xOBticDbE4G2JwNsTgbYnA2xOBticDbE4G2JwNsTgbYnA2xOBticDbE4G2JwNsTgbYnA2xOBticDbE4G2JwNsTgbYnERHcSb6C0At7jtnBfEC2mWCN5PTJEC4IG2JwNsTgbYnA2xOBticDbE4G2JwNsTgbYnA2xOBticDbE4G2JwNsTgbYnA2xOBticDbE4G2JwNsTgbYnA2xOBticDbE4G2JvmR5gFAjZ4cFd1vitfmfBk/ODJ+cGT84Mn5wZPzgyfnBk/ODJ+cGT84Mn5wZPzgyWAA/v5zgAAAABd/CZklw8UCzcWLd0eBy8lh9h64jVafchhO+PFXxtGboinJUeOg91rpkXAID+bN6rAiAzFGnCRXL9wKNrY9xIBLEUbBI4gUpD600deAQ+xJgbbM8aqattad7bkjimjqwJMtk7vGEw1g/UR+bT71H0Evi2nn6m0vFtZICao4qdWzfeVG1BVfKU9U/NXgafsRvJR3HNnWcQcVHBX6NOoM4Vsop95Mvi6HAAAAAAAAAAAOar5roao4ZBvuiInwhHAfbiFy9JAWwUnEZcJ0bhU6KVUI03k45ybjNuZ/vIAQ9X0kZFVs5h54PO+j/VF79tfxl1RPuMUW1mUapCPWUbUe7ZhDqutHoWRFES25GqTGh1ZF/0l4//J27zk1SxWIdmBqYwVbAM491LZW7J89O0KTrFj3i8rqg+bCn0xRJWSBgjfoRrw2RA2JNbuqO0TE2wcZbCEk1fS5tcN4Xl6Eck/+IifIAqSuNMXkk9Ld05p5osGZGy/LhYlKck/XHg6JhBbJWnvHa1YhiEQ1wt9yswOamZlVvJ8lQY2p5PA12IzmrGy/DwjJ7EsM1ppr6tnoJ7hd1E7TLDV2woSU+Y261iN9i4KgC9jcAAAAAAAAAAAf0xVGHAzNmYKUrxy8krevPCPYcRq5yG6Mov5xwFX37kTRNRpQtcKTTCSzhqORQh2nc1v3WN0lYzKc6YbyEUVj0LALvc75o7Jgg+7toIOcVJbKGfRe/fFrbynuiHodcskCHZ+DCjEaD1muHQuEmDEFhoLQGxdSXYkoDRXmGFZzEf2b42g9B/eUFvP0qJmvgQPVGqV40/yRj0yfxr7ZCHjgIKKFZa7F2ekl/17nD14zKMvVT16MAngzYfcAmCZf+gBcMQuJYkGFO9V9fsAWyFjek8uS4/F1k+IN/FrGnjdLPeZnuxZLY2Tcq12Z6P79WEKLfEl4Utk35axpo+PWh6Yct8bW+GhrHc4NOBE+qIfmNhn58lF7ZThT8vGJqKke7yZKCvcd+D+brsFsFW2DPMbESVhnAu13D67AWaWiTNGKST2UJN2W6LYlKg/EmKABEkWudfD/XWG7YQg4T4nJhT5LYwXhTE6GGfBiE+9vrfmJ4EoIOyxzrHpIN/3fmgK+dgnE/X2CP7CJTkEY/h6IncvRVyqE2ZUwyxmaKokx9/VdRlOzy8gykJyph+co9aByT3vhwI3awMG/xkeSNT50UWUg4lHVZn4vdpAEy2xgsLJXS2FLvVQMABrcIAi8ywtSkYKPOy3k6tznZs1how+PDcD7riF8U8y5V15pjvoFQ9eMF80Zwq/42ZPi8aeZG3GjBcE8s1OgAAAAAAAAABdRfxjJghKdgUt5u4qbNy6clqW/H8IhCeRTXrUh7ndKwepXp+dny2bZpl1v5VVt7DQYPbqBhPsNqioUcBCpnB/eyu5BeZ3WD6LhO/CZg5wb7sFpPbi6+f7mqOOXy1uCZoBg6y2d5b1dWZr7FA7IXO+rU8UGwR8MRBu9W3lTuGp+hiRH3o9MLJK7lpDvD718W0Zs/u+xJSPRYU5jEcxpBRq+AQ9S0qdaAY+SpKosvNIq1IHpmfNbNoouTofKqF2tTRZgcBrTkHE+MPDZmDNKtbOj7ZM7izs/sd20xouoGG+nevagUPeYn7jzVVL79HNaEJq7BYqWBnHl+w4ZRMrrDLwb4wHC5PVOa/K+sBLiQq1JGqNlOEqtCA3NBgJTnKTwX2WsyI49vMJyZI6WdtV8CAAG9LREr0PT/k8oFpIs2v6C4+SwL03ftwy8qxkIq7fq96+daHAHXlRllq/P29StpxFj9ScwsqMhHeInZmgJU4+um55195LC7l02qIXVETLNlUedjIadGddcy4XN9GhNPFYFE5md5MYnDaG/H8Sf4U66zc7ad9O6D0bHzm3w97peLS1zuHinb/b6xUPmiU4u+1aqHQ0AfgNirMS9vpYgPq7jUzaM26zS3RRQC1IX9KaCDubRxz4W2wHkYsVx2uethvYDPnBRLyOgiotCLfd+i00x8bSloePssd2xZ1gD5SaQrMj/ZSH4qbHhA1JwZrps2OHI4KHjC7Q3nnHBcol1dc1HRnvfMe8k7IxBJmAGLAaq1sIAdpgATPHsmWwlm+uKKV6Q58SGFk/h211whPWgEJE+pJS9wOX8yfKxR+77sZH8gAAAAAAAAAra0j69DDO1Qu7emSFFibv3pxDEbDn4LCBSY7V9tsnWxDLTfT3tpUH74Wx4khp3iOaWdtxyFNJ2SGi0P71LbPKbFukGdSQmMlyISlEtCa8OY+sKm8eDJEfUg6W2RZCECrka0uJfXrl79H2+aBPpvBzm+yFxq+nMjcY83zwZP5+JpawWKDKL828O5cKLw724BMo72VJsPit/vbU612LqNJgWNOhLIeOFkxxGmHld4qRbMsH6cTczBlqeC3ywXwhhdgpIBa+Z1yYCk/oi2k8Inx3u4hRSm3EBvbfU245eTndYTgLWS2fwR7bI3fttUB9rhqcdoxzXZCM+9cxKc7lKkkAXa/mCP9qkpB2MHDFTOkx1EmFsmS+HWx5cO3XhwH2K5SfK/gvKILcxNZErShUCSzThrsSZtkOmTZ3RezRVRVeUsL1uPVp23vQ8nIOPDjC3a5Ls8nsN5k1osrzd7ZYWhn2HFKOUNo0BLvgZvddpnEnAlBq3la0YYBxmQv7JAj8gnbq574yxobjq9VRD/g6KH6I0pTasE5f6X8Mty+Qo0COC8rZ3Z8NLEFPcwaJQwGZJspTaHEzeEI8YaMi0zf4rUJydo6Lw+nmM3sC+5onhlPqDNsVcPxMv502vbuhN7UC3GkkBg1dI8nFRJNbHWhPUzhKAAAAAAAAAArQWretx1/BtGvX/a9jeYGLb+qjdj9kCX7+VNc2br7C3RHp+T1hge7n5bIJCN+zsDXgCXbm1W8LBVOveFjE4Siz+iOaLQh7h2DWIkHzFa+1UEYmh4rK7dj0OeL2WFwx8xdMg/HFeL16haHitIEIa9ZKA+buQLSl5SmBC5Bq0YOSpTKrHKoz3mqm5w69MAflFcPVSseOqvTw3KODRNJwEu6kZlO5LSUTA8jSP3w7E0JrIhdsmUkoYVqYmfk3D4rwomJNsALBKLDLazz3R/kPD72OBDNXipCTyph/rU9oT9fKSazLL9H7yQL9VJ1UYxA/g7DuXK8fhOU4K+X702pVF/4P4QeO+SY1QIg8WmaXfd6FdgDAfZ/Q9+g9S3pnbUj2NJ3A3BZP/KM0kSElM0ODne0vGvK1dUP78pfjl4POwME8RqdkgNdno52uhF3YEM0Frsck6j3BKG0b8h3eZlvQaKA9tv7p0Qdst+BlaERhKk/9N1JBXsETH9wkp/8+1C17x+VlgwpKQLR6pq24pSXn40M42YvdcKwQ6yWoW3BH55iqFCIm2KLznKK/9tV5iTrR/qRZC8AygBCPTpU8NKUW+7npQ8eKYjpnlOvoqDv77AAAAAAAAABTp8TCp2rf5dt9ACjnuYdeIkJtEufX8Qvu2WMJwvfHpXdqJIwshrwyQ6Rf3orVeXvngn0YVAoWxhQ1AfpI/A+BbhHMMCxEtCo7oee7PLtMHgTwE89KSyNadCtN4ubDG69RWz42DaJ2I+XH4kOspxeWhyth/RdFJ7jsarB+s/s+FSaEtKiWlIqdJ8DhNO6vNtyrswKuyLTh4O0fQt6WMcjLuAXikJUBQaApELWIKmgN72M0voLoH6lZdh/LdAGCqXFz/9BbtACOhRl0jS7iOAhqPbMzq8f//3ETCsD4KZGOusM7FtRoZIXxS4jg+w+N8MpaFeDr8XcsqbsJ4khnXy3tGEeqxMGgsCLntgzCD7ADzdHDM+Z3oqoyZ7/iDg66uB/AJqSXVtHaIqHE90IOaCbw0gsukZjKrn8mZSmc51hKHfW8A4vWM9vjkHIeuyVOW45zv8eudzT11omW4nYw4y82h1kyADVA/4yzI7VqV70jUNl+W/XiDRvXpqXOw2t5tSPxXy/M42A3xp08ckW6OqF/mIhwsTK/xJvZ6PF2XECqqIrUcWSVxjS6j6YqriZ3erjNfK8hOXuZHqDSDfg5UZ+E6U1PrNxBKna6bBWyzT2ESai3sf1bMQWlixUvFgGgO9sVV9AKqUONX+CzGdPzIkrjW5/azN9wo/t7QZm/o0anfJAmNl72C7tbZAyf15s8Tsa3OmRyynkfyZ1+9TtZ0PVUxtHb8r6lX571rBC2S5UIx0qsxLLy3UQOCiPhPE5Tt6azF8ezsEHqnFqdP/p+JEhMVM7V9N7G/YllclqAwZh+0QX9hEiqgCR3KcsZpslSILOkdtfbdSJ7Pz3jTd1D/zAk3mE4cFX08tTKboxSmbYFv6YTwZ02d7KsiMTISUyCDPVUt49VZmHtAKpUXnQC25EgJhdITTPmskiq4Kb6XRwAAAAAAAAHqM1BBeqpUJjXxBKae+nd66TuCsaibwgILr1XXqK6+85Z9AA7V+Awh+hx3AAFyRzYNS9NRzmX8kcLYZ8YplCAvpvaLBe5eyz6SdrwPQt+UoM57EAqWtuGOijlj2h9+Y/Next722tHnkV9dB/Q3vMG4hoyjz4i0i4q75DhQS6nYlUuCPZXsG/tdOoqMmGdz6uJEHtEBXZSq6tOrxPygG/e/lY0H09knvSiP5obInWbhxqsM8fpIlkUgp6QzTFJAAzaYtCAUy9s1n26TxvDkPc479sCBtAAAAAAZP1G7o5Xgrz+c9NuokRjHADlaZOrZfvaEd8JXeq6JkzDoBs8nLd3OPI2sGE5v7oPeo4egauN2+PkFQweuPBYJ4AnnQZqnrJfWaw/Asun1YMG1yQXcRjQYGZeJVNx4YZ5Si2fqpQUn+cVs84UxNokv7A/ijSOnzmrSOvql38rxbE+bgWgZvpw2nMlu2I0ptVZzNgT1BjLVjoqLmHH4PKHHCggonys++Hz/D7o+0TqiOY1Od9p9F765i9tS5aC68uaMzfk9X6xUVYKdwzIYxAswxdZZTkc4a/pysloVLE6/psqhSS/l2D8dpnXFEfJoawFgO0fiJr41YrY3Xgzpxct9XbASCZxDfCfh9yLCucQs89U77rK6d5Tj6VTet87miCBl58i/EdpCw/nf03r4RKsV82jv/Ouw3UcwqlzzEKKZDkwrtaXQP+0dJlpByAAH4teiS39qUrgDddnqHlQAAAHYQxxuQFAHD1nLPwDHQ8yvUxFL7m4nHuzdsis73xOjyB0WXJoVk0uJ+dmBoe4Q9yBh+Lj+BJ6eQGImlHJciXmrKID7w9XiDM4k7Kz0lXHu8i2DEfKDU4AAPgJc/vOqVA9QNFFG4TOzcKNmu6Fk4WK1ChZPRYiK2a/X1qV7erAZ4FyY6rRM2aNt3Zp3cX+TCFNCkou+/W4oSBwwaE+3+D8WzxGOb7TTF/k6Fr2uvZhYav0VqIA5oMv38oX3wMZJG2Y9+rTtjMKFNybFEJLlInHzCUXRYMYO+5UT2RLpL/A+EYQbgCs+9xZkAQywYu4vNR7N6LDSLNF7JUwXbwfLYaMiKgx+v7BxA0uhKH221mVOiP8J2NVsBiPDubUOoELYBeEd2ij6FWlGRONrMgAAL1InZMekH5YSuRhNu/GYTKddBV9WP/hDhgVl0p9HhUwiiO8GK7L9ubwKHyvGF0RNiKgCOI/VBlR0n83I5Svr+4PubD3iXYjAm8rZ7W8gO5iwekq/sUKgpxAD8WoNxKbcOKUqNhlwrxd9w822BHR0jpG5trsPNWYnk6Ica08yDc0aCnGzvMSjCBehvNiGAu7Qq6RUOore/Rwvh3OYIgD7vX1s0fhgF+JICKvHntYO45GhulU+8VSTUlhKduVl/DSSA9IhQ0qE7vinLW2lETJ5YfZKUpluqYHb4DYVkQLx6NeO0lf6XTVQfzT7r+OxYSqq4rMvTLlgEYEJ5+c78RjXgAAyRbfIwhhb+lEYq8Zhwpqw0r4ls0HCr8KmCFQQro3GzRrSem8ndj4bxpRm53XMEpGua9QQRjG7zD/Xsyq2Bj9vvvMMAAAoO5hTmvvoE8KkqIsapkaXytf5Vo7V1McyHYVbrOg4Xk51VGhg0hFXdMNtCAL7BgACcABkutAlRE4S6in+O9Q02Sqm4U6JQEE0fnUf3qX3bNFS/bmHLQau0FQd+wwB86ATpRvz5IJeeSEbVM9E77Sfql4c6PzHEoHSCOGUuZBGYDctLhi1WIKUpqADdC8XQLngsOlQuy2DC/1ZR5pM7JwjOB7RePwE1lJCu5spziowgwYtU8M7taWVlI48goXREQ/hJnBhGlBdLPL3zzXaIIUY48fMKBZYZIAAHs8IIjNVbZ9La6W8yfW7P43i/o5v95/UAzl40V10VxR5V8ofuyOQZZ+ItOKiXYpEfq6mO6rP5MA8xvBZk36FWYSM+a4KPYbwzRFFM0P2IQVJcw33ayGXwzLEfEsI+o/9a0Trl3FaBjOC0GJdFyrjxKmiolp+hf8uCMJTJOGeZUZqyCZKQAMD5+CLBL7qRURF35Ujd07ast73Uq3ypwkvX1nxcqGSOlaEBgvmc6BBc5e5Hgxcbqs7Dqj3WNg+lsw5id3+Hi1Y6mF+M87B6xiwhbh/VZZY057nnIqMlDMCICayHiHXbVMgAB5Rcz8/Nl3wip0cY7Gjt+Q2QreibOoaYVYE/TaFMN+qEUUu4PkvWhwzuE9Jl++GmjTsDDwYWKqbroN6b5+3gwAA2Oac3TfKdoi3/pjlexbTPR5R+zyn0cFwufGNc+BE3gIUzjqex12pwstl/W9X13p6KI8jhFazMWgoUlGeKn+am8/IJQdSKF5qNEmbkyf/3Tqc8oKA0bVburRfhgz0mVa0Oi3/PNfTEGhJVsmXhYyC45965mruQ2Pi/v3RAhVOVUsiYMdvuq99G5o43EWJxlU2dk88cNtCt4k8Ct3i9xYe+F7DBAu80bschPj4Tq42igTAvyI/mdssyrns76KQ5Lth6/VWGS5qXoEDeRXDVCO9ao7ke36kJCAy6MS06PLFvnD6C2DyGr1L1fTGDu3QNiCPUSWWxlof0sRZ3XUaM2B/ayguMLeGFpGxPrR6basgTmVhigOdFoP59y2MV5BIvJGG7CLetMIF7PmuTtm1PuN9JmL7uNw5/R/KM0lcahvFU8EB3IkkdMh7MT5bPpZ76XyRXsJPjzWHUJXaa312DcuEUNnff1jMVT8vVDoqrmjYV7Tx7RLdv55Qe9yups6gzbFvi+GNnsYp8Ev0gNeInpGHuqjgYBYfw2WgiHPeAh5a+2ozgTky627NuYJqBSF2389PxQHhLBw60AOytnSxrkNHsVnKCLA49mR1BVKp76rwMCBt6Z7sOSn2kxssCDq9lWW4c6ocPZwOv1PJxTg7eQhtGj4Jxi2GGiVOaD2X1e2QKhVZVK380obf3EnuZ5yUCdWZ4EKbM5lZDiDhi/NW5zV/+xc8OLRlobMKw1xpjFYtNF5PuyPCzfj46jSh8x83bu++TRXWSErw0/VtcsEvWhGBAOQAbr0/7d1hTDhj7pRNf8F/REu9eZriMTB4gUbfAWZR7LQ9f4JD8068kzM0ARkFdIw/Rh0yxfKhwPix2x+BkoJ5vIaIu0oEhGiva/NXTNqn/5mLWQDW8pGvAxSyOz3FE9WBEo9MOiQlm3iqACrmyLPXq1rQuBTgP3YoJSachk/2Rjor0rmkOsX5E26vNfHM6n6rNEhOGJ+ylxK0y1s8UlEADsb1ADveuvJ6JTTsShpDPFE0ujVSqLfAnl3l9HG7AbLzGcu21fM4PaoEyGsJ+XGURnjPi3pOjaYPQbYIbIy9AuiWVx21i7FYq7MZeBb2wz0325nt1zYq1EPdA/v2l0FvIpqMmwBddzGV3RPUDtSs3bw9vmt+lPttxHx2it+IkWb7ZKYpCTzgKGsQLs91JiWascxNrOlhVmcOYJv7GHrKMWF5Szuj0NyNj5gKHRbbtSrwYzi3h5ROUM2tWvkwv4KT1V0JcQ9pfZ0lKpkn72RIKZFGwSM7+0EnY+QihfC4OXuMWjfWKLAHNq8rT4Woh46W6oCf/omBuppFohs3KHTqRWcuwsw1u3cysv75MOCvc1pZBNPmgZn+TcgU6W1+PnR3i9k0CqhOZ4JoM/Nxrb+DtfjUtdJNjEhJ4dbFfSqhuh8Gq87iJgalt4Csk1W+d3qYLOdB1LYdPGkXWNinXLbNWyJt2RtlUquv9rHF3gyAmVFESpABfsYTqzggpl7mGOm+jCdw7o3HtPKszcyMAARvcSKR10D0lDzwtuDOoXB10RbrLMpchfKHeXHbSmKjRxh8bi5L6yF57xEJ9odzBz1Hd15rqx8aDuZVG0H98ZeZ/rkojB/E0UPorSXKuiUuplfmd2Y0mrhwPxxsdP24Jf/fiuWYGS1n/74S3U6o1Jb4Pz3A+KL07+dhBXjo5K6l06m4FUQcsURaLbjGguqlnQa/TX/GCuci09MuS4pHLWQWIam7JZXlsZbzVBo0oZcAwEYWVNwFc4TSHuG1rXpFJyTzCt32pGkofwG9k44APXKeUv+RwI9IaWC03uP6gRBOWhn3uSIv355YNzFMoY4Bb32j7Jx6miU2At2w8bh8hqzSWQBPCVa0QRzqq9QQy6DbCuGf21w/3/8FJJafABDqUA64pr/XHxGOxI3UiXDgHC3MQvFP0XLVRKVvUWyrJ0fBMvSZ4+iAmNlK6PrLM2mT0ln24SO6jx2SeeT09I2nnNdRQDhRuNF+pKstRYIZRAi27osYsH2L8fkLd8pYVS5DwyKTtrrP+VOM9uFo5dbzrB+YwMYu3wR/m5kPxbvUQyBL2/XkEn/+WqKjhWOwmlhi9nBPp8zXgCpq2OaBPZgxf1TDe6Id9pop7afeR2wWetGYdKbL8riDJqduFdWTjPUkXSRhq1jI+zEGFQ3dp9y6gNwCNeVmJmowsDOeZ2RRRadPOwsFxrLe444EI3OkxXancmvg+9Fj3gmPzDFFtrCXOC+mAFPjutBuxBhqQyJFXWi5EeYMePFgTZotdlLanyYnR6G0gbwa0X4JeU8kxeHnz4CBPbjVvvYDfFYMoOFA3Lv6eq0qxWfEGWCf7rK72BJ38eMS+4q8PRnMvto+q6G0Bdf+ECf2MbYKtLyAE2orXah6q+79WgOIcb7B+G6LbAQ8hkc6BAHySz9ls92qa+ifzd4BwrH1/pD1W3FAdeZdBi9ZRRRoOzRf9QUDHInKEpvX6Zcod3l1HKo3XPqgrHcPfYYri2wrMcGHHT3Py+aexlxJXf5w+cjzL3yxxs/aCEBrZFFgxYsBJzvgXO8tie+ovUn6wdiO7CrFHKPER+9qhY2huYE/X4QIwWtxpT7FKTvrdOR7K76dOECyQVHvwMIrlQV+J8n+LgDeFSsNJiI4+4pand3BTCzdJsE4THHYhA+V/mJ/qAxprFFZg5Y9VgAI9NDYu2fsWFoOto8Qwss6LZfNjFWT4NQ62wEOeIVI0CoD7NSvK4KmNMAp3lAiO2kdxhHcwHsCRj95xwNtTpNHQgL8hmtM3AuRnDKLy5hp/LxhJ1vuSbM8ui+W9juDOmAb942Iwo9a8BSuIOsmSyJ5neZfA1Bv3GUBkdA1ypU2AqkgNZSMFVKM4CYRoYy01xB693mVpkBVFtmmj+NAllWxRJ9BXBhrg2cXh4GyCkbyw3o6vxI1OEPLEnUMMhkuJas5Fe3Ka9LeXqW9xaqIYq3eejuH2b/YRL7YdIbeUB2/VG1gwniV3QWXnHfDCXbgj1/IpYSoN2OKn2wnr9QtAtbkFogOQTeZVyMa8FWE4gaqOP90k6ZMkUGYfX4reT0X0M+A2YBz4GOj+yqn54e7CEpAENSjYON8Rw5xct5YWH+BlOX4JD3tCg3EmvyZtSI4isXmUQRvyjdGqaM34JIiIgjtGbyZJGj+NWozKUPH0WWXTUPT1RsMiw+4FYJZaLImBk1W4pQ1U4J5AN5imOUp7Ls15zy4VgXRF5tKIUYOvrJZ6QQNz1NRdsPNF5erND1qbK6evQ1Ca+BaiiehUYYVhRgHP55DHt1+2miyOsLU/F+zSyzw9SpUQciZtJolPYdXSG7QP2eBYUlpQWfiDHswa2sKloSxbOEuVlqRkG/oAF997EGFFF4eK1so/BnMEMP+MAAqt1IWNJD04kMkXaZpUcFSgAnCfu+7rqbcr6q+P5NMJ1oIL3bZXeFTt16xbu55OTT6mi7lwH3g8UNWldOuY7i8iIMxPscS+0gzfXqGy2JnfEYCJKTb/fVrEAAAAAEUTWonBS3knROAzBAUFBjJploIsq4IYk/AdkGrJ7L2KI88uiT+TfUhiiGdYYPITNkXJJssqFhc73veKpmOPwkh56Teu55RU7CcgvtlOcaLfCYAly29citE+gtfL+18lWDi9zEygBoSltDaGTSKUHNRnQv9U6x/P7aIJYtOnrxBY2qDtzeDI50vMyb27R5g7g19HuN4ISYkm/uaOEPnEyXlFvT0HTJUCEoDOrBKMd7SBkrLA10AwtJcrjNrpwtFQKfEUUurMqTjd92/A6SBS1UkVfP1X2FkS8+YyxCe0BsCfaZwD1Z/0RZoAl/1Rey43NXVjqzWKXcUdZEN6S1zjJI8VpB1NWhBB/fefd0I0XPZm6NW+xzar3O3l94GLVo6VHBwjHZpiFZaRVZc/Sqj2Q1sF5daOdnmdCk4z9rF3ly412PkQQ5Cr1arJm76EuGxxZrDNvMZNN9pF9KdIR6REAAAAyCXgeIgjpox31J2NWCSYBUuY7GA6Cv0y+xPXqpi9x7pRUOpJMTXmw3uIC2puTN3r9T9qS/tLRjXZGsd4CrMoQR+6CikfibfJyGLKOkHJPh4XvktFS6nzs1mmNisJWbZXARAETf4qXTnoK3Kpp9qvlVDZmqklMWiQkcwg005RS4Iw3cCVkn6L94uPpWjSXYTtlRjnlGCbGxnGTaMm52lk6wJxlOY3zvIzbqIGdrnJm+JtOdLD2NNLX7kaX0UEdr8mc4n/PPXqrH6+Tje3dQlE81m047GMNf2lrdTE1Xvuj8hK4CqEvDE8HgNC7L6wUF1DY10rx0rwPfYAU3GYmSW2z6f8fDbJirvBTcSgS9RLf8uWdybBY+kIZnQHJUdoqVDxbzmbG9FVHJs2i+0iFVrkqltJ/dEF0nfZwT7o9dFeqT0oerH2BR+w0E6DJ+JvdJw8tLu4wei4u2E1u7ipnX+M13zpfWgxTkdf7Ai3ks9+CbtGU133hkT2Q7TTRlN1ZxaaX5Z3HOoSpANJB76WN0Sc+WN2tcyDHNIbJ41TZ3wHjehut6C5/v5azArRBZCefrYIHJyuzwAEAADIg2HQfgrldqN7XmKVm2g+iO6PLR53ARAyOMLfG+fbBPvno4lae9W3KKhm4/3MN5krmcUbDnAjn471Hg209qQxdO7OLCKi+R0Ucwa0E3CDrKsypomcoSasX9Aqty7O7CfebcJFwIraaKQwy+X9IihUY017BiGgoxIgogLisOnwuCZFm5pn53DVckOLnIGnQQA04jbfjFjPXjsAGwhGWFfdF9RwoeqDmjk+YbUTBH3l+n4LhR0Fgw7XEm5laVb2a48WzYO2qfLu9ED0uYOQKyfrlyFV5/UOXD7gtZpVBdJfLKJGBUW1NhVNcTqIGA+JthAV+RmOUwqct7zYapossUvH5rrbx+YacwZNZRAmMI7OgW1XXlss05G0aXXmKTiT2MXnN5XWEUDf7VIAwqHClBymTP2888oFnLH5O5qS2vbBaG4Y3LPYNoSM8Cjx3jfo6j2wIUE5I7YzcGoXbBCoC9mleS/a4mu/EB52qKAZTyFSNzDZpsoVK+0f1+fXRl/N4nRjh1zcNbzJtsQRXehW/XGElRrgfOSnUrRHNSUcqDVLKpXStnSfF4IsUXsvg/WTJ1F2nx0PLTBzcTUnnqmYIncgsxL6WMV5K2gWIgesDrzrk49IUM2QodRwh94yDkQfE/KRPjmVDkclOjIt9XZrw7tLV2sK4rn4jnKvYkPVJEn7bramKAvjBil0Xg2zZ+fxTYeGbuzu6kZK6tiVtHGr3Ywiuu594SHog39TlDWFsSV5jr/YupxASNubjvDwYVuRJYWNgziXHKQkl1uPZnQpfCfske4izsca0hpgR4J5hfVxSMFpjSrk+Yb2UL3vQJ97xVR9jGsBGmuzs36uZcYEzQm49aOkiwHuk4B5a1ia6AVxmgx/yjdIoGf0o/oBKbZIFhJocNk5gA3053KhhfEEhJbrBbg77dPtm07AEL8vslSvnpzLLB8SGNqx0fhOprp7TcQuqr5AkPZ893aZzQjQJ7nRntEvGe7dmK43eMhxMe0l1yWN3D2lX2tXMrikozbQaiWR9yhc9hATkpUU4eOH47XgIyvaqZfoIESTNNUPB7t6pD+S36nQkMvc0AnfFv0maTRWkzwq7WLf968tSFvDS1bLvL+kWozg6XaQbfU59V9FjBZrDyFQVWZT8wGY4o9QadzN3wgpx5pfqvMg/BuMRtbz3JUzsL5zPcSP0qCIAN7TAnIBVhGAVbcublgx18Khiz0KX19gEt9vK0Lmx6IV9+Grt6lEA9XQAnXP6xVb/Z8d6PvpGO7RFvS0Clsz5vZ5XR4tSRIaej0THxKtGMqzUyqgIrx8ILEPdxdkQzxAhEVQ73ajHpIqps71EzjjIZ1GEn9MAAQAAVko7En7RVwwBy6VNw3/E0WJFEY+Pyxd58wsk4Aryf36kSWkAGlqbdNAwXAiE6YVI4ZF1VCgwbjYgd+4UnoCChjfzPcEDCzt6KmGQeyaKgWs8VOpiXcjTAnjpzkNy1kN22bPZrPwTP7bjld+6QTz9HhjBSAAEkduegBDv8CUtJ2wLcmLatxu+gZYMReNlkKSTFq8bzB/oU+W4dIhPAI4wpgramZEJluZBu4PgYHViXq9TwPmADHfhSZZ+38AXhMb1bepT7rR78Qw5xTgAuwe5FUIdGyhw6Zlet4q2b5dzAmlxu45Dxbj5xCemAiyMuS10MJPGMhwKUZ0N10XepnChitCpDAQ+7mWGCGAMW61V865mtk/VsnY3t0bs3IiEz4VF7JrbbN39jlTvc1tlXcTCQRF8FVgS91YjGCgz4FGISVctrx/rV9r4sNzrn66zoOGP/fFEOubdven7zZyTzCsYhXKhDgIRCmHqAAxiTXg6JKUWbMwrsohWqZc0YBZxgJJbu7EIv1taum2HPXonbaf5nZ0BdtgJrfij3khq7aJ1qXWkz7tndVAUYnH7tXyZLTUm97cqOfz/L35syacGoVkeUCNAgUC+qJAxC6hkZvk1fWntqppSwFGEf28HFdz2vMrvuZDrtGcxSEFWmLtSxUfBITTzvmYTK2DYstPyDYQwu1NxyOfxKE79LmLPibGrscbcoHNGPKR7ALgQ7MYFK5CaRsgYnWP1d4iJwKcGI1CnBYSaB50TdMWG3VKD//Yp1wiAAACo/+OBICeEmwRkGh5dK+JlV6flIVAEzqWfULeCaVeYaI4b5ksgAOC9Q/ADUwAtpjSH/0LSX7wbA0Z4XnSgRCqNj6Vt0Ry572cGNNQX6FBErssJZlhwWGamkrRm9OnX6Q0+GzanmlmKhkcydG5xSf1+mYKGA/UM78uMts8vdzSJpNVIdGyP7oNFJz7Q621C6V0pnDBa3hNXnlFkFT1iuduoMdrOvUgff3H+wkpaMDlx9IWgLnsPkctBZl3GIk/IVyqa51SK2Z0bveEZzgk2DxvLdfPlxNEklQ87/+UhGaNspxSUg/7QUCJ2M48ITiyTFmpoq560InPWfMgoEWldW3gl59afxdNVjbgGjRr1kdbPPKQOkY7wmJSHbNADjUj8/pEe5GSjwX/ndWafYkXXsGuuJ52ao+jE/TYlSfnU+MzXL4v16PdVGAwfBXIWKFBg5PHI8DZSYgzaNg2GSKlA6G/e8KOpKE9CciTIWhF/42VdS7mAAAYCR7amvifYbclMBtFmQpi3NUoyWnW5zGhBlQhW4F2sKbaHkxxQ79VS35V9cSs+8mAq1YoZTT5e0KqT0/kK9XSfUPc/n0b7a8VtzmZl+G+i93QyzCduwtQSk2a8agh/DfnHrY4MlIySOsw6UgO0D/8SP48of1gEVkSldr5KvqajcaFefENczVPcKOKaGzizi1oq5LZJHdVwXcX/RUhYOk2LiwPYRwVc5CLho103HOkk7U/dyVcFyqKMivK7UCL7vHny2TCOPK/07qFm4X8R1W1KXq3PZZq7moP+nQprDWyCHYFp1kEcLhTSzDZrktW5zEFL436Zmuws3AABxuWYvCfurYlQ0PzAM72SsPgLxLYAqEE60b72JdhSdjvZ+ipTjBSa28kWr3XwsDuN96h68YBzD0dhbHIN02ETZpLgPbsdS+6ZY5jX2OEmYU6tlM5MTHtsd+poCjlSLgoMCcoOeGgVj39fcFsb4o5gzjJHzgov0XoD24Ny+Fe7Di4vupdmKngU0Ov0dAJMNTfAE5MvTwWxZGPxXlMdBYKRPMoMNa3YBCuqZ6KsHzhmG0BVks8PSHzVeTwTJmh1nzc0oCfIfJZM6fcdEen/ubC2Fkk8jtBREdRfxG9L/dN73ugMc6OFA/gzcZYHNIbOQwaLhbLLnQlngrxB+bK5iW1pLbbKLA18U36ixNtwgoNFoUX/aO7HuBF2SCFPp3V1kOhBOL7rl+1ETqFuyxBOo0gXTD0OagZG2Gbln+wVa0r7YupMV1nZ/gs4X4J0KGvSBYaBPbMJ4UDx3THwFECAgErA7rUqwrGNNzYDxkKNnOPUNwk7QLZprcB72VTDS1PcsOzwgezJ8wO7QIqbJXxa+mTLRwwE64xN0/V7613s2q79wnBggW/jOKuKURmUniLY2tGqS1ZdId4wRhJvFHvL07ZBifgS6qzslMl46IHI6FVi/yBK7Lnr8pKMbG/frI8VzDUZclefxxA7nO3PxRMI6BnPthOojth+7IeKEiDmBdpigzDa8c5F7MmHmh/X7AsuMIMrNJzJNtP+9dBEwE7E94uMNR2aa2sLlpDotyvtTmJtYmokj8XbMNeeiJ9nW2bVG8goRQC2ZUFtQRrYGnRfMjwHuuUBUu5EMGdDZei0eqqQ/lo2LNHsuEtNvTTiW+ZRy1b01HM/hi+YsfBecOJ5GGYVKrn44f2J4V/eNgZZgyJ1dzH5f7jXzaefsLTJGRpWiCq32rRwGiS4Xenkh0wu+6i7YEDqEB+qKMY3l2BrTNjALg5WTlavH3E4McFGIN/vSxgoO6oNd+SYWoe3LuWB+TbrASEGsKd7/hfC4aRA68HdYLQHNGdoVjI8hqqkX1BLZ07d4+OBFGf3JN9Ru9zQY5rhuwZVBo9bgWrZ2TAEo1Dy3uwhkLdzsNuO/tNT2eNX5qnOCXFXUaIbV8LxO8Z139uin+yaGbUEWnoF6O3zN+Ds9Tgp/eeV6ceVY5RXDkU1KXom17z+gMxqDOtLb5jUtgjccmi1qVILNDtuifYmKyqDgRySRj9SY86JrVnqq3yFRonJPv0LhKUDvPQIKA9RICs9WwmOVwf8N0ouJdjd3optiabWtDuK6VvrSKPoT9Qt3p41kxCE7OVwVmeNDHKaR+DpCPgAADT6xr9OphIB5vE0jWvQOv/4gghcmM01pWvKubgpQHPZnyBTDurqiRGLsarjl1h9R7BqhdQRn3d7OrtkAKoQiejU03wh6KlkPVEnPXAdittnnCzbwEEgnvoI7X4FPQPTByigSrrFuLOrgE4EX8qC6LGur8sOB2ck/AMbQBiFQ2Aw9y179HYKluFoGwb5NEo6POdxjo178v1PDLZgqkrOfxPjAKMrzf6BHG5VypyCAj6rm0J4fKaHgCs2ek6x6LTeNgyRgLnjNdhfKvYRDB09kWihHwdURbPDGI9PT1Xg5ilEJpE6pYw2ihaao2m5NeQ7H/IYV3XdMlNuQHjKst76PmxIVXU1XZJBePyUWsnafK1h+UgZQ0s8Wfo5dhkJxxQuNk6HXAZWg92WzRoKlYoUMFCws3Am3u7wYMpCx1/LaNd1DC8/LuNLiLEgT3acIbfhydHRDqWYjhekLc83MTkxiN+wqw530mI43KQ5yazaAce8tWckHyyDBHXIx5cGuS43qS/PpYiQ0beAO1C1+8TK7Of+G4+Ht0PDAIVD9V89B9TcVnQ/5I2vy6BedZKJGLJ1HOkjpt0nLvEbenEU5xXcY7PsEq9OVHW7ABPq8hP3GKaPzBp4Kq99RpxoCH1VAUkCqsBo+xWpXiLv6t7R2hPo6UtjbsE8Ep4GpZKLuRKTReUidWEebwnax8zKhLstplWyTOsuqAhT+j1Oqkm/8NJbANQ9Ms8dZuWIDG5PaXBMJTNc3bUUuORdihdugwJ66ltCLojKNLuPjjvnnAY5PqbubWBGGz+1Vw/0kUQL9bSVF4jOsG9+5k7u3SJzj5wo2OOKe6EzCpAFugtMB6KIiEET27OV4VXpkulpL0JCfG6OJXwKFkgnEh41tZbAEl5vWJeMbAX3ngXx5EV5UsOLRsLywi822EebICmT6N+Rt/ms2utW68802QnKW74uvWTUw+uS/E2vmoy8Pvotq0iAO4uP47nxRn0RFi/pnX0OCrAAAADofzdhCLGjLKE1B+NBt7q1pCEispQOJ3/k2mgkB5B+cLjIRBQ2Efzc7nOVDwlpm15LD7wGHzwnRegZwunO7/AwbpWtOk/np4eI/2N95WIT8GifuHDY1NgXmJocwFhc6lasbgl5XalMPj+Xww1lQeIJqOrfiVVlROO+NS2b2MVnJ6uAda3gy+oSCZ+fllG+7peTihge7kU82MBSpabm69DmqKbziUsshuRS7WMg1JRRMb5O+dmqPxE59zGoLTe6dwOZgbuCw70UL5sk7LgMAXwFjF+KjHXTkh6sVNjkUrK3cFSQKAGLWEkKMIs0alxHBZN5lONcquaYFZU3V1C8tpFtzyNKFpQRuirE28PEnktMmnv3Oyr410UFmf2LZTjfO03C1EJ2Yfcz7pmKva/wxlMjZHXgsurjTi3nsAFdBRVNAWw2daocrzqsSs4sc6oif0IdQG7Wc0rIwZnsU+nGOZ8bk1EvD2qJ1g26pHlT5pUmgJ0N6XY2PSfsb8sBnD1w5HxGRpS3O7ZxJmcb3UxIo5YpvEd6BWwJmQhDQZZV5jOtrzXJjVl69BA6Nwo6ApiS/9GBx9txxfW36jszZqXyhX0tM4lMbG7fMwqj21n/uGTvAtbM+PvkpbivfTusxAw3Yvz4ecUloEPDt8z0i05hBZmGXLEdjvF52twhTN1GhNNruQKOlXgAAAAAAAABR1xxdA3bylTvOiNAiQQ7d0gnjRfEMpyiRDPpBPeYHkxcIRJhnC81dv18Bzrca1qjEVWnYKXld5aFGx9EEe/RYy8UD/HVcPH8jz5GH7AdGYUI3wyY0T6OamPFyzOUA9w6iTEd17I07r7CGIt+B4cx7BqJuPl9PscnZE5paeA3BCuRElPIdiqhrPhHxZmOg/DsiYDs2MMZAzcQI3y8CAABRx/kQHbKiW891oSiohLe8zGg3UlquwEOhdTBhXJhyFw6T7xv77uKTFMzvFwjkuNPp+aHIJmtm9mezGu9iDczL3WcJIztrCUjKUrUB2uFW72qxXbHiwBWEDy4YfyBXjnUUyo99Fzt0hVc7nU3WOl20l0wGddAtC69JbGxO1zN67CeXNzRksbLkDg1+mRwTZaUg+7s6d/MSBLI+uARpxI0NDVjNc7OIzSmrx1y7djkIXaurcosEjNJxZWeU4AAAAABmreScIaDUAcPX31MvXVQ79+UZQ7MGvpdoYzrbiGquDLHCzp+goE9tIlxFT+9JUZgD+qtNWJRJunRO09N+jb51ptDYMmh/GbSPFMJk1tldq0QqXLFc1I/ksjOvaaMDbLcUosUhdFQwnzcXCpx94jl9YM7iSVX/f8U8IIMH1xU2XVo1dR4YtudTT7NBHh9jvf2uScV2QDyfP8iwH6quEPt7fyAv264SQN/3CNy+Gnc4cSOoOM0OK7AolivZcF4fH2B9DE9ejLzZMdtHABrhMql2TGQuZoO4aB/RO/dGKWw2XgjtVI8Jq5KfXAElJBc//uOsz2g+bUfSVnoqcK6GV+SzSt9LHPwnKsCrJVj09fsAWNcpt4544B7a6ztdO32TLPHAwgln0pbq7Ps+98nH3DbioS/OJgsNaiVRQu9xhB1QACqnHQB6naLSldwMz2j8PKgCPPD55BxrV1NUGcaKRHvKuw88Y9tPpVPH7kvySCyD9hoJfKAk27PjWizl2izIzOuBzm32w74NpN/CkyvsHjq/yy7pBZiKibi9ZDPYqIxhln5PtKrV90ozqZJkgKa/RA3Yt/3bvoxhWSAAKGM2DlItmHkq3zJa+0qYqUwh0Go5biG8477KcAzxWueti2dYXIhqImzq230tFEttc6QrTi+Oz+6PtnnT+85VEpafEk8bqWKYESKE9CZC685l+IOYwsMr4SgkYQmJ3qcYy4UHPChUiY7UDv3bilXIOzdMfJeLzSeh6k1Ug3voruDnKKSpCffMlnyVFUg33ulC+BbgiZnbazO4We5xYuh8FoGbuoDK5JvynpdRs2GEd9eb7B1X4uvGRBskri2dh9Kr9FpyIr0F1FuHPkKkZpLz8jBZAPO8wo1tg6thEqcmXDL66qIN5wPJv9puv6NgIxv7idwG1I0p8ISwjP++oM4E3qb+KyhFZqiNzQrmS2YX1lZ8YW+pEE6KuiLJsYvz3nqw3pIYIvC0MAJ/dy6cXOXWq5MtyDcAAXVPbC0bM6EbzQWFfKK8pKJkQW3AQHqyS6rywJ9djI85eUGWJDoBQ2c/d640Ew/Ku24QA6Fn1RAV4mfQBnsQwQItQV/Vrj9DdeLjiml+aRzTlLjNfOu6LHQgYjVQNnFiwTm+hjKUqnOGx26M7H07Vyqw9TOZBYE9sov9YP/XOIgKfhFpjH8Xdyq3DzZAhQRX6pkRCmLjydjpHBWa9nCs1Z62BwslhXjrVI+n7CVnkOKPOdKCWYy+RL3vwYWCEwEQ25jj2Kbe57huP64gEKJ6PK60Kyw1bD+MIhM6VFxRbd9u7yFeaTZhLEqLtLsTD12SRe6z5Ux/lS3qFkY8uL/No//L/sBp/go9Ug4FzL+C9RLMpILKbgTeec33YCm7tXTxzratARBjJ1FwZz9Rk9XW7rPko+T3hgC5MJ62P/Kyb19NI6OZK5uumA/PpQCKJ8/qlXCGDjpQ8iCzWtcUvg55hHEczxFcAjJvC0uoqlv6Y5kCgqKF0Hj22nNhTgAA3zLLM+LN5AKvZ8W9lScuk5F3g+WFJmAqK/TGnJs8+pTuxmFovQ6mPZaMgn9JUWZ5wO8F619CtR03xXIP5ue3el70JlfhDzBh0I0orL5A/NZv/9Vz7kt7mGx1FUq7IUSUE34yLATf7V3PgZ3xBkzumlLDnddclWKKMdK3K6IYihhCBHjBZk+9EpgQs1Mp4JW2Sn6U7F283HPkyxbxxz6dzQd2PLQsIsZCrjqe9UCH4VnuRJ4qhFDNddqCNF9R0Q5E1wQTMglFbmvJ0kbaXAHRE6aznqWKbVeYDDMWsvuyT4EmdPyRMoilEjUE02skqyglEXqEjL7Qt5jhumkmyWd3XwjUB0UiBdbhyrm0uFJHevQjGEs6aLPXUxP+YV5b3AGoMOwIC9/KbDYWP1SG+4y30d+RNcr2aJag5GX9zlkCQMsoKIQoetPOKu/KXGShtEMxi1O6ha5Q/cwXixMMHzmX8o/p0NeRgqLgezawMljtp8qYHrwZpydhspA5ojbar5tF3qsLNBimgvJ9fLApyLlyPiwKci5cj4sCnIuXI+LApyLlyPiwKci5cj4sCnIuXI+LApyLlyPiwKci5cj4vCqG1OuMw24Vq0ks1FuSx6u6zsFNehEl00ex8cfvwADejrCMZAmuJli5UX7Z0Zu26eJl6xPGihqfu2CcNJyBhyQm7teA2cUBNJ1W+MugWpIuvUba6VORvK2haMFAekPKmj0LQbqc8g/TgxHTQ3uWs6pe1ByG+CBDsRQdQqdQbIHuqr6BenInG2Qyf5878mH7N9Amsb0hjtUo6RBd41OQA1b3fh6W4oPEIAb2C6Fg5yIia7l68piA6YIW7kzuB+5UBUSLZBwZSz9TTZtPfYVnIvDxZKobedYsvLNvUgOVFzV+psKN9AQ/c7yVhaj0YwgGGdFfo/ErGnLHRUyXHP93pXtrGHFsPEyhwxiSjRkJjD7qUV2npaKEWzvuOeGQFLXKr8Ta//0I2yQjZSL6RidWa6lt3KFDTjAh0+yy8ioWqgJUmwyK4XkBz9DAcwREq4MKn6i4poBES+C74tUoQnDBonomVI8WOq7yw+i9xHVd7b4Zo/RNQJ9X9KgvKvH7CUl09A1dCv2XQWeTd4zrLyBPKCu4k6tdmXxvlAQAjrhfwtp2gTgxW/7YqmX7q5kropngFilV53Zbj/7i+Dm/Yb05+vI4i/yhBRc/ikBLlq8t8J+BSFa7r1zCioXmyXTzKSGITowCCExivCP8GNkWDBSZulcNhA3pEx3Gn7cO+DbXZW2gir8MaQZyAbjZHsQ7rDg7zx/u+40dVXHCnl4lfm6XJy/0KU4SD2GrnlUpWapFx1wZcGjdKksYEaCtyX1K4EtLRvTUhnJRIxrIjzDyNA3M18cEjSMxuYcY9sD2YdGsZVzzkPDfVwus8XO0gtryy6cmfiM5CxIE/91ve+H1ymEbDn9w4aN1boj+D5+U/2pfeElBiIo9jwDkKGiy+y6g2rQveu1NWuLsCnKMY0Y3Dubg6fsjJxlsZRCl6esJ/w2i2/muevXvI8eeryI687wIAsrbrkdvzVt8J4O9YAAD/jzkhJZwtmKC4m99C+NChFbPbiWF6Gh40NLCnFypJe5Tyyqv1qARgRUQT6Ybgw1QA7ojDSAPCeedcvnQG+4tFDrQo/ANKR6UkC3YvqWPmtEM/CV9C+kgsPKvExeQYyUXITphDa5PQqEWenLd5DDxXkxv05TZCSHnc0yQnUfRs/c8h7opAol7i908YffQ8nwsuTX4Tc1/2I5KI/DVrWefE3WB3Yc7yLv2iU6FyM1tOQ4hVLUfAAh0dzwwR8xdZ3YBiuuxP6MgEI4a1bjNOBD+cSZ9NKff1avUmXY1wz0aS+dLb5B8JXT9NX2gJSFspZp0oFvXRAAAAAAACreNBYFZI+U02Lnn9i9tKplw3duYSs+0Kh2byPRT9Fg/gAAzW/bAj1Vdv/ybjFOcfc152ACX3UBpnFPS+nBMFNsTPCAE41a33MYhqcuMf3D/8tGiSLUmzCgAAAACgeKyt1GMmWlmZYlKa9tPB8Cs1ouoYtL/IVBr2KX3upTVM4PhqntA9U+ro3vGZLsTr7E7U+evWY+IyVdmZ2XKhCPhyyGx8itTCVB0zRtYVIu8szbPfWvfqBQMD1Nkk9CRPl6RTcLwFLKzh3bw4/j3Ga24dGk5d59JsxdcGsPWwdNNiNHetkeB9A72AUUNpHMwVamt3BbKTnW94KDIP6cxbSRJInDtjgylaCKOluOKREAW+SthI5ZDtIQAAaVkbdYXzXX8NSsBhhIzasmsZdnluMZxHewwk7UhKDWzMtDVxrDi1SA1qLzCBii4g2lbSbsShODYp3oDJLN+g9811NcPUECcUzlbTcMqpU1w6TTh1YPnAwvEKkFi3LamhD2bqXat5dF1CVSGTl008DP2j+VcEbiBW/RPppukrG++PymACBQypktRtb6C0bagNtPKaVJzs/055lx80FVxMXHgy5zf7O1c/TMF9grtHuEa37gKOV9P9MmyAlkLIdMYMZGCAkNypYVG1Pv6tXqTLsa4Z6NJfT/Q/WGGPYSlyeo76l1gmS8ZxQuGyzunsAEWGRETwDUfspgNHXm5TvjEMhcxGOYnUf/SLgTc9r64JDXEYtZD8WMJqXbp8yEK2hGTTBpx1TTswLw/jkFSEXBvGXTv+V5+eV/GhdYqZQjWSauAWpHGGYUcSglIB1F/KYTexB0/KMPRXTep444oRHIiZ0jml6T5Bo6W5SESl2P6MDqAu5DrvfMsZRt8ToLh0dcNxAgwaIVzps1A8XqckXQ6qXiRPk+ETRNz9OZK+C5bWGXHxz7xoGcBlORLll+wVPyqbVUSE9KwNfIwEP4ciRgDmBAeSwyzi1PUTfsrTxrchYfpvXw+nB4k1HfEL8vieptZDoDZk2YY+8W92sQQWEXBJVLvMr21t+cqL9jaIx5nt3khSPxDRLoVjBFQrvvGuqdP45CL/BZQ64MrjcxEAAB+5HDni1SGWpYas7Q0ui0TchAnQNQ1wXNohk9Chisx1o7L/k8PxbgmI6xh8AJHc9ot+nypsD/9iKka5BmBvV5I3UqcJxJPjA9mplcE1XaXgqOFgl0eK9y2k7ObJnvPTOlUM5mbF/kE02OVxkFmjhAlWeskE8gMnaeKfgdr5csNNcc3x3/gVhgaBxoajvbJgg5jkKghmSUhwAoV5ML3e0HtX+YYC8T3izX7jXMu93CNsAz6fvqCAQLkoAMe09hMCP8iGPVbkmJVqxbqUOlRotzUGSz/tvo18y/lH9OhryMFRcD2ZZaG5mS9L7Ua+hkgCjyqcJxb131tkXQF0O0AP11hK72wFZlQ99YwfS2YaJUholfPw74wc1qMW1vqN1xNbSt1rWf7JHjy6NdcoSUewjDiKwAMvTOnuy4UYYcMDGbpmxF2p4H9fpHzsQqZmqnfi+r1GYUBTc+/CSLndePnRPMDRby+7jwsgfDjvMbaCwMEbDE+pRBQDeWJ99heX+LWZ4MZZhVQpJ6ZE01FzPhU2RUkM6wEjyjGddC5WMMmxQurD0Aff1Het6XuGmbdu568b6MagE4p9aNgynsssjnkXErU+ip/Ut7aOPiUxqXSnw/PRGPcDTFoKutsvT/1i5YttClh1DHnuQeeXrvVsxhgPNAwMiqZ2RrSDHf1nXtXVKafc+jhChQ/zxIFJZsfuT/qevbOGFSdhHgeqLBPlnhUGEt+Ny2Us2EayJzBdE51h9CuTNgrYwaDpV0pJkV8iyQzHd6ZHQ+Phq7T08/NkMo5Gzrn0EZU4UpJ5koQYclqAISXH20enwAVdL7e6jlME4B/XvY8lt4boUnAhkuHmS/BW1d0Rw2OjZNql76TWbcRnChhvMjQNSlUbCP7pRYLTZPxvSpNuGbY5olMFGTik657st5zkPif3R7wGzi3eq8o7du87bRT1xITm/OeD87bqsCH8KX2mfaOFv93P6cuEP0lJgom5+VY2LrXTfs6rBepwiGZ+jgX40Ah2ztzw607Nczbg9Mlmugr7TlEYa3vR1YosuCclkahKT/Ju5JwSxS9HGg7n9pgCDC3/vt638q8qNZaD3ogif/ghAlD/Gm3Kkf1ta+/5lgWes3hkl3cEnjzU3OAw8XVdwaznJ1OANnVfPx08LAaliZJVFwJcAn/IoQFa3gHjOLN7ezk4jOaYSijTGLm3d5m3K+gy8kp8Sct07sPOKOryV9XYRgA1b5db2CUn/zO6kqTtPJJqHgJzhpRhnISxgMtT4Uaf0Fz6upIoriUI8aM+F/FhleQyr768U92yDDWUswZy70RcVdqdKcNjb996UT2exbAOgu3hSzqqvlmiMbKx5qZwf1xNLWfvZcxvdoGNA8OWHm5ZeCRm8S6fKUjfD+Uf06GvIwVFwPZlltKqNDA9eDNOTsNeqRHRhKzcABM3bVQBx02HpKUNZLxCQVmqYVuMilHeV4uFq3ytUJ7VARI2YhO2S0phE5PkYnUvQRinF5+X0sgilgPIdK0RYueubaC631hnnuSb0TAAAFSXVntfEwCNVFBoppFO7ZPbRYXhJ1Cl9QEdhuvQeOt4Ek7WEQyNltdbdXvbavOXThhIiIN9G4+04gXsShE2UDvSoAE5aQ/WwK3nV3CtjgDHQemGx0xPsTmYD1tF4SNIkjiiMvkSJ22oV0OGUkiKNb8FD+/zmRS4gj1kD4+ObWuHz4VeLyQhPR3qHrgSMQk403ugaTjA6hndLBrWu80iBCt9uem7qTAHkLP0Bs9oYRdrTPbwQ1E8XYDpFen0pmvj40xzkvuGQCtlM42mXRxs5hcXtGyCcw38+ITNmmcCl9+/3v3cy79yaTgVuDwE9x6fgGht8WbZY5yA6v/s3VBkZ3L4W1Nir0DQi5vMqeGmpDgZS4sylTqXIfTmVvAS/bTnHrGUNXNoKa2LSLyaBAf5FEnhS8+GnIM9IZlQZzjguduKBof4Fx1wLNKTFc20E60YCDdhdfukWXAQxketnGLLo4/7UTewYWrA2I/taWgOoUneHBCvUUSxo/dNe1goliI5sYz3P+lSJl8sECdBqX1v2Oa+8/+S+ZWKrzum/suf9lOmBzbkhuEjfW8PJ0fqj9cD6vvseVjtKwlZhuwYg/5e6xGdawiFrSVQCcba/s1VnPuXgDij340CqHxqYZJvPIpYui0c+0NXmG2d3GW79kJOqoieBusoZ+SnjTmIRuFhM6C+odf1GlXZUAjVRgZrJazBIvwqaXeMHJiyb1LhE1L0AvbUiZ9NeBZcIQOPjUy/RDY/rPAGySeYRu+RKUdw7kqH355cH3hLH7fDGYU8AEtJNVyKAnnqR3fk+Y1iBO+CE9lcxQh7AOXE5ceT8O8bjuQrebPPzqB1I/Iop4hoxfZCeHIJZnE5K4WvWLKLZMvqrx9pG4H/fGXbsM3DBfGrUZ9UTO+bRAZzjVoUgGyPWuPXU7E48JuCbQlEII0EPsDf3aL+1UINuaaM97vCUXOjU//EsyB6GMvDD5wJPE80Mo8p0eP+ncL+6aiO4xZzM3b+Y+VNLlVqHQ1KAhUpUadfn90n3fbEFsN5MLHLJk+Vu8Akdk8GUDSlDL5Thit84tq4MzIXNN4iab0csMB+stQ6fHbWUe0sQeQtVv96rXQ+i3qeZqIOPM5sEhKS7k5tKdz+LtN+8EiebuG7YOjDnWst1ToRV7UK+Za8oYfnTGKAz6LELBLO8rc0v4vcQx5+B+MDbPnJWotTL/Vq9SZdjXDPRpL6f5afwIuWDPwJPFp0jKrxnFC4bLO6ewEX0H6LwQFuHPaAiUK6kzY3vzvEg2CaoTxXzVmKv9Ewe008qMEhSXgEL8oQIAAAGrxix/pw3F9SCcnUNsLOCxPpk+JdcXPP7F7aVTLiHOVSGQSmx5Ocr+IR/+PdAAAAE5bfMR7ZcnOXDisMfwKGyMUS2H0ljws3PodiFTsGh0sr2oquWNoLSuAa6vWVc5dP/v/jzd8QpJHaBSDSl340QfV6Hi7o1oAReRBsxVWDobJT/7624cvsCUcfqMl/L9Dsv6fVEoLB3wIUbzRp2cLR2dOHgcHfkNJqYWwGQm0AWFOd2n6ToIKP4rDgOgBtyoxVa7kqMN+QzjP40tZnf7f7WuLNs8+KTtHsvwNy2kpjwzQwLjQfro+yTDpYNyuCqzJBH4/lJmCHMJhj8wjw8QHOyH5zGZXAuXq++UViWW9GHirAPnj7vZI/ruzUBAFJkDf9IOdIe/wyExCkYjBSyiHNCkV1FII7r3BBYATdJFkaxUaOjokWusX4boHnf4WxLeJLfLMkSVJXAz61ISSs6uky1fWf3INHWD38DRSMHWXpwEvqFwRMaTGJJt3ZKaps/d5Cw/IG6fesSeBWKONMnL2h89oK/NdD0/94vPFsYYYapMs8PxhRQsfm6KEQ5R70sm6D6hGBHdYDyJVjYWokom7gqsgmxP5hd+kzzTm+Rf3wWr04SdgXoF7sh3haqC+VTY9wifs1+fYDWWlJTZzoSn8YvHVq86x6BOtF55Psgpd3Iz5CHDL8syPQ6LaZlxcQgCrL1QP9MfXQ+lCrbYvXag2CZj46RrzN2bWQ4Iceoud3IL86099m7AbGvASLIcyUp/6NjDD5Mn3REV1DcJbRYMIsSyEYZ5N3EfFMMK3xcaJtQWLQSJFp1kL804uU646r36SbOKfKNsg0SUCe4WPk0y4TowPuypgUlQ4ObWlo2053HbpSgxMNkbkvR3TnDh5UNNUbZvziyTpmRcxNmtgWM9azR1jeTeYWo6qbdTgbTcnBShoKTPkUem2D35hZqZkqiTI9mQACO5ls7lrI89iKDuL3LgQth7JDk5bwOT1MCm2+UkWA83w+GpPS/Jxamr/XhddwiVR1iWyrkpaG+Ngh07tCKsPJyythLTptYlhopJNzMtl8eTXAwV8mLzjPWOy66C70MI5bjGL5n42kffRvBVygYf8Vk9DJZzPnmPU9GxMbt37yi0Ux4S+KtgtmyWONwsg8Q5TVecovGsA7lzxNUSCCTz3QenCjyrtO62lXBoUxR9RDI58NKL2iZYoPSuHC4Oiw0OzM2SIypDpO5d06+qU+svTj7JCpO9GHCuqF2nMoqEiZjn3PnczR0Gwu2st6Dg3cVD0S+EaiOVBfy5PgzYfKAKUq7vUq9ESxJrIMBkFJnELiJdPlKRvh/KP6dDXkYKi4Hsyy2lVGhgevBmnJ2GvVIjowlZuAAmbtqoA3yC+tWvQ2PD5FO1AbGE87Me7ipgwCMedPdH1/1+6msUrtljtJzAtCOZg4EiPIAAW8gjZEL6rbMej0O4+dAx5A+BEx+yMGk45TgCxwL/02uEf0P1fp5Y4EVqo2dxH6UZISse7xWL1eYAUCpqW3+i+AwJxJZdtIWSdqx0Km5Tk366rdK6iRtbaJEFePMFjqizQynyuJxOJxOJxOJxOJxOJqba0weLqhKJSE4vKDZI+nVFly8gBx4O2aYP2QPa3Bwv7fiJfhBhHbDEULa/OplQIx0yVBWk98aogGztXoZYJ0e+YU7ImxJRybMIX144dnXS0IZ+y2CCPxwpoRF0AKUGhTyIJBeEeosMA0VQ3htV/H1y8Yrif7C7tFVjUbHBtcmRc4SKUo94LnmJnCykGw9bP4KqwynDhYLrcqg7O3FfjEkM2kDVYsVi/H0bgy2b5w78iBjVyv38rturQ0G8d173fjrPTxRilOvrOX4PBe6m53sAP9L2ay3Jmm2D6XKHgfrfeofBpWNa5Ges6v5R1Kp8YWbMm/1DdFeHIQ2qQTnBsVzVQa+wDYojp/6IX+mfKlpaMTSvCVI5EMbUXMx3T/GQtjIT2TxyjUYgk6wxTK+Abb84CR1QfSHQuAdqFwPbLaqFnaJTF5eTeg0zfJokegwxCuLU/xlAlBOQ9uqz0AkXiAM/eEFg19ulIgqDqpWRHXzebMFOcbhQaM8H1M/B3lJP3HtxcuNr55hKFDwwi/Q32nPVkmXY5xF/yF5HNPwBzaV/uftv5FwDIhbWf5KvPdPk97IWdh4bB9/Tidtlu9uAIpoKvr5aonhy+bnXTktFWjbA4mrjfAj2jzNkZiiPpXB8I46HQWiPoj/EE/YuqCuB7pNk/ScM+QKoll3jVEatuEaJiSkkDI2izhioVfOigQcy8PSEUbJTd9b4WzJwi44DXSqVh9tjMnBrkaCw5D5hsAypSDsLnlgh7FQiCbxIfUzAHnIHyLDqgjmQib0g17O/XFoU4PH0HnKHtGsM6tpscPSAMrd59gyrzH6lKfMr4/KUsFyjpfhsd4lfg7sgGAz856n4zdldj+lXrqeAC7G3ud13ZOHE3jJfHKA3rNQVR10LvJT/4If5e4Lh3fkJIzAGL4vZYKmImnoWUsybBWXOyl+a/3I9JorB56OzR5bgFQlJoti/N99guIgnphYpCe6vQgRnAceCiiAWeRQcIOksFoyCEjdZwZkGa6I/9tScmog5U7f/0Lu2LzApWfaxOL8t6BnQmQQZqzYg4a4D7YuwhhCpJVhri9WsRR/ST5GFI053mfPHmYyVMUw2qMeo6A9G1nwHTu9MKlXp7xGMUR4ucBCwv9hi/OV3+srGZrYw0ujaD1A+8AWzzQrsYMB4ag3JIvOzyYKxCdgkBPs6BhLGNGAsNWTgsBD8tl1QrB1a8NP+SK31fzFW3G+dPccSA1RJWzd6jsbqDh7GG29MKsJ4kHZJWvFZ/230a+Zfyj+nQ15GCouB7MstDczJel9qNfQyQBR5VOE4t6762yLoGPgoQJURAwItLwkolo4ljV8BHlV70YGw0+riTPSihoQSXS7Q0ZUoyfUQAB3iU0BLlesIHQbuC6i/VeRtPMyYlTafbgX/ptqhy7a0Zbsyl7MIR9/M7rGZSnyNKQAAAGZ6zqw2NtYmeU/OmCndbIp5+LaSFDjfjUcoAzL8mc5W5yt211hCZvkxwcFrg9aKPl22S5oHyXtWSDfogAADgRRJUe6zTnCzj9GCXWOPQVgTXu0Lf46/auBi4o4zNueKGVlgS6P+gQnqZrYvC+phpY3UBM8n8hs69p9Z4KpxjZZZjIZPKrdUK13bFXKo9gI7JZvx+eknf2p5dYAbRAiOwoOqdxlKXwMXAi2I8GJBNRorADefXZ8iPCSDX9A7sOPMSxXMaqjldYNxzNAPg+6X9qV0p08hsbDM3kQWScv/M3zQlkEFkl1VMI9d7kg+ijc82oeXrSHM2ZpJmgwghL5l2JgnsU7ohf+/IscpkzZXK+ZgeVnDGqAlFFOe53rpfKPPYuzgBgnbqQ0oCD2Ksp5WAXcW/yW7atWMjlnLJ4o8CL/tct7wrf2jP1ZsDJUUS3ISx+st0aR0cwZ2DX2K/QDgdJrsNfDif6PSyE2EBSnnSoeFDN6ByL0F+Xk5DKoODyIbiAecyLQVhD5Fap1YbOZJQDB922PXgIGiHkEVxDmKSSOVBLhNavpFUvKyoWQVIfGsTvwh8dQjavT678Dh873VWG9YVmwLFfC0CwWN2kxsPUwXUlxnx+fkxM/QgGQIu1wWsQRw2FBTgO5Uz0ZvwN3JRXRFo4BDxzMszbuNH5BqniN8sqcXb3YBD6VG7hjHohKi8ygZb6G9n1/5KtEKzTbCGel+TMPSGJEszIaVr3m4ogs0noFC47piPYJ3L0ODV/gjtb7/G1EIbZMAbtrqc9g6mU3fR89kAT4CtPamElqFXNLt0R15IfFvkvCyVa3MuQKURNakGPRDmH2xfrSZPm2+3qUL5NpUoDvMcP1mUi3pAe++t5Ae+1PcQXfc5FqFSKAgwmoL3oC5aJ709l3igpxPLXsXc6qRbOdfEVPXT1D6ajC0aNU95ose6gRysB7xK4fG/XbiDBPfYJ2HaHlZn3GgG8lr7F1NILXLQ4VV02QogByQs0n1OcAQnHmxTseiCxIH8z+YDNEexfMw72EhoKUDAABD5H0wOiftIjlNHQ+H4HTOkeiB1bO+dxBGale+lfyR9sggCl9rZy8seL52huFrv/fkgAy9MfMmIMg6sgvufvddn1PRMzKmnDOS4dYBqUijk5AxgBDo5QzaB++EvhVgbbZzYM260RU9HjAkzAuE8+70lcinqFzLVaiP+mcJyfJ4+bwpTShTscaurpTzbmNWo6awrEYNc2vWQTN0rrWn2hm/Ku20spqlKkF8TWDkuHGyB/xpqfoiCKzTnP8oEL6CO9ZVwrtjZ5FuzC8gbB1MaYfpbwMfYbkutTU2AOliYTA/MYfdITWQwRZyByRNTSuiSIU7hNKqtDV8fnE0Cq2k/sJ+Tq+TD5FzWmMakVP7E08TFc2KwMBLD57qn6lvbNRq3LGNl+TTLwoiCHWA7c8g5uTPvaLZSkw+Me/on/x0LyCoUTQp+ejQRjbLGTL7RPgos76+iibC1kLXJtcy4Jg3kzrioGsFN2TYe2tE/UHNJX8q3h89FbTsOEWt4idZwMmkOAVFSHncsbWbXuCdmiGN+GNk5eQ3ZT3nIt9o/xLCgcC89rwtxiyaIb0jJ0t8gMHierkTmdiH7nIpMnfaozsWtEbEbft84CT/qRkEO9zLnL+kvuF4bGNv1/esA9W1WUDjB5QBw72KKeDzsNe3pRSWrHtW8TzJ69MjuRO5Ugp42GPmwvVeLKep8tAXk18T2/kugrVRO2veb/y8J5EI46ezEwTXAazBmCkKU1uP2BRhiQsvLpHsNvq1Ce1YCksHeS0ZUB4PGKkef9Ea8nOkkQDEcVxcmyLkgVx7DBI1aAZ1NawibHSEEPzl99cF5FPrsbMINpQcH3TnVPd8ymDGb3ZFsna4Ny4zwVuFRGFC8eiPA1Dj6xPkk50/i/E+1sxID8uc/7tT9Vbad9pXKdJGTLWaP7y3K2aK+JeIZEl3630Essr8n58NRNtz1l0PQNjFmPw9aHbYvYkRJZWwCJ5QmPKIlbn9fycAnTnj1sMAc2NWG7LS4PV3ZNxRNOClexZCzojdHFwqhEnzGWGdlYDxPMTqpp5rXKN28fNtJvK7FzDNRrYrArz64YqtpstJLaRIDHAsy//oM0iTUdZ4biSZUrKKLh9lQlWPHzJXeOotLFqVfE6Xe+ueheNCJnT0h6zNP4N5KNn4S3qhog6deA2M4yNfGRYW4TrQIhhuqMXuw/9/LTZZ9LrGxynrhLjFOt+wQFbsDfdbog+rwDwsQ+ZbP6c3qBP4/kn3rS10ZaU1UbpNOYIscd34PanNxRqxQ0OSP5rvrNIvn+gCyBD01av5qix4IWhkQOTsvDk4Af7g1R4uqaNxdFZH1S+TAFAj+YmHlVKTKOGV2BctBoLhrLrNCXehrRm9VA+pioKdHUFufKCfa8x0PN+pXq7VFtJ1ENO0Oy8Eg/GNUeBVNZnLJ4OnC8TJ3dbV1QO/FVwj5UJkvBW5DZJIfpKag7kVKW2vsM3ltzIWLfmlk2ZQnR/mHtZgwuE+uQzDb3rxgnryMP7Vh1LalBLhTOQkJfGQC7069clGB3sXVwHu2uOciIjiiffYKO8YST9MUB3sHTjExNTS6WF628vqvfu3sjYbymutK/4VHem/HsGrtpXP/PkAr6n81hF5GECfn0MOGPO9nfNWGwMLwR78fKVtY6JpdYSNUxvs+Zontrp0kzC3phKnNjK5PmJgx0Ec2ulKoR+JsLplVQ0ukCXDud1uMdgomE20zzj/hJray21kRV5ceuOdAQnJhBhazH3q+wB2wO4zMids2RGFfESVmJTjUc0gwu5hjsUJZ+luDbEZZJOydr8A9P/SochsXHWvLybY75ITzkiY1ygCQ3YtrCbNVqKMmHeCK0ZwQUOXAmO6IGcT+UcpHLy5/R8A9u3wRN5wl1zizLBtHzN9ZWCPVEMf5AeFvbrWYRf149US9NkxWulicl/vQGuOHkSfm3WDxVxf2qjY+xoKyRcEu3lhdDEWFUSAb+Zd7YwMtFsDWvvWudBnYe94PNDmCmuxXz5n8zrmdTqXXGd5Vmjr4wGFVqOeiI9BrW0FJ0mUskkFWmnyC1xq8aIpaCbLF9kIz4IqokM2Ojzz1GthAZzFMAJH64+mWZf0tOnvJJ7sP3dXUWnUOgoxpokCmF/iewHWbVqODueg5O/JCRDXAw2B90ileqONwhrGeSu+hQAwZmejgzgAPa2FhTfZ/g37PoWv87wAApdUkhjc/68pazS+XJXXqnQg4fehkTfh0dDRtP4cT4X5WH7WF7EGcDKc6xAAPtOOhJTW15dqWaIOqtQeiv3PMivrs5Mc+UgFrgzTMYKe8SqnkZD6aXGpY8kcoF/TXlV1U3Nxxq7lwTM9mk4Z6700zFBitl/hh0G0yFXT8TQjQWF+sjMSOgYTdSHFIMnu6Aso/AbVr3opoFhs2VGvpAbpsmOD+Obm4jGRQlmAFGQyWAY9YeIb00/euadd10VwHbycjUulPsB/dy1ETXx4tPWHQqO0b8P5apx+MboxAvQx/NbGOEOzpj/17Hd7iAoPSCC/kQqJwpmIgzs2girRZwnG4t050MNd8fWWMHcNjJwbWwCCCkkPa0AhjMvffhtizwvF7y1ZePCjldzjNZ37Qt3vC7/Heb8PQNrF8HICc9jM47tr+DRjB7O7Ohe6gS6C7Xd5IRxB2mHgHxDT9tkbrrd3Eba+MjQiy6FDF9qbfedngDkhPXvnZrw3LtLsvLK1xatbV82ZIUhOqvPdkZW32Elu4E66G7VCOd1A+WJqaLBD+nD05OYouiKGOg+jbTTh/IZdv77plchzQyIbE5D6L/n2XQVgDtCRZ+z/O2ZpPWjI8XN6Wou1hdpgHVPIMeII8Yts4SIhW9ExhGe+4GwjcN/B6eDp16ZFy4tYZIktuH2OZS/cG7lKKZIPmxV45+xQvuCwSacdSS8vPceJNsQ5U+h8o0wOYIoxEvqlZdOLmElbaUXx4jyCK8+mxria49aHS+LFtZSDBe+d5YemV0P0rTje7FWlJKVneF4yTTGvfwaqWW8wNMhfUv/Pj3v6m/uaj8hOmufKsdOr8fiy0vWBdSUlyK2sHlE32RID1DlxxlL7BEE+PFRC86SS0gfGuELY5WatlU0rvuFoWvfrE+dltbTRw28Q/4Wa6ufNpyZqIBvvj7hbE2av/fZnzBpqMe7k3zObhusI6esVf3NCa+Dl1typtB5b3hHF5MyJfUD7F8q3qnJrH3FWGLgXVa3ebIW5wPEioVWGpDW3qaJkyPun/LmoSnyY246o8R7Mvb5JGM4zntpDyP7qUC3guhAl0SLfKrylPDb2INEiC25LvruLPeRCbHc/nuPfhppFOilP82zRNbXEt2/fj75YC/EoALjb8UxFAqE9v2xDdwIr77zOZRkD7pF091/2LNnkBG33XjapRZWkDaen6IQxdN9JqZ5ei2gBn03h1liUndnJH8JCNU+n+qMuwkGKZXjhnLB39OD5DL9i/HKDoIeUiT5CMPl39KUnaHRucyzWN1bYerrSLXsnGIoQ7n4pwKmtthNnoxQvvOWxgpYOBqFPdvrwQ5Xi2p43exJdT6/AdoyBMuRUA8rSzwWmbmexKErkZAQ3ybjF3kJqR9/Fv//lI9rulzF1Aanws/bpFx79MfJmqGbFF1z+63jYdqM8V9SMNDt0mE42iJwxUIyKEB60r41BGGzZmONEAgKqvJl7vNOVPw8iBTGOWf82pDFCYNzvileUt6tmTgGQcGTy8q35SCGY+5uPf69me+DXAq1M8VPxTPuOaP/u6GrDvn8M3nFcCPc38OemkyPDL5PreUBhLzRRwlJ6A76oPzXJdoE8Dm7uF3bB5mX0ECqJCiR1eXhFiAYQBR8vp6w4lqHAVfyJcWcPy3jDbbxK0WkXYfAZmaTaG04KhRFvcF1YAq+rsF2fzd6IvMqjaecA0jmag0vQBgnsVKGokUvQ7qjedYHWUlzs5Z9zBJ3sbDRfZkXdGJB5uH4CPgcOXbRBvH72ayy2OUZmiExqN5r0Zgt3yqu5uFvJtNl5+qc98AqLQJpidY9926VscJaC+zyltf35Hr9BpfGgrlAbPJGCU68Rxh5+3ZOPzLYWW3gAAAAB8x4mtXdAWmFe/E3nNqNSAsXu2SmM1j6Y38zPwU1NVPRrJywjPgGISljHkOWzZcL90eqAfuhDEGfsH3JoCgmgerqGCGvOM5W9sjazNua968oGFOAsMjSn0aQuQ6keH75WtLRU/P1ROPmrWJ1pkb+apt2NBiutjqxacv7uuqWBKuNYKNRKjIT6C9ILUsZH0GM2JBY49T5xTebLi//mMECrfWI71nPJDxvRwFAXtHOuYTZ0WMqGXlz90maNdlqmXawxqXZdfGiqYUMlw+a55t57OwkDEp5pW3BocK7LmLtXLCUdiv+3XQCPrZlTPfnYuqAR8KvCU7dvwB87eMHL4T0rNzIeRlIu80auK9TLC1e1vr7MkU2AegyeriSH/q1epMuxrhno0l92vIb3KTp20Ch9CIzEveWyuqJV+ec6hvQlaO+gPViy6v+MPZuA3Ztws3Abs24WbgN2bcLNwG7NuFm4Ddm3CzcBuzbhZuA3ZtwsXfk6QnJveTs/XaOvbHzrUMpfOeIy07VOqkYS4JnlvbvaIdvYmi+zPxMSNntTN9Sb3x6qSYrt7k8sRABoab0RbX+5EejDA7aovHKjnwfR3cWf6RNQIVXh+hX18MEl393umYIIlWdr/zFwLRc5VKxYeDXNfSNO47XpdZFfJXIdoyC7tm6SHGzoPTZc3cMoXY3VI4uM+9o9qcX8fQxxXq9bI1g5rZTb6yXjVNXCxLy3bMECuQAN/P59zJETIHZPG1UTDcsgz0TJuVtglbemHHlDi4DsR6NYJ7sGxPrxgXQMmQHPFvZN/P+pmkShawSQtO+A/24vZ1T/fz88L0wpifobULkiQzqw84aktRp/N0Ze2GsBUb/mrWXmBzVyBA/1IyUgGiLvPxr87iTRlvWxXVsmlnFSPySuYOic6bQ4qgruAHTAfE6CKxp8QDL4ZPdsndCMSSeJDNBX2Yssay41jzCv+b7w/WY2XsvAjSbwFEiRgHJFcX2mYd0mgV9fMKN75MajKP/UqBzhY95IXApRxBPVtzNRGU5YN5egTmizUGUfY2nchohebv/WU8vh/w5Gm5cSszL1v7rPW0MW+iklVWiWXeZYvF7vcLjs7D2h8G9bNIqY0t35pqIyw/F09B6GbCom3d9MUKVN6I3DMD4Ezdxb9VHtKhTpbv/U61o2/tcHWTFPWV2dm03X9wMJDBRvWKhEVt/OBU5ZDNRBJl8wgZjfOd0h4fszQKxt4DQ4tZvWP54Hc3AY9BjXM6UeluWmuyJWv/Hhx7ydxOdDMiTCnAqNxTUNGtO82Q4054JbQLFpqS1/6u99a4mK3IIrd4V0IEC9O5QR3AqwUrPUd5nnP5Q0upu9CYDz5z7n6dbu953n7iOhG73bjPuoPJmtZkaqehZbjDmp7XzWLMjJpgLw/fnlm5Pg1N8Kfv9ZtThhzSiZkzS5irMxJStGaLzEjc3JGTttub3fzPmuuDJICQan3Usz17LbwUu3oDwg3WEvOB7qbQJ3zsoAdFGfzAI7720IXVms/AdLW8vy8/BxHLRE8/2q0D7XhhPM/I4whWV4T6ajcKDi7zTth1d7qID+ouvn/uzi+rt0XxaPvNfD+oIph2F+WaPbAqVgF32nEdwXLS5SNquxPvCROiHU4QYhju55EO1p+JeLhHMRYO/pnQzp8WFBpCen8cs5zA4O4fH5KzJwcG/6/B0wdOIAuhNVP0rnBaUQK/4cVBiNUh25J07U9O8jTdIkTTE+uGkcm/f+hC8BF+0tjzK47hcHIzsmzrxo2diKDE4fOREnCpLwE+vbZP3URrtzNyOSjbow6uM/ubtNgj9y3YfA/u1fakS9UQstG3ffxmqw+aKYbuTEtl5l/9ObfnWjzRzeIz0iKbGPfZuAtsx2nZFTv20qKJsFJKxP0IYv5B29xqTGU36Pm9sfsdE/EkFCKtX0iGl+/X30pnEKmov+X0a+VjP9XHWQotVA5lWua78PU6kJ85c/CsNS7OANeJXHX+fg9awq+ZZCUTbsoqiizW8VbXIxG7zxooW6Efw2/CbZGS2JBTp0OUV/Xh9MWpjE82uu1nW1QTjfgwcHV8FXbr+J4+8koblN0YlqdqyDjEvTx3fKfOXnH4cZFWFoiGKMwACxlHYr/t10Aj62ZrTZ9mkDrmzIJ678UqKLlP6hv/nbLXqiLJ8qJXmdJ87Zb7OcKafD6kAmcnwV95+PV4/iBnc0bqMBrvf9QV1MD14MxGU/Fp0jKudeqXAy6H9TiKQyfLYUSkMny2FEpDJ8thRKQzL7FO8RazkcyLWchc/OcnUxFiguIYPPa7uTgJq/ssNCcYpBNydU4kSyDMyeiAAB3Iojh8N2s1FOfWDBhNf7b41zIYnkN7JX9WVY2CO374aXZFKget2AvLEdrq+tE5PeuX+mG6k9WJNeqNWs1uNJIlfm/G5jo5njaxVjuufQscojHv/fkVtBp0cUcE7hCRMmqNacMOZf92axj4vLFKgi1sMeYXuICUPUx8SRvRDYUP5P4nehxxhj4wTnXKj2FP5bTAwLvueLZ+LeAxzUZNZ+TZjaMXDE86uxr4W7jN3UzHOqrM8RHPItQZstLiR9Q7aYajb8J+gXZ8mMVh41Kcvv5OmddNMGAHkw38MnkRULowd1MR2eJHQ6sUBXBuqfvQkl8FsQnZZo4JO3RALqkL7spUMUKbyCPEc1VqSZ5Ly9rWfxzaB50qoOL/IFicLxTRVGsJHAXLXhru32+TuS4y6IN8ZEt35jQxT1VW5cDR4k1b7EoZzHd9jeMGaO3+Zlt4GGxwtixy+ed0hI1juR1QooT8PH9HV4uDJq9qtCVW7srOkaCzzpoL7Z2+EM0sNQBNe1ElYkYQif3vFS520MSrpzTuTt8EcapI6m3LkyEmVmBZKYlEMBkKsmvR/le8M2BkuxYH2M28HTOuuy/JrjA9XoAgIHfqN9PJgEedSWou4ONvV0B8yMpxdTPEPzt5osIxrMUFTVij1FIH9V+0k8Zd0UFYgYAgEgd/A59Edh9v7acogoQeeu5eI8Z0LfnBRGuF3e+1DQaOd1JNjTDhPruCQ3ElMf7L9KNL3pCSXjcTzMGsB4KGapkObIbgtbQ2ZSI0uBSRPsrhsUtfhtREv4jPpX3Qh9XuEiiB6y+xI5YnTL7iVMrkB4qv+dlGICEp7VogVrSxKpifN+upnzgaTcgxV8aFZokACjZarjLukF07xicBY3krd/771joRW4+T2x5hYjWCHvlXQ0tmk9xaLej5NNZ38VwiPgW57rZgHcpYS66686fS2UTZWr0pFyIxZF+t8yAKxOp/OeLtBVY3V8nPFAhTq2qzc/Bwbyg8aZ3RYP9h4nWgBbKnM3sFWv7ukHq8x+tlwQxTEywPqLZSYgzEu0usbgBBKAV3uU0CLwsQ0sbTXvXXpDmE9/n1kdAfJ4JXjREYdgwHH8snf8C8mKmhkoWKUnSLn7AMNpszLlgLX/cNCSq1pfVp/JhbfpKDh7yjbCVEKn02mJNwRP8BnC8tq6/vW4NzTe/+KGv/kDu3bdUoQQL2ZUtgl6d/rkwJ803DaESuTdWVq1XdFV9DZRcVwNhAmRUn4crUix+Y+4fwfkuvDxjMaYEiUTMN2uDoouHNNbFp91OoV+RHaGIIiBssMm4GE3oBPkwhEC2u0Olovgiyk3XF9GjuotPS5KsLJd61RPa8TlUauCXnnjZFMOA64M+ivHVWUKdohFyJWSYH5MUDnpXDj2yMgU0hbUFS5nbMEuPzWNisk7ZxCaFMlcC+2CuFBC+h5C0vkz6ZwXGvJcUeB2Xeg+KnE6q7WeP8FF/OZH+upV3G/0KTjjA9GozruQWBrxpgU+fRPITDvGZLTkE0A56AlL7Gap/yn9A97j+ZB7tDO0ih7BEvY0mDoJRdWFlJFMlqynZLG+9jzZUmqh7COUeWGjbW1zjJWjHhDvwLlKjhY8i8yRMXmajonf6vqEnRah2guG4OmNSEvIHA6klidB5BRO4KnJJZokBXyjsV/266AR9bMqZ787F1QCPhV1uxlg9kbuU0LZ+ftCPW0ZYkfK7C7qWonoVTKgAEP5yUYKub9Wr1Jl2NcM9Gkvoe2XihmZL0vs/YEOwLs0g52bB1wWrAhQAAAvgcb0t0RJXmPEozFLjPEXZquzfcYm0/GKQTcom3qpjIP8z/z0SDRwZIHUxlAZQU4jr8TbtNm0gt6j//srCMptJLwVQfYxeEy+JTaH4wAZApMQTKaHQYfXWK1d3944MJTWaqPFsqvUsr7uwOLq1Z6buQieAuGSYVeJ6gOQzBI+5OlaPfQG4OXiekm2iMd+XtUksYQXn/Chkl4aTUsz5RF4HLWN6f1XhO7pLj9adwXXKXKHka6hBQt0RM37wt4GHbfHZ6Sjiee+S8/AzTEstGha1CzCz88jMqdZGZS7Me35/nLEYALaXBsKLefLdd8lrtRpsdR866tpjX7sHy2BzF+XkhZXoRhk7DpVLUduAyMnrsUnQzDd7p3khvGainMB1LV6CDgAPeUAFhNkAYtLphDmLv72sZAM+GbELs6rcLL+yoQPNgJYCsb9S4C3IACwY6+2OVPg2DJl9o9W3W7BHGgXkQ8PgHdPQwjSaRTekOj9AP5xEe64P0Ao7DQSUNwNrT3yhaRpieNLciTGBuzGnZSNxWC0WjgpsFwuC8CTQCy7+A+XFqK2dHzRoaJGOgrQxR2J3nyk+5vYB9Dzns/4W0pPwLeum8Xfl9JzKgBkqV4bjCF/KyUqMbIpfzpZr8MOuguS2dT0MEe5mgl8ZR4syCc8teaa/PiBZkBZl268tdT1TPCYZi0oIaz1bl9jm0KKVa/xLuSzcpUUBCSBbdGqggNGh1YVIpK/OFTBMBsKKKd79dQgI7DPItjd4v1/gqYO/5ZTg52XvrvA2FijTbSaef9cQdap0Jp2LmAXQbnNAP0HFtsHC+/XCjWyPygpt16sfne78G+e3oJNDBNzBFqvIFYCfkwfPi5zk2rlNo2UyfL7uLLZbq9B8mxpxbbnxbJF/lpsPTXp0ysR61fBrHY8n0ioAdOt6DYJnPblVquG9kZn8JfG2yrN7l/+uj7+Bdvvk6/t1E26i6sDUgBBuN/jRwwzdpBs23t1Lf09YoVEuBrcgi1kuQG8mQ9XFq+bE4GQ0X+kZ5YG0W5YBNRdTO3aYueZig0fE/Q5PPEdcLo9zAVAT5tSspq+CgRroUqA2hMZk3nUV+P1yPkx9k3Mvl4ns5rULVnTPR2xIpF5ydSg37u4WbLtc3tT+iLLue3d0VE8YVH6NE20z95RWCquETfDn0yLmdthwa9Av08q8Q1CZOOkutQ6mBpoupXmf6AnOWxb7uchLuLszUHL0ChU4mI3pufPNMsA3VISDaUAovRJY8fr+Jeg9VMfBFzvtDNy/bFEONTiKh6YGRtKruzzT9ORl7xHL6Z1MgMbDMUDrtgs6Xkuuo2K6j3UhRTyUh1RwU+U1j0N3GMJ2HNfePrB4QNhAgZNWcCMQHlA6QLIKU7a2KZWodlkVUjGIuhlJCzrql/Xl8lboS2qlmHYlNvZoqWBowCq4nj2b60LfYOYRfqwvHRofchOND+pG1bcuAaYOsIIyFp2HBMXMZGmKIKtYDbiHJJnZy6le/lzVz9gZTU07SuGysoG2G7rlUTMd4A1VUzdrD+DzNj5rEWtsY7yk5rgS0E9owUUpGrPMKCYXNKIr5AmKfX4H4o4nSWGRUnbh/WQtVSZIClrkieVRhJdOhxTIoz1vNxuqW7ox3JsP06tpiH53FzqMGBsUkFol+m2WzPyEVwJ+BhsuvUtPj1rYxLTQikK/gPxjepUDCVBZqy1RoCIU3Vuu8Bk/yDGehZcBwYFfQQa0wpmCDrTCtCIs0e5Rg2q9Z/q+UnH2IOZzCHdml5EgMYCVAd5rYJsRFoDiAMV0rWA0JPsZCAOlQ38SSJ5MhFkXZ0EAJrfs6Zj2AnQk67qIqFNJO50c9is9ajhILnqXJFL9wvzVhXDGcUACwFqLUD2s3Qq3+vILxfN/jYZnz0ODh6mIBdcFOOtm9dH8OnGJXeISsKvSsIhkMstA135QOM0O3CnAAU2kz8xCQdFGGDglwB2cLVDlcwlCUJQlCUJQlCUJQlCUJQk/OUjt7dtQMDK7601sD64I+n9yH2jixQeHz6IkGSKXd9uCU54sBNSnV9yFxpzDJQUGF+1ywVsndtAWj1D5qa5Su7vTseEPe0xc/S46WlpDt0Jj43rx+wjFXvadQbFnCblb0+YRSzwEdPUY2soNfvU4gusLHqRC56iPdR8itohiK5br0twzuebNTgVgaeIPiFG9ioaAD2vvMlR00ubhXXUf8chLOg7h3Z/d89MZC7JC3I33YTx7vaW92GGHF285hBz+YNDL5IB/M5gXAHV5pPiThjej/RdpSyRauhzsOeNRpiEovtJFF33T0YvqGD/2aSCpCM2yuI1LgCAp6IqTMGXpWviHJzg0Icjkl1gmDWpud7UZwz8hhloBFq0mc0j/i3dXa2rhFPwHE29D/Hp5ZsprE07xY7ZeBA26mvRubdYYAuSALJqlgpI6Lgj2OSReonvN7Jz7ofz8qjkThVRv8lsW4L2TwDbXqCi/7S4bf5oxzwsO8+0z7xJ8vULmpmOoK32bIz0FVhr6R6T/vL5etz656FOG8vk2SwBHo27aitZy/f3tdX9V/II5pYgS9E6XzOSuBAzGT7AEyTRzr/pDaWw+bDRib9gY0qd6Jv7hI/QBIPaXM6PzIV0S277xSrlUcykAGPx++kOfqO6KBbheFC5181iWl89k0zFUDWj76ND/GvW5rZVrRsTSOaop5Y9hvj/3Ob0p2gwY/q43PDNX9zxGiMPn/CInXFOPvRY+kkeTOwOBjN1sD2/sshBYtuSnvsPmQ7aJ6zzNejgBmye2lApALoTSsC7+UAMTiMRGDnos/cvBpXOhjIoivdp3IpIl6it+dtwu6nyMt8OMezEsjw7+6eb050All9EGckB6IsqaXGmu/MpwbYXv3gPezZGh8bWdRi0JmJz1n0zRJGiZHCrTq9Ehz6HozPwMvAlnWx5ZSiMeP3ZAFXzu7/LqTc5At6nM07/YbGXnrJIS23Zr/gb0LAMJs75JryEiT3o3ntY4WNF9OtRNY6xWBpu6inKsoP4IIFjE0NBbAgEiayI9O3hE35jYEiha2k/1tfTfnwebeaWlF5of8jhgJaJJAhY48Cnju13ehkHDTSwjIsbmDXPoEvnAAAAIZxoQhJsoV4kiuixtKG9cuWEyWbGBJqZkLrAB6Mbs1gJ242IUAjrv5GEaGwt0Opcj+PoM/NAmFJm2zaMVfQVvzmK0TfyF21nISrKEZmyTnPMssTbJMEtJTy1Tgl5i7uU5lRAAAABUdhPrapJ1dxZk8XR4aH0pGX+j1DuK0OfoQiZFJ+9IyiX6sklztNeXEwETGkRStvoQfz4ayjjmC2MNiBZWmUsre3rK5VgeoXh8rNEWPDG0lRm3V8+4TKjI72hXXcVusQ3CQcGk77dlCMkQx8qNA6SZzF8eQMqAGpgZPGd1l/AZREgBpg1PryUEkl7PcObk2FkwAkzsXlIuzmJh4oa20+oEx0BgMpyyPJjBeEislAkIxJRA1W1MzDQzhrr0tsoy9njntgJhbxAunmvdvd6O1Z6JJ5WX8D/JhpqZavT6xkv/MSukH52I3h5vitxezRW2hYAIhMQrapvkZfz/ZXaVRT0pxpw9bdJQB2c8FNQhnY90ZIoN3Y1aaMG4jsC0u5QGFRDk11nOsAAt/YZWfZC3KMyOvCRyyVnCuNh1XWh2ebTIxtHUAm8gyxK2gd+y0UqohAkl4ZzLhv4Z6+2kgvYvG5AdEdtuL76UjrR5DJeYWSpmF3p96njJOkhbxHEfgpuziv+zy0BX5GnuWnncPXNKmjWByu4Aj4o1VyXn0+qWIWWbK4f4B0YrPm6yISpoO+NmqrxaDpQKZdFwBLVdQQLUWK58JRYU1/Qk4R90RtK0Ym4A2YS6O2xd+I0HtWze394G0kDr0632ONR9PP+OiTGWY0U4VNF5sECzS+NSZNs8vtpTAgVuC3+v9ztl1G+G6w2rT88Inzo5IHrMSGMrdrc1+qc/qaMA+VUHhN81w9pOpIB/pKw2CG/h0GaJ+uXSkYxq4BZxtk2mEmtW9RkF0kyox8zDQ6iU4YLzVGdmH6O1Pn6OAS0MTPwr9eu0yDx8FlOIYKgKHH93rvydz3lZxmkBwuB1LamZrp+pREj884LnDBVudPmEcHcLS0LBlSpyXEMPGgQKzsBaCEfHLlJMFo9ZmVLRBOc99LUvWC6alV3Rg/9/4p3CgUHPvwQ0pjukgumf9PZyQnIErx6w4Ol2EkBSh10csw3SlAT9vo+euCHXAhBB69wdczOsgAAdcUsVqhig+0gedeZrtnQ+UB8FXOk40PYzEwKudJxqjeG2X9+imZfAAQo5173rJvbydOe66+Y51tl2JWyDe++a4bV4uSkaaJTQk30ROBKgAavQ6hcBRwyYkL7B9dUrM4XYldFMV3i96StSiNDOzEKBJjDt44WARvm/aJHaZYl4cb5Y6hKN21G4VyHlW2iwxT6smc2OI4MR9AiVNzaGIWK9wS8zX1OtsFfmZ8z4WB/o4aK1sqDaJIOvzjjeOEAt6bIfuS8RhpgaKkh0o9qW6sDbvZZfzmXgx8w3qTZSD3OuTEP9MGlYA6b5HpgOeABbc2PswH73XXTHjph2UId8MPZIsspK2ZCishVPqPzf5T0+jZzs1v3QXgLUl9FoxsCrxmRls55fFvcG+XUNByBnFPu6QSmWXKf8FeRN4c7zljp268UhEVtHvlS9wO6liKXVEidEtw9PFFzOCCblNeD32xeYKq/sS88xA8SMEW8MTwvIRJ/bkG/cGoJPtor3AsQ3Mx2XLlv3vafMT9kIDSuh+ysib6B0msE+yurDR3E2MbP7rE/L3biq4ZMqEGV4GdEUSbA25u7BNH+DAhEJUI5ERVt4GEu9Li6jOktZn4ACppE4GcTypz1CG1bRq5+hS6lIvfhF0aLc2zknlVNE3IStxi0XvO/Zq8o5/Mt9ubjLCVauwdl8KLl92WVIhGzY4rVig2xWDEIhqPGjQLULyxre7UCXk155hvYTKBpqij6w7d3eVVccQGub381/u+jjdA7z2xyDdRRnEtoNnWSIGLBFNrnOi+36Q9ko/kuNX/5gUnUkPeT6yWVTOxbKTHSEFtfnfOiajfKOx7Mb2BZKWxa+od1WPBe+iiGjcBl7UDtoFjsp6Ws6iKD3uYaXsGzHfKxDpE2NcXq8VhXzbaHVrPLN0NfUTmgvirRs0M/0oYNlmU8g+A2OEBCZXhIE9fyxdV6PqVUTujbKE7tIdP3tXOV0H1rVlyPhtvZ27pwYum5l9195h3bmF+av/t6GcqoA1lrAxdRfJPdbQzTG4QOEWmfWUmqgnWZeh4ztXcv3LSAEz8GM7CwDD0S7WbtFjRlMmCCIVvEJ2sGZ2daBZ6gFFQOwP5Gy7I1uk0qXk12oN3r+wKehJsJ5+cHUv0gAe/EnnVyRXurcqil9wMsUQZxW0q8JIkB+8x1Y3fmfLjkmkNuV8akhHSUJR5TdkpauhYglS62mDVpoWF5y/UbMOx/MINnblT5SyzLEkbcR6untWYWyxQ5VqdBgSC4OhMnJO+88acovpsd7ODmsph7IeZ2DS7WX5eZh8gB5bMbw5Cv/UDJd+n+CaqDPVwGjpyempRefffVS/VfgIO5qByiMqRWwNf4Ji7R3ceAVpaHE1m/aMLYhAEvBlECl0L6Af8LtVd1M8Tp2ImgaD4Y9rNMqeXnPbWYaxssV6NnUWmJ0KtRLw6o6EN53P23Dt93Yczzu+L5Sc2UHtWYuYjhxIWtAFe4460Wqf3wwjR4IpGq5gyH+ik5dlH7DdYJCAL6yLYAZzbhOgWqIRBvf4kM8hv+1hvYAPq6/x46q443AmBUy9ceyOh/7LTr2zbNLtdFGOurLer9TYmAkDwRTf2rVQDNzrUigwUVt1x9xiOc7kmRSkvRI5eQVimVUOcD5kGm9vVoFeurX5/wxUnhrP4Ix9VopSXjcteDnmdvTSUWoUI9artKW90SZyUHPnTzCZTZ87LJJnXtdGECXKNPmlV+hlI3pEAKsm+kPqx31sKiG7gfNxTqQZGpIEgthU/558AzOoY0IcryQ9v8/hluPTtBHbXZGOm2Alr6R6ckuMa13c/DNQwBmjaC9IZneZ2tkXhhASGsll5llY6IffxQPA2b0z/5B/xZeUQTGH8I33zFpfrDlF+hKoU9yGTuFQKgYsvdP50jPiJo7oiEAvX+DFtlih8JFsiaDmTAZyx3mJ7ajUYiM51wHWLnx4yPWllYJ38Sqtt4ByQlrCUUzSfRFYOc/JdJeX6X8mt0NOuUfgq5E6Q9pZrnM/ec0nfc4gemhaPj8s1jbhKWMajaaIiz6zBYZxXo8MFeLJX8SbUflu+6jJL4BBZ6s0XTcN1/JIWk4AEFToIHU7cgoKWDaxCriHZpjN1QHGZUsmlEKFXGToucFpvgkrmziAPU8FE9FaNRRLXuBnPTIAAmos+jowZb+rFLclLpcjLEOgrmDLYhohBO1A6Z8tci99x77xs1iFeJ1V+5ZgAUdoxaSVDvng5KZ4c9pEhrncwOwB/lUblyvGuvTtXiz9/VXLFd20P956fj3LJQrAEUEmnFTDVTUVFcxqdlmbQNGiLrHpDKeX6CMcBkQ8s0xkGSQaggYhvPUP+Be5F+3OFnX0Lmsep5t/H6efBdz+Dz1T2QM20XJpwdIacGP+CzHNbt9YDN/J5naEa/yaveX7A1LBUOxE+wNEYFCaDOLS2PcNfNUGN2cJt2ghJOUrV6CkSp+nDgl+t2crf1dxuUxdntmEg+M1tHa4o/LRlydJT/b5Cqix/TiPCkTDGfOweh9JHj3IeaOBvhVut/Tx2gcRvSpg/+S0HxpK7Pxc5+sKDkgeG0MWsQp/56Dbs+j0HTfpfKDRbhB/syxHVKdlkDkbVClwsq4FqnHA1CfYBKGdNqmuLtAYq2SUlQQsB/4OOZpHeb7GjSQ/8gBC7YOaqp067XOljWMmher8jI19rJ58VoLsXEvksgIvAHX3g+dZI/+hMypPaQCJw+NOvzjSIN2DTiG2C+MqtOd680ia3Jjidzs4xvH8GsKU6YAP+4FaSsx50arYR+cDk5w1ONoCKv4tDGflDyPDPlmtMfsqkTpGGxGox7/0ixNWF9ur5fpH/MRakRQ29xoCvuvRXusnVkCDGhaH4DMQHssFZwg3/HlV4ww5KWdmZpHe+hchZi5uEIcCe8lcNUYk349PJ+mu32xgaRHUcQqTZVtNNPDlSi06v1885waUhE9bLVj6HwTm5tMnuxOvFmdJOPqsKG2fWDPWRFRhvqFPJnRraEIRkcGgC/0ikrLXWf0ITzDiXJr2H7eCi6qjYul3+I9fAkJKGrnatcBm/kPOX4zFb9LSjNByxICtuuaE9HaS8qkRH34RYlJnmib/uz3bjY9Ns+HcUdJCycC6ejnR5/ZUQPPx3thy+KD6dMlsfCphcqweaoMFy+PqfuqhYpUYDNISu78tkrC4ci1yjQgfl3YiEheCiF7GMSvPZviD9WH8OGsJ85Yl53IUBOQuXtZibG5wzd8ALgUT0NUyqRrtBzrfYkGNpB3oZXtuvZCh52biL6+8dOuLgd463FAFVCA8XpB2gakCxI1ksdgNwO4m+CE/zX2ULCrcM3OHODDfOpxdpzSJHIzu+qQZL3lPjjeLIDs2GERoIwFumrEYs1o7Focw977PGlGyFGOR+oMZ1DB9wxqrRT+Yk41a0SiQZYhUe2+sY2sZdkKbGQlBOB03ubIkICVsGJcYeV/3TkDUwzLTNlmfWfctP2qM3xWTUvGxwGz0Zf4yE9pT1DF4NSYOfgyq9BBYjStfL5k0KgpVuow5ANW+XIca4lX7LAczhqIWTb/9JAZ3tuPwJ0M4C7E8Yi4Wy6KAKOaWCDypZTgjixB4WYLldNfoeepHyyH9+MnYuvXtD/J5ES4dVkoOYxVETbOqj/gFBGP65ANZjZ8qUKzeIxNR9Kj895c722sE4Euh6mvzRCJm2yh5RZIe98l5nIcIzBNStWz007FRclXGA/5AR8LL3ubnmVJdeoeEZ6xYopIdwZf+r8zoz8KTc5/AaHdPrX4pLdFcdXpdvBE7XH+jEOkNwW61zi3DaxZSipP541kllSS0dxFuyilXqfeFgnDy3taZC0RG+n03CMWO/5yzIDJ5QzyiU6lYHSngiYzNRB/+DDJv9cc5rIQ+m3yy9I15teGA6B3Qbt9z+AFHgbQTsLTDaH74s4YXF7+dw1jyxEm+O08QE/jmF+C2iqjzNIT6+laV0BI+/3mPM3oRiqLqqfeIWzv2HxgYItWgGvYbtOe4TscvZ1YEdhiyHl1J79Z40JXaFa85sY9Wdy9DNyvE9w686Ra89tvqVkKEOdA1jlFdURabADh4088gyLGtix0e7fnqZZKomVVXnrEHb5yN940jm4jTxCrXjBThg0dVLRK/lvqBofckVlyeREABZ5OQRfBTx05XuUy24QAACZ1LE8hBlpac/SKhGuTntAnk/D9yuCA0pwQVj4+2d9z2ec7UIUW1sT1FZSj2P+cyItNOApqLUVki1uej8F9Mns1tITNe9hNYwm1kyVbqTfCVxVvrxxWdDRlAlSQTQyWhjT6EEckA4iUWiO/mmwZ3+WVQkNRYjszUJ6Q9B9ZbubQebfNCaKFrJMKTS4Sc+gqcb3w+QYbVsOgwaU4CmmW2YqIWxdVCDyYHZJttRt2Yt573+7cMW+z8uWruy1MumfS9vafEZ3A1Mf5Glt+Qr8P9SICpIBdAtiyT2jQtQZ/xHE5kb9uRlFUqDxx3mdBciIPD3N/UvDiDaSixVQnR38i1d+thBXoqSJMlsoB1lx82henxNt9GxLAnF2+1Qp4dUjXZu2Zfn6woTh7SoUp04IgBBobSOp4zMSNZWosl4Eva9/MVfnysCYKam5ETgpFwr+SKnLA8Iq4CAAAAe8XTdcfN3Myq3NN5FA+GFy/42369jTHvhbOXU6XBkFskxMJtPSzWQ+Uia3r5QkrZEOFAZSh3vaiZoAGnNAds72eM92U19W+vbhj1KRWpIlcd1DfR5mvJplFKcgRTrex42q5quQ680GVb58akeCP4QdmKbp2mEycD8sDPlPklSgDCGlFukoZuZ8Js+mWsjEbno4C0++w5G4roLYm4pYwgx5PGwCpABCbAiN1tPeUrqM7Eckket8003IwExjXDQWQTp7QFGMLCZjAxQoeig9jlSHZ4HPN+yAI61d9+Z56ifG/eSAgemeF8epQDlMrT2qVVaqkgH6EtY7X1/LBdAox6MntFg1KFPvwMo6fZp35zw04aQzAg4qlbbf0/QTnXvNhX3z/XJaxrjnWsbTlR1cUkoNHxNiD5otvfRTssmTNiAqyTK2+lwQvNCM0P1hFkU973NG1rSgwWo7ds3ERnAWi8ULhlNGyeyBo1CaepDa8hgRVzX92zclzBGaL4yChcsI5X1k7a5uHlvPpKj6o8WcyBTw8PQQEnJEqkeKZ00pEVZmPLfft2jZAzKMMklYXTxUFMjkW18dqXv3hRqkuC3dQo76/xj3i0icgW2g1wUIjacQOTyhos0ki7rKrvw8R3sXJbW3a5wZg3wXESCLyK+ZwB4pQ0gHMFwJvvScWBVj+abS6c9hAgn5xH1xPUAtT7/kGGw3jn/+OahzxjFZjDvC5KcM0DOS+2S8chy0VamoG7q52UuxQncZtpF7jg184DjZNX6nLLkQX6uTkwn0UBV4r+i4PftOA9LencXVU5FuQuDBs2hGVkYjOXCkcZJYvQhtphqDX+u45qBpQfejTo3/x1P+rnm9U/Q91sR3uiGzUYdyaJL4D9/wPnQpkvBZOceuejVi7T5PFk5Z8XPeevEwKc0fh1H5dx+Wk3+0aHhIj2xkSpXctHGWU+h7SSZau0IE1gEDZb22UrimJIjJ/oo9ioECDE7XugWtn0n6hfCXnh2evhZg7MU/NLBtGo/sTr+IRiEAB1cO4zEnDxXnW2ibMpsqWfNXteUz9LjTrLxzDge9xa49zJvTc1HIZlLbqcBN5hYzRKxqZjzRwXKi+U73DyuvL0Tuxqn1DXpq31t60O86/eovWvcGwl1gMFUeKu4CVpDCXqOvlwUwHNzr/rOU/woaQqUd8QX8/1/XQS9HN/rvbo7AAADWvWbUvX6jePlHWf4t9hPAF/cOwsF+Wqg8goYZUkVR0BqpxwgIndNpPVtwODZXyepQO4uGYOyXfB2AvxgM/P9JzpoFsuOmAc2jvl9qBPyqWPEyFEXp3iVAnGjoFr5P15/Kwi2QmtUfn/XJGrz84OBpjmIqxUbGlXYvcFfGY2bEUid5USS5MuUgszGxBdT8LF/egg3RtibEPLlFdACvPUZ7oXxdURxxjAO6iNnezGHlyCDawvp6DHBHOQ+zRQYPGredbQuI+IDt3pYah0fL/jZfmdqxIUXyUujd8ZABd/mpa1l3Ad66GU939srHOEiK1h9UaiQtcriOduBBl8imTpEAnNSOOkdt+cml6LhYEHlcZqw1Q8D0JZoPDHZYC3zioStU90lPQcjMgbYUpeW/oADdc75nudN19iKSRWq3wxCETHN7RzKI9qzldjhVDw7A2iTZZDIrz3urnz2j6BnNuGHhAtWNmPvqMmbNDtgOS332HbguXp53+X0oTs3PbeLA/2/dZYCuBFtjiuvaRlu5t+oFgPEm4YUVLpqkqfqRFxtLV+6kmEWyx7iFnfOOPpmSiQnZNczS/OBBsD+WLRc1DviCscrVi8tnI2YHEXB6M0fW3TDz4YkuhzW3VyE75VAZM/ClD5Pb4VJ87NjpQfBf7ndpnctRncLu/H59jvN5G8vYAIz4wSjYObUzG7B/yyGdnAW/hmTk7GJ94fohb22O9v3nMe6wxUhYzOQmKm7LAi+3u46lVTp8ot0AdZeinDFEwt1cT47kfnhF1KtvvEn0Y3k80SrzHaHtID7t4nOIyh5+tGZH8IqYwdVLMJB/83dmpclxG+jEQZahTCsdaYrO0Qqvi697OMdw9MqtXpXSwY+AkSkqjjrQi3F2CyS5FEKGrSofcdKUF4TdMZ/Ox0VB+CZCA8Le3toOSic0bdqOLM65PiOIK6gV111ilbySqqieg5hoWBfPhlRLYAnZHyU6qnRqnZ2tzHo9oF95L+dgGz64ljlS8DMD2n/JIgyHXLRgD54G7AbgQDxv+T/zW4SpNg55vfHI5wY/RHx5y7NgEyB8zEHVtl6dOMsx8t7p0194GIhYFTsmR8k2SAGSLqJhBI7wcKpBP9E1MvoP0W2lZIyfy/WDjjGcx4hhPfQHPRq2yrDpQTAj7Q0jw5H9PmlclyutZ2xYYKsaFTlZ/5zkhXYjjXxMDpFb6hpWANuIDrUieG32hzb/eBDc034Jwu6DczyQjBjZhWt8AAsmVT9r/cYTozB5Rg5jH88o1l0wcFrAqeAY6NUKus5pd3qBqwNp7nF7cEudjkIYMH57fS6/E/mgagGAEW2AWna9OoFYvwc/L+fVqTqolINGTOk/g+wzN9yNsIicrW5eFh+JKuMptcnh9zAEmdFYA1xGcAtKVFCFifH30RxrPYDB0SGuk1Az6r8xhgKaIeI2XLbF9qZ4TVCbgogfOheJ9eHpSeoDf1n6U62vbyBO5Xzg6gcjff4ZZyd4C0we2o/c0dKflqZuVRlZFe2lkjYsG4gvwBSbReI/DAXmxzGH9gzii1P0/VXfzJ9VyBw/AAAAFZhrFI1FDxrTA7sP82J0+X9pEJLti213e3J02QtkOOoZuXywlr+mH0syRYxXYAfcdV0CEuKnJNt4Cs3mAjTrrE6MEVOrXWqa6jomtPTmXJA1AQQ8N7Cg9Iy3GUpSPigZVOSh3feOgBio0rGY82wItzs8vgbcbq7+hVfwMUpXWN7hQFZEPVn4DSzCU3dogsVanpjNR+UYB2WIPc0pBJdir2uxyB19kYTogq9aT3vKdO/CUy8W/0OUu6LbfV4+qT3rDwCmP/7j/G7IB320BvwZkyZSLM53/3qSkj7g00PFhFqT6boU6g7mU1ku2gtSko9sWdOTjJYvymJkpzp4tlAt5bV/wT67ntqyIwBmNDfbFu88aniQWV08j5yt2YnuQf51ANRBQ5+UmWOS2zJWHLpPqyLkGcUArxqPdxHuXgIMtzeZ9HgT6tKVqcyliJ/lkWebyS9I3LFUAA3mySVEFazqRUCAYgpYw2/CrbmwleQDHiMxvRtI0GBh/jQw0jpen8bukcfnSykYLGAaaXfI9hIhp8hWUerV4J5BiFDvDUqHzo6gOO+P9yKc1GB/fe2h5XmHQNIC4L5V/mX7GtRmlKC6OdUUZ3jJ2d6lii6rlgSh2/jPWN6Da6zujbiwlgPt8baOpLd1Mt1wif/NmdOrR4YpgLniwFfTDazMSKwjNlsJUwTdu02IhTEfWd4v81iMS3AmA40oegKl5ENskXTVLh4Nfmh819MADRLIysEfj5PMxrF0qcluOdl/HrIANW7nncLg+QQwoqkeFi56kjQhn+zlO388qLN87D8cKv4zFT/16DTlJ7nCGZITbAAAAAAAAACX/R6qLXb3OlEFWKPFg0LzkCcjS0K1Mn29zaTGeJs/MTiZGXcgVGtdPOwd2Ybo3K9A5iQIdSUXyVYIGZgt6fK8wIrP9VtQjYCD0aAX265xORDg3d7xnKreLCZSmy+HKDbnGoBCPP4QG6m8AQQFgX17n6WqwV7mjPWkoaHNXcg8hWknnQOcQutcX/VZOexqzojC+oet7TiF74HQkBRI3mhNTtH8YGLtGL92G6/rZhggb1ZbdCtGvZc0lQuue3FD0BfkFXwp6xslcZwuYGQa5aQ9ogxi8VTpzR6k/KztKGsUP3qmYW4DkO9lsl3k3Qcmj+SV4MM0gAztyOJ39kwVAbQriCNcdzseAD9SBscA/oNpEsok/r50Y+j8Ful6UL9YX9AQk3KPYHuYT9DtXzFQP/0UuD4NDoosym/VnElSNPVbAryvZY0cWFD7NwE5uWEDgvwe14F8LD0RH10hSIAIXJBdH67BtNm41IPd0E/VwTZsVPsEcZKICKS3EGFxpHQObAuH8i2AI2kZmwThHwlUKnej0cH0N5eOYn2i9a1hCUffw0bChed5Q5rWdytgeLsOqG0LsFp2lNqriJLOscOJyHOn93MKoljA58lbKchtmSdWTv3F4o9STBAeScGyGpahghahAIrLHd1E+/fSFMj6bHbccnNkY+mFLrky71XYgKR+20q0XysAC1c4C2pQxcmtzuIAZRzPd9WCPtD3f2RmwuY+/Kzuhr2JC4VO18Qrcv6Wkk32eOdb0cXSfa3Gf4eatNtcQot9RO7LKRzBYySj7i0uDmT3pzd03BRuaV0GnPfUAWA7xkBi/7erXpmWZRvgk9wprrjm4OoR2PcTkL2Gk2fxn+0CxkVlZMkrg7sGQK25ZNBXTZc8cw0htaQqv7J3B5VIMK7TSWdtRUfX3zQfGMkFvkEFp77XUtbRvUEjkYbY3tke8FZ2fI6MK8uLEzSnwfwEuWeauzA9D6mKCrcWEQKvOB68YGJoVC2WTwJGsnvpor36z61uL9qqu099ZOipnSKCW8gabCuEuZfVykLqa7vfH7389mLOrenINCq+CN2GlhE/2DAjEGP6GftgfJFtAuCt7JICUmPAVKf9QGLGesK8K8YSHrUbVcsVHceko8900jheIsssdMZCpg0BMoTYi9bxj0X0SZKP/c5d2QcpvrRkOA4ijVMwd8Efnki7cGQZ2yQIIyehqWwtAk/yQr5tNWOT7ehghbgwdcEcJ0cJjL5MQw5m0S/ipxX2vi7b12WKk5cxLqLuFubAIpOaqvC9Ql1RKOVBLPDpsUP38BKXRxWgHwLJOyIuGFEINAyzKa0VRzDQDV3r4dm0QMe4M/xAFgd2TZ95ABLY/VXlPXfQqh3r7Iipd1zsOpxCfUwDqpwrPAD7958DxqAp6rcsy9fjlKWntHIbK44pi3oHbz6dibXY5ggNpx7HPwgjHiwGiUdW0AylrLDlHLT7tKrQAADvs4HsePJo8xXE38OEx5s4cVCxA18dobC5A3UisCOjI96fV5WG2KOo/5hzYlgabLGxGRrRas5rQY1MqPLyfoS/5scxkH65aunG274IkTujnYsTqU7Wem0qR9umJ/ITVbae/Kp3nx81WLj5o3wp2JV45NWudOojY/qE7V6gF2y3X6k9Kwu6144UT6J21PWGPhfuOfcvu4IaTrEhfLjydQsh212o5ui3PKBc0lJbkzS4EaIIiB8EaHriUgowYMngIL+0W912PjvM8lKnohWrqnbLVt9feK2moY8/W4kpRHv9AAADBXt/0h4UJ8wWIhzD+utxcPjv3cCLATSv1U7e+DYQBNELazINRuvapvzHNtwAlB/Z6LUyf4Ry6nF17Ro1FwSdwMst9IyGdvXblajwvhVy9feJel5W+61TCWEdVwcPfN3UpsqJZ0erPwe4ylWrZMO26kjX50A5mSsPqke6BXogTGm3zParNgwQKeU8xdB95jMLQ8Wb5arG/ZHcUnRzf7ndCsf3ZF1XqF3rFy72U5Jx8TnVaD33UI+7TOL2MhkwNebLTvMx1FQ4mAAAAAABiL9R60WUZUT1lt+OjlNcr7O5k/9bGjUDXDUt4vOcStwVUL9ljZ99eVecO2qTv3nrxYE6qNPqMf+vSzI2C1YhkmU5InSbOuUyKCRLm3e4w0JKnWE834zQNTb+aDFHB6xTKvh6mQAvvBtjQAAARrymYMP7e50ogqxR4sGhecgTkeM6VWJ+wysm8C4Mp678UqKAo9Y7eDIyRcCtAxBtyDq1neYZBcWAGt6LSGYaCIs8sz3dNA0IfAdrpaToRLHBepqE1ICpSsT7BlXsgyGyC3CN7FIqiRG/KUahdT/+KITBpJkyvE1idd6bLoi1LsmHkINWGFz3gUbKLhk2tsqWBchE7SVLCaCGGpABiHQT5wDpIc9ZM1BFRaUYE/W93uQlja0me1lhHNU3M+BJrUjGdavh7qKn2O/3VtqnRBTX1wq7urJdzgZX5fAFEWee2wmbmetodpsWq5fSLb+53iU9Q9463tAL68TABJe1AAALoVPcd5SzbnSE8QvAwB8jTja/zUsiC4OoQWJ3mCqZAIVnIKme8PRdjW27YUOO0WbHOWczllvefJFLHyBxTogQ0k5we8taCUHAIHvF8cwCqn17D5ukV7T0hoCk60Xo8H56Y58qfOBx1SQvVQLmwyiKy/LimP6W5JYDrjoJTSIPHyH3gaXA/S5RFEKWBgjVON5Vrf4OjEgUiH0EvGkdA4CyChtmuQtJuXuvoQ+wT78JLSxAfbpMr/vVG26mQNDI8/wGOrKmgM4BVUSpj4mJp/6Byo7mv80FzwZvvH0LTbm9e8Sy0kmWWzu1Q4NL1XHVL/2vRlVOAO3TNmGEsKuBHBgm5tVi2iULNna5kvs/IgPjPt5yIj4TqV2EWK3/z19+8cMP+34ZXUJepCtfVD580umwy7LODhirMO77fkbxy8QKE5inDNiT+QYHJyoKRZMPY6h4sHcxFXrKySkjkIWsXBGx2drlp9kav7v+2bNretdvcRPMDRzupOEx8f0zMe5iZLyBGDQi5koQzgRCa9/wOAUDFskK/k4HyRLxQy7E4/YA3p/r/0my3cXExMOfsH38AvD6h2JHFNPqzEiSqvsryszKoeQ7zjtnFaFUZKkF00CqcdZn69cqNajXoFuNAcQgTO5aDTVETkG4TvUD7fhIWy0ImdHTL1qZN13MD0SiESGipfvmVfdZlL8m3WLfE9WFO9/wn9EzdBI2CKarbH7NUYGdTnoTLOCzmP0Sb8Of9M1+yJ99MKoxt4/xKRFFknvcG+kI64V9mWaSTZuWGITNgDnY3Gfh3DleU5LHdPcHfmLTEORgGDm9WaHwcPoL+gkptYYwXQ6EoKG+N7IS7WPFqZTW5AYADU7Z3YHgvuINI5CFrFoq6Mdbm9uNF98H9297pRYZsYkG3A7hz0ER50O94tMMjZ0BiMgZp0MT9j1klh/WpVZHprtOLQJdaEeEvSf7oe/PiKwlA17nrF6c/tVAkR6FRCcRL6s4FbuPDREoi9HKSWRRlGlknqp34QgNss4Zr55gR6OGTzWzGyfVSuf0fgl98pB6a3vVQdc66zQjBkYFQpt5dKlbNEk2S0ebXx//fl3vfnCXAAz4nc2cksd09xBG5uyZa/WuV6ApPcYZRY5hyhDbtTRjwbo3SxNNmI90797QgFxYhgj4zWSM+5FNc7Q1kwP59WcVKtfiRCsrKEyEk0z0iwirD/nuey3+boBAH38wKhYLoD/TgDQvqLv73hqAgLNLMNygnAxEI/PhoO3gM9K6JyTr1mZVSj6UZihAszKJ1vn3daJCVrKQ6EhAP4pcRwPs7wCCGJDCsiAAcwpkA6usXJ/l+H+eYFq9kxIvt5ITMpFmtKO0I3bv8AmFkDI0+lzLMvUA24MWDC84SFNasXXvDhlslGwK1tU7mBV/OrHIJ9M2qrAquYdaWS/pu4Zi51IeqJMGkcy53v78dQHeHkhETEc5o2iY1AS6r7w48WRZJ6/WYiekfJj1wpGkEg6c6kFs0BKF6lQPpGGjP/AI7TPRPOq+0UdXt+/S/3qTuUm5gEVgJiX1pdScVBa43mko9/JLZiQA7pZ3s1YUw29O3fn9PkKza3mYZi8/crM8AA33oyqVkjrpWCJTmeTuXR6ui0vzeg7ww+LEwtJA36LoWl/KNOER+WtfF3J7u/2+GMvEz633ad9+8wBvHbysZ/EHQStx3+TznzZVRREDE2kq+yPjDNhwr1yPsxmixM/9fR2VpkLz+cVTRMCal6KiEQ5W/w4nDvEYBB7pHNTBBiULnTix7OR5eSRMmGMFJr+fli48Zowg+C0g6hPev4WzPUr2grssTTPfUzLWpwqY/X4ooCoERuu95iK04gQlREWc3TCQWYvSFyHVOUc/YqYrTSFgsAhCxPcACP+BikABy95dpMQ5c707vmN+JTORZQmpSBrUpgVsCWQ2L3N/E/DpWoufOanSOnRBzDyXYBpoN/lYQTiv0ZNkAOmhuKh5hPUNPcLQ827HF5aa2RrlBHPQ7dgA8xDDKQsWwLoagJD7h+URmOMmp72baN0ASh3S6OXKoGaxE6xt8S5BdPo8jpr1Z8TRzqd1bwdT3o7xBvTvL2Ld4d46eeaIYJhqDo9xyD2QbvaAntTg924HB++s4s8oTEehnvjx/oELOwadhgHQgBn5uQlQAFpD89egOrtLxhn5h2Dmp6IithD5zpve94qn9sJzKKvXEu5KrFinY6QslmqSZgktTPped9w3ZbDRaYc34aKLXsemd5OgNQj4j993sN8yf2GlbXYvaTzLE0TnAjuzjQbYpO35Zx3Q4IOHzmyWU4FuoU2RvgQPlOZt9XINhKhQ3zpkoaW9slLLf1gEJuS/C7jzl5q0PfNt45PLSRbavDKB5gLH1DXVhOAhnam/fT8mEdVMOkKDSjlSCC+mU1Eu10nSrH85TY+7S504HHEFMRy6KU6IjqH+jL4BvyIAMI5ILsc4YwQkkPUbBt7QfzS4WFb7H9MdWPQQ4rIgkicx+aYvkv8ye86UNPh/fClbBhhD6IYwsr4mbcb/iHv4t5eL9ZA1BS5OAAAAZoMNd/v8Mg+FAhynC42I/LKVxeDj0+dMNxfDOqqx2ehGjyEdDi9nXAX0A7KFv0qcrZemLUVIIY6hKNGdRR0VcZtzXzL+SUbYY+0E1rhO/fDlBJI0XIOmseHG7/TG7aDqWGEW1W+E5Pcn3LRTUs9RLFqnjlrzIE4vASHItqpji5Tf9D0Y2z3ByrlWM/mcwsIFAQ5uqIbfDvJTXvNP3PE/M+PCx4a/xz/90eO6uSC3u5YMOJJ9fM8/qQvK7bvJZ/BshQHLOgAFqScHKv8UrBAMQzXt/Uwf7xggrT3jwYLkLs1oabE4B+Qhv0ZiIYSWepF6/cRgMADFvmdk5BC7Bb4z5aBSuBJs+AS7xZEX/hbE5iO5yLlr9Qq/DnECj2t0Br72y+bI/PjO3cwC+ouVI1m7NlyBVhi2RjMQqftJhQzAx4jelSsEF68uzl2ZFxG2vcXEWbqEcReBfNSL+am9J6hAkNxyiFWHcSlQPiC+iocExQhhSCIzf4N88URTz+D3lVb9ENqftWy708oJTk7hfqHwQQO1ZfL4KX9JpWZAZ+f0yp66gLLDrRFEr2tNxqT+GAsd80mMisc7VT00dc3JBrbormp3LkMgy+wOIV6LWJpjDyf27pSzPakld9tm6lxaAAAAAht3Zj52YM0SyfNX51DICOczsfYgcmtU7Ov3IFQhOgsdu7XBLM43J4j9JEdNkFgHfXvqMv7ReHMsagTw6Cu1z3edcBIwnn62+ic+olzpWX+h8RS/NzZkvgAAATdUahFDIgqDpjGHNP6nsU0zkyVvK81YnmRtZfGFixPMCe4ilHDxysXSWfsBF9CIUcLSVGKnUsE4qfDs6kV8QMzwQdtXQcwOYrTxcIjv3LIyT4QqbQ/TEZnmm25RjgzOuCh9FvBCu9HJXV4DXrjk1vLh8fUmQt+J0JR694L/cXCUJfzHxfLecSVDn8SmN/1A2hlJtEsBUFtxqWol4SJyDQS0B3F6b5rqmzNJRBhbDs+KAji2BaAgwpoACLFk1h5ZTM2fzfHgRGlVYvf2f8ApxX5f64jLg+igyjIBcIDRS5XcEUS1Pzj1/cRtnBTef97u/9TgqGfG+2//ND3dG8ShIMa2r7EpD/+4jl3AYvodAI9tR45t3HQbewPgdGR1V9ELJY8vTfFW/Zy806FDRtalIm24UPlBMnAvARPPNulyho20xgZLXmPqC4pXU20kKvLJSUUnM6f5Vo5VsEm7WfxW+Y5zam0vm4PL6m/0xJlZjgXn9yUB5jniS2mpR9GIFm8nVT94LnclkhXin1OpO/Oe/9Yw3FuJ+WArbhjUxwuGxPLuA7iQ2AyAmLRFDgkCqt6dtFPRB8/cQvbGSJ2IDkb+j8qAtjaGhrkhW8ZycQKjR7N4SuHAOWfHv0ohzxRqzgSqYR//BZneQXWCnbRzSE8+3UDdvfvPiLdeQUURRZLuMRVssaFe+oNo8LlWiYcSxbM97HYAAEstv+cWkyShKjqtCkwfoWog/M85AVKEFQsi92SAm6qX6LHElLFflrwAAJ4bP2XwFVxyyUdxDQEk1T3rRkoOP5NIs+80mNoQ8YbovY++g0+18P8ZBTXI1SpmsjXJ6WerLT+CLGGViMm1kGrTNHCRcVWKeyT17azZcgP3i3kWD1QNp2tmXioAJ8pccLaJ2Q1GAcwaXU84I4tyAsZoeoOo7wGCprP51b+FNcYhnr0JjcEVJUvhQF/l+wXETUDfOJ2F5A4PwAPiYkw5gVot48lkUGrAnSz8W/k/OtbtRX9eT2O5kbdNjPI+muR6TDdEDFKxtGZbrLMLoZbl+L0pvnKSfFVXEjR90OHeQWs7AiGdDKQUb31djtssWBcMqV9WGOXeFQun1GZDCas0oOmQ6O6WIU7QAJxiazer4q0Rib6uaM0/lxr6yCOwmDmPJXxSJEzVFRt0N9swP3BRxamRfNkxOlIMbLt9TztvKuf7YRjjNT4icPg+9htBEZO10kcPxWAbkty6ENatx7BLwuUs976pGheAC8q72p/bXN5rmCbMES7YRgoQgqA1uWokJccu6nwfv96cInSmqPb9mDeG8x+expzL9nuuc5vb6ePXqpw2AG475OGCRO2KpRBAYodRPmIk/mmPNy15OLxP15ijzn4VbFGN1rveqPtuolIR5uWOov/KkCRqZHdoSybCQbttlWBxbubMzdYVV0qBshOKDAa9aTpHywGOu/qODpvUg6dyShg+9L/K62cXGF4KHYzSfdlwvqwwfcVTMOBCjNat3nZ5hPuYCaBq33gPwffLLVIypiQnSoweYjwgCDlEu/4kH9rWLP8zotxrE8+aC4AAAAAAEv7iPbMwAWu1rFHRMPDHV628dahtAOTRdTna8rCW+HfOLD2wM4qiio9DdZ5vhok7ev9lDSKmdtnqUQO6xy60At1klUw957/1YwysWYxY7y9Z2PfcW2JmwfMSEEPtbfX0G2Rq8crulvU9BCYWN/Ft1JetkSA4nUgFvyVTbo6pNavxi1/cHpBYZ0nKidjGwTMWHXbGH7Kg6jUKbDIbx4VDll5WiB1/XkJzPedJdKv6yva6R3PkfFArdyYSmho96yVP5KAHzo72KTxZ5XNpdsG6vMN4Xn4TwjXmNDVV1W2YyRWR/r/iu7bTpJXimHDeCjJjvh97FWC9fj5OBOiqxGyulWCAufxcpTQWrEguZA+9jCjWzaswl8DihA/S3e2TFTcgkwSrtgKdfm/FNFtIrCnhvoelQhSMuTP5gpodpf/AJTBBTBqQLry9BhV1yigxr58eYGbsL4ViHyjcUgBIyVbHW6IbHVIzKvdv06ZdnFGABoW0K3VYAFPVf2O5uUq4UU8K7siFgdCRW2/tuZdFnT+lvw0+dYMddOU0VTgjuCO/DuMp9pg1FlLRoxI/ceCERIZmgeH6lJkbM/gRRPjDtIbUOwqdoEy/ZuWRffIyn/DZLxVswgb2p/Hw0PZvdI+4unsThUdLjulNQYh2idSe2ugv7kHq7SS+9RACjjRmE1blOxs/CPk939Qxw+0YIfavwCxYZ3xfeHsZqOdMbJsOmkJvBCahqR8F5cAbGmWZFcWcRzDEzxq6ku9lM0FejkltdVvkazyt+9BU622orr82nnQvh5HXwy0vfbpI8Xkcc6VZWq/DL5+kYwyByRmH6e9l526XlXQd1PZwzyTxkUgtdb2BgHXmBGjwkBK/05C1PjIpILlGr32prn8mESl1pi/DP3TxmnMtjWC5G5jYso4naI+0j8Vvca6bqe5NqapJ6He4dQy8WPBWRlj6LOBEz0uRI97mQVjtjFMaDNdnGusdONnOzOqjCHPP4TgJmvVPHQx9EHyGTguXOT1xzhHmEHHdSlGHDIs0m5F/HOvTWbIYka42Ie8LnGth/Ld0Z7YBW+IZha/VK5JINYKC0tHdm67GAkn/jCRWia2ORAHepXjViUk805ncQZENuAUgEtAhPLc72SqUTVdnDMbP4pKnzEqXBffdMMsDidq/X8mDeOoRuJGlBaFwxER/4NMdVdNjrCWOJvn1nyrJvBkS5dkyDMlGfBcjvRBx+DVAeCbcNvPiYlgaEuzBG19XM5E26xfOzrc7NHJwUrfRhiZz3UqiHU+3YxqhHnESdixUy9z1Y667b0Vhpd4hN+UnG3FMJLjOloiYf7LxLeH9Hkve65jVAdqXOPWIPYMWkQJHEgGMGmWv1kMfJPFVjOJpSdMcMP7lTQOoGhJzuVjwgjFhlVgWHsAhXxxuZMwcd4DVLJz0r/SPiIpjo5AUiQUrm1b5gklfP4xUD5pJLijY+wwOqBMAVsNt8eeFBFMFoejLbcMqn6mQie64SYzO8aOZ/yhC77FP0bRelMqlXV1/WybnIql9l/aeNFWv2Yzg0Ev3dcnEGKdNXxhxs5x3IyE5uLugxC1JfSmxjfF47hUUAK3coeHDxSihLsLUFf+GqqGh2nX1jgwl5en7p/k8grCFwIScDv2rwNuY+xVQKFI05Yc/OAD7+hfbmo93Dpoe1mZDCoIgmEfA74U/ecJ7ifHZcOXtNL9c8XlzIvGmbvl3fBiXNZIZ6ydULBjhl0kGLQqPIEAVQKTcO5R5qRuX6AFeIoGin1AWasCVaUsUgub7O85l0ACFEXYohVWrwTHOBZqCnJs1jfpQmOauieH+xziCGH2M+le2KmA3QAcF25j/VFNAiGajAHqMe2+HqhxUXmVxvpuMZraME1C+9P9kt3rYw8zoN4hCL/N0c2ryK7Hp70QZ51DkPkbrjY4+dGOu4RZ+eMt2Svcp63z1NNB9VosQRKRp3XoSKZfEa+9qgpDCAAAA6qUOZQwgzrB6w0UvRcujffNTABAAJEF67NiGrETvUMaVkWJ1TM6YaqJ919PtEQA2TULBmI3VEZxM7GP9GTCrm03zt2dLaOmhrbnGWGlnZeq3O8Zy7xQuZuLHsvsS/9OGOtiFMD5lm3GK18cZLAeQ6A29g8wGvQBD2s1nduJJt1gsB29GZheMidvXMRbPiQIiWZWD/kknqkjRUVmcpclKgcbz0dRoU4t4eS4u+73nLo9FgpWOfxI18L5m3smlqx9tT18fSwoJZI8sPafyDL/D1lSWR7ihKN10mmmjGZaQbk/Kbzf3aHxfH01KlgAKUkbuTx/HHUYZ7dqQDcv3+RWk9YIchW/OA50U7aDspFa9Ap//ywh82JOeVemOxfofrO4P+/7ds7yWRhCthIl8J92MDU+05sgJZPohUf6ZoOYAR6C2Rhz526z/6sjcN4m8Eogvp9QkXIlFsZsWsbD0LJLF/FaAaVMu/voqvmIDxYE6BlOcuvvGazaEQcg1PqCPAbtebq6jnSUJtuloD5qKlA/aRsSppVVU2cq5owGO4XpueF2+Asqjwfv2GGYT0Q6ghlaPyGwg+iBuW0ktO25uZwnhu4Zn3RE6qB0YqIf+aIL2on44b4ZDw4cOv81dAp6l4AUTDG3O6chWEpSLncODQTZn5PWte+B3XpmHGm6MFVsLEqoZcWs2Vr/8xH6brHoovoMWxT61yQkZldURoyCsIcSjutdNqPWyRFunM5LQoRIwztH/3N0w8eQIolAO7CtWkDcz2FJXrUNtqheGiSxWvdzCfghFVJXPLUA0b4uQoZarjB/g+qkZxDfgaz0Zu4cGpGgDUYaioIGXnm6RnDHbeno9xyeN447puN3OjJThqADlqdRyW/JkW1NWX7Dar2oYCqeDLnLu7EEhi0z88G16E7/pv+S/ug5txFU7M6oRODJNTlASYCVLOOda7snTNIJJnLxoqZpldzXOgnwXTA43WkLOP/AEFUFZg2sGYAQ+frqDZ9zjZA+uy3OBidPaxnI+qm7reD4ZUM5SnYDQDWro/sm9RfvXCQmurMCrzEF12xjZd6ar7JEJTm2TGv7BuF6rd/CZOx1furc6LwBPUydmi2fmMShVWL0ECF+7YbIhTdxQeVtdZx4vhSU0XIg6DUK2jdAEoZrDu8k/uiTa3fQuOVF7xQNzgCUhzyHmECbo5Nt/On5tE6oCn8YGjiiMqdG8/YPb3+CzE3XMG3Fzyae5+o/42BArG3qaboihUfeBC0y7LtXEM1cdMYtkzb4M/21LCuOWohRYom1x+MWoO6CyPNpwBmGZwhC3RXhRb4XEpP2zS/jwJ13FFgb5HC8PTe3jSkDWH3y6AGLtvJhXCQmtZBRSUP2psBAYrVhFZzZGdVgU/KPmqQmsTdAUHwe3ooP/07ZIwAAAM/tKPM8jrqPXhRJuU9fbHloIqaZHs+U3/IWqTGA/gAlDc6UXi7ZcBgKg2tf/LZw6NLf3w2dBTwQhm+WonGKvR8zdkwV+8mPC+p4R91Tn0dPMmXvPN8B6jRgsKfPClvVHGE3x02F977zYp0TnHqHdEZxgRTLMqVbHdN8aJ6CJ032WvSAz8hW6KYg9xlwBmnK4JJfkm8cpbF2S3KPLaRMmIkO5GvlI8U+QX5zLzcBZluXAHA4/SQTp7++RBTvddgvoE97ewpkcuusPu1z4oNf6o9CeHTtyvydWatIz+VlJ1ju+cxbOr653tvbZ2qYCbYnR+ZpAXHRQyVdyzmArkEGkKkYxi6vRn1MpFhsI9LiNAbL+LbD/5FbAIL9Eh4JQkje2F2Mmfm5tIUcCF/vxjNhtLegxhaMbW2g67gVLvBtQzi5C/IxnX+bUuV3tyDm1O1VgGgKvhQDhLGm/Uri/vPUobGH5uK9oBTbzUOFbFGxkF8v/BMxIs2tlFuGjziMbwpGWpf/8EGpzfzwOX4B96rwW/N/czDRwOQqG4g9rkUtFki5xQeSb+2RC38dNyZIIQ6YuBGBoxBdhdZQpd6ncxNLLhaE+iA7dbgJ/iaei8DrDZ/keMnI7vinjIi8Gzm8AESjEsLRpdDjPmbAecMMKoJ7rHXbI3HFTDVEKPz7dSyOGRXLZG9J01gjEWb4FzuciTmC/LLDvQi1nrHefNyeJtQhBhGJ+sRUILfGOvv+d50Dh4pnq3GtjqzJCd8VpYD+YUwmgA5uU+lio5CSJ06Kv2pUnyxX5QZFOOYxzg3DcvG8ha+QJOXi+savA/pzfNN9S4fHOITvG+FyDOPEABOaNNS0uk95nYp+LoABkfebUsYvHGhAoIAAAAAAAAHRWP3OvIDkyMlgWSvv6/2V89ZKepCFajWZOqJo3r8fjTSk1xp4VViRodNurdEKqvza5GV4XykfYzxV5POHb8Y766jcmcN+J/u6lYCcj4VN3Tlgof4+rjru8jwmgbWYtKH7FBiwH3WX04QFAFYrMZgNC4fnRyuCh/3AAovo39A95c/v1dXGe0iqGm5GccW/nlOymlOrr2LA+CTLN5M0bkydG6Zriy6UrqoDzPN0WoU11640w95Ypq5rtULaue5nmLFJv4hlsEOfq04+VHIz1xdSkxllcGP2sq4o702J7e+DmBzaImDQ/4u3L8NFEk+VxJjaLgLhaGKb98g//BZaClXU23cVo7IDrB9KRlQXcWP5GqNAKicEas8izo1e5ZPzyJ/rdmNOUkAsl2Zr2dRXw1aR9fqYk6JVdi/+rhVqBZwgXpf3++Xem1dA3YZh41icsmAVmvzq7Z+XzQk3SdXOPav8UDNHtudqo30wKwFaVr2WATjpzeZCub5VLvsYHIwmWfJI5yVym3EPnGDzMXwHxUiedsgPu5+lrm/OQZWMCcKzHnmACQHcFfQXDPNH+nkfllT1motxlUHLcel86wApDTyS0bc+0jvYBpK8nne1PrmFP+6YbbetZzYAS7BQCnWthrHKbDwyEGAXfsqEx1VwLJWdkwVrDTHqlpvzsfZKfnE+DmuCH4S+GidtPbVTYbext7uCuXgFJAdBu6cqgJ75FE6jyf9poHlM/R7G45COIj1rpLDSDhN4vQoGRT7FGhUbnZXmds+6g9ouiabxisX0Y0nVdd0PXiz5mL1XsYmlkW2xy7o06eThxUiD8zl88PP2sVW1mIhaUOrOxRGj9souGkl/3LGBTsPm5HnJ+BNzS9goA6mIKGMrzHE4WKDhrFzWuVm67SK2wzn7zKFtoA4+gM08MV5V/zC8Yu2AdKxyQaLAPyNcNTJloxJMhJaRdIbx89cv0MAsJD/bjqwVHDaTVuVBCabi82GZWViVG22c3bprOOI3a9xKQz9mPArpGR1QwnkWxbos/u2Yne0fr+84zVKW1lX7hGsi91ximCbYbnijCfV3ioEkgwnV/Ctgl+797vUX0GAvBfhI7S/7A4fYyyjOtuEk+k0+toGBMWR30/8IY/0IKg8t3QVVQ7niUgi/aYmTTHEfJfU6RURmdMNzCjdhm9RdiY6mDKhFYZRT2fYZPwZu0uTEV70vMX38cyjMkesybH0j/Nz99aBcqDcpKjBz4KGqKEx12cmQlB9HAqQTBSzMVvdB3rFoAAAGQ0MEqDRO3KNNH0EiP4AkIyKgqI0aDM4Rit8Ksu/leoKXxSrm3Fr1y8vQdHjvoYF80ytXNC2b9K/7BpVDIP5WchrpUfT5H3QdaB5+UTVZomDVaK9y4VpOQiPk89sYxbBdTwcuIgo7SBQxK3hC/BYeUlb8EC9mFYMH7ngYY17ZK0hpVv56uTXRcwFG6hlUmQpcRaFe8EX2qI/ooQTonrpmg0lOSR/0IS65VukvRChP49GxtiR8RaVDOrDtdS2CC7lrFm+PckzqrFWdIetH2XD5dvT6Z9iz4EDJzjiBFHBPKy0k9bD/Ejlk10dED7FnKo+MgkV3E9rG2RigCpZPcRlpqgZwjhh6qPmZnfsetYFI4Itw8c9m/8xSDWmhbrImKVbYWo/7QJH+HhcAGzExQQdV7ofAsLJttPRRWBsHQqx1SzrHHSbXuN+Q3fYKTvyJN6uS6OuHyooNDqvk4FG0o3UYQxqGEop0mRP5/+jeqNSt+ZUNq+QZhGZbv4pXlQ55RIrWK/bfTjrco1/q1wKPaqbkD6mLrVUMYG/ysSatZkc9XpE1TUwOSG6lcK5V3lWP9DJRv8aePU1wUrCR0F2T2nKVIcCpSNO2iOFd53khKgE1xclQ/PVC4LKB9Ja4Jr0KJkiZ9iRZiOPSNTJOmsbZz0rSJZQ08ZP3BeGssRXsx07p5lAUYNspDe2HqtPf3svx15svGoZzt/ku5/VkZ1DU5oTrRh+Nk8WjlNvRrZOVLFp6mhVEZ3lzFoPljdqTHoZK7IwcfG8Dcm0rh5qdbk9iJVTS2+LDFMwi33T0pFQBY3w4BGWTFcMt8Rj3FN8VGkxHKJiMo7CDJHn7RSaVg/yK5Rk/QzxzzGFV6qEfQJ3CRvWzd0fPZ7fmuzc2DHGZgKdy3Ul1bu1w7uZ/fnlIS2kSsy2EKnAKRryYFStonN8pLrjePFi7rvPa0Ato/ikJUsRjGUpB1l6Ji6dCmVEe9eCPJHHfIwRAbS0UHDhn7InuBIgd0CMDpPqlfugIY6Wz1+xPy1mz6g9khs+aUdBaPk1dN1CTnU2nLNNPsF2VQCT7xppYCYlYz2sx+vy6T/luxktXcGAK818fhFiLMR1atybtIwpSz75TISb8B/YjIoWhTvZqmd4ydoD7n/hYSZHtilcNlRJi7n/AeJdFbrWSWBTDy/+gtr/nEUuwHILs/Npmo0lk9faM+s2G7Ma4KEtWzSjFurkAqyEX1FUddPlDr1R+dWda3XEUBcrYmZ3AfZ27iegR9EropaWdubr7DV9soS26HQQTynqRz2RVVd5SJxTcehP3KTafH9ss380Hr8zcCU5EDyjnCT1HVUCb+XHk5h5al/Co9RCiOA+5MgQMoK7qGwgEbWw/BO5aZJhX32BcfUmApuXb8t91EYU/3zqAp5CGWx9DVV3hXuP3eyIHSFaqc7AKSQ+ZEBUlSWRNHTEiOPOXQq1NB7M4FHUDb7oG8/ip3MbAEJ2YtQ3ZcoWwC+C6ljMeRJ6z1RtD1LBVLYp00M52I40jE8d2O6FWwoNcmqtBse2VLHTIOV5Mh+QTF0mjNKYJwC7tAMjYhJAyxCVFC7qWf3jVbE3NW6nHvsONyjfUYFPLF+L07aRh/tPgnaRVflyix/dG0Blf0Ap4vTqsEDETEk+vb53pj2qQ3ouak++BLB0Ikx5BTGqjnIEthixuB6FlPLIvGAwAA2HI8Y63bTPArSigsFcMBfJNNoyoefwAozZ3TeG+h5qAPZ1V06vSJ9QYcg2TX2WE6PQ/t2ehFaafjOCurPcCaSJXyp6f2LQ7o4HCAxmBNfT5LYJrKkAmL/OIflz9bs36N2Nuo9zS56CzVE7YTujyerEiMMoHfpLMckMXSgvVtq0nmqDvLJtMl5nMj+IdVJF1mW8EKbDaabUgB6gsx25G1bY4T3JoJg5QbgAABlSFy5+lk5miYTx+n9B417KLub6QxbfZ8ZEocmUdFFEF/HX2OQ5FuZwVGdvJIk4pZBfTdqcqdKFibnCAAAAAAAAAALbc7UQg3Oc6kNhJpeBJ2N7tM1Hs2IpEaVGZQJmniFgBVJSGsUWrUykYiUY97WkktdLXqiqVcMB2qkmMJ93accpR/EF40WSP8AfNlfuSHrtzDlREhdPbQrW1tV9qxoeIXhXCcXuYqQMp1uQ6LXQ4or+m/kOImIcI4w2zjRqF1Kr5GLNpyVV2YKc2SveS9lPAEoNW3vSROWzo4X+3VJp4eaw+PG41PgaLqppIrOrTvTUwtnUHAs87VON/d1O9LEnA3Sj5JPdUTfvNTxikSbn+iC1KWca7VfM0KBzR4F9f6Ffmb1JmRV1gt7LvWkBuSZV/bJQXqcqbU4vt6eBKZZXShwIqIuAErLqKCB5PO5Jy6MTGZGNufod0bi9l77K5H7zVY0Lzvcd28LrttzeRtegOyFNGEOPjkXKn25RGTgUkwRtcAmCR5YcWJYAfyifMdi0AjyH55NQbUbZ4iTJ4XXg///CvBpOX5cosci3auOGitEsgCmrDJazk28B2WgZORXVouu4wX8ToLmPx5K0u/D2jva1Gou1J4G3RsE+iYHUDo9EU7Y8ptIAHrJxfH0MM7Ue3p9V7L85XIL5sUaBXU3Acg0mTHXd4UBzo+cVOo3TnNXrQn2qEF8H+jWR6K+S1ks1aj2wlOX3pjQN7Ql6dKUh1Ctav+/aehh9yePBvZ9mwa4lglOLFVykk7ea6oJbo3a9BUofW2/Pp6oepBZnDOwIw53zG6PCfZIWEK79wmHSuJjhrEavsS+cBIYj1mMdle63X500XgI64CdEeus33FpREpi+lokpVRMNcQd8WInUVicWdM0ew+Hw+Hw+Hw+Hw+Hw+Hw+Hw+Hw+Hw+Hw+Hw9HxCRU0FFdL5lOS/LouerIUgQFSxvjf5JhgoGH1Uzicq02gAAABD25SwzM6rstogH14ml4EnY3u0zUezYikRpUXiomIO2rZ8fCjKjSnCY2DtnYtwggC9OR72DoM6eiblbDLB039iz2FdKIjWjrNSo8le+TF2dNe3JB4mXXLLaTNUq6ABBvcU8BG+rHUstDuDqvENePOgHMwIuM+OVBQrsGrAaJSuaxz0+Crk/O07AikyBJcaaEESJ5+pfB3lBbsj/6yDkbIipzmSn74zOfpJvsmHoqry8aJzvVh29ijBgh3iRUqW7krDNWns4l7Cf7QcgVsyrRF/Ni/bKY//MQoy8FoKR7cngm8/EuLYfahwGVgZ5wM4bBzsdTlBJaUBjcrp+BFmM0dJuYDhKomqeb3SeGtPyTQvXhlGhI3scZubTbz0HY4/00RJCPmCx3ohDPzvOLT6Hgwjl19yP72dYdQKUUVpXILFFzrdet5RpCDA0/EIqrat/y/wOqZB8paWkTDiOW/uwO49KF29IN/yiEVoSZJ5nS8MaLKk8wVC2bRRbCqvnYAKMhSAwx5mE5kSUjGej/EcnGDwinlbw1srnz1A/kbkPGSX4Og0xB2E4CoE4cwo+9udI+32l/Wwud+RUi2tT3DL0vaqevHOdU5c6+a/ISuw3N2gmyvTO4OT86JrVXuyJr7fXlgqjRFJ83zOtWaMX/n5SKN4A0EAC8+xRjj71W6yaAUM4sAEDo8ZmodZIF3IAXqgRlI+JzuEeOwqaiWvA9JkWtD/2OZU/QCj7gZfjwzvDrZr/1KWL8o/wJqqlyfMr1QqPM3iUyUqjZ184bGlqdgCPQxxXoS9yHqaykIi87orHMls0SCcp0cV51BIHRYUV+BPAuU4L6XePZUB87nuqz/xb3ZcS271JjjmHgpCE2ntItSKikDmFode5Ksu34sPVVN7VupkuCXOa9hgH/PiScbHRgsiC3302+t+xiA8waPjcJhYlDomqAXiUf39UpYOAkVVZxqL06o1Md5mRRPYs3cG0LmT9hQfP+okszFufQ7YN2/FpMa1w/b5jDhJXc2XOUu9Fa/kxG0+H4e5YLayhmDMl+gUZRS4468n1XxSgDjr65TPkQwBOCIMaVe27wS+GYsDh889fLyH4xBxihy2SHIfTkONjaU2LZUyyzF7a36+/+f1s9te4aHPIloyENS/eF4+xIeW1HVGObG4wQxont6gzxKoHsAr7VwkoXkY60FDTtG5A77oL5FFB81CKnPKYOfLx4uFDxJQwzcuKkzj6z7u/qvCdaFUZ5eb5fS6LLOMVNkSVMF6uPWA+C2x7aDAJtPmuvkn2mvkzDwg6DUKguMdtvNCqthpJP3jncIqd9HDrbsqLo386i6N/OoujfzqLo386i6N/OoujfzqLo386i6N/OouauLR/5sdFnXlkZS9RZSUGlQxHA1z0kTXUm9bJJfl0XPVkKQuvT3q1BRwTPmByDiLLMAqG93tCwMreqeNYLSRJYsQITNujTwAAAABrWctqte2/rgFql4EnY3u0zUezYikRpUXdsBlg/+KSAO1B4BoS6AVAzgkNJ/4FokhjMdgZ+xiIiBuAFa1l+vkqzYoAB7UMt32WDeA1YlYprjMzBCaIKgKbshv8ekJVVBgnHw/S2i4TpF+zecZj14m2393uuv2wtgCToTqfmGzzVOlmBwgKZRUaAh+3xHkgzpi3DZp/i4noIhIkcdzoaLKnfQxZRiBQqZgbIORomY0cLtcT3E8aiBCHKPoXK1SUcArgDe603e95m7M5aMCoTOddVEgf1wpe2U2DbyCAxAqcXLhUvcpnNZUph880hTBYOGMFVKP1lhqii7VsRMBrIWTbRZUNzL+rr9Gdej/0n5RupXh8mzwaQLEV2dK8+1tDrXN9ipVwLymkMfWQeMo8JaS1CG5Dqz0veI8eTCaSJSbsxAASrPajCVO5tY+74J52nzutgEJLdg1JNY7rndPLdW+Hm1dgRnE2Jr8dF8b3f2GLL2FwwOFc4b7Gh+kBwZOy8fudNbsin+mqWRS1gugyq9yR07Zs4WY5VZGohEajaNnSEvRHB35CmQcemFti0AiRl4Hp8CFceWWkWYsrV6woTWhwp0ItzQ8Zj6QNL79qtDrKVNEExH9CH4Y/Y2OEE86TWNrLzLRPriuU1ZJdU8lzNib6ozQSF6wradwDKY9gAcNk1q4Nsq4VEkdYXhQHhbz18M2cSOpeFKrmirRqO2qBpoIfRGjaYzfn4jTFZmq9dBvNQKYTIIMnf5MTi8oSIacu0Z4tsQ7zmBCfoVjCdbJROBrmeuUElAujN3nDxbAoQwUwjTT4nG1N+rFzwDL7/ziHeaxj68tFIwMo4pWbm0UhsiNAS5STzOrBcvL7NlVSFYtPcLZxtks/wKFP7fn8ij5XWGOJyUaRggXAdHLs1PzBIVaaWx4ES/JAm8NSaSpVbe6Qy+zhtcUuaAb6UHzxYOAAAl6Wm3ToeMk7ZLSV88+iV4bHipwOgxLfABK21JpjBZi5Zl1qNWtAjgDrmDVFhqOIlnC496+Fa6r2YwC859YOEREGiT7T+uFY+Q6Zow77k7CyJgAADwrG72w3KvnWqXq+mFXnLIXsAodtcFJZfOhYvh4kkrw6PVL+HeUAp/vq7TKN4JJ8YXiTY8YoAM34cPep2kWLxgxV/en0EfvAxAqBr4dPCGmy+n03QsREZbEpoiJg6D3y/zh4E8/NiKRoKYpclEaVC+wAp6H29X+iL048LJR7AP7owvN5HOT3BBdBAntEyk+f31kocpHAImU92QZeslqtw6eg4ar1YDFjuss1mQdDJXo43K/57DFMQsFoy85ClxebpYKOtfWOGBi5HOBEVIdecaSc83d8I95fO84fmi46sY+MlDzrpz7sXrZB10M7z/h5rd9wwZrHQFIMcMU+kZxqdsdfaMHc6eY+nfqkmSoloEXAcny6LHkG5/w75AiAtH22p5bJhGnlOMnN42fqVHmPFAMh8m/lQTWA2hdfU3H/UoYEGDjw13T1GIL9Y7GMyIsYH4as60hBfOHwDFub3iJChHVGKHvRpKgyXW+s4pVD2aBaubBeQCmuh4qEbAjKi8vwC1dULi0Nrax90gia1GwYFdElLEL5odTi4DrnJbYSvqk8n+klrQdAE52ctBAulHZH1b9XSRjiFfP0BqUBxCdkB5K5JIMGicbwWuBCicn2KvY9ExfnhEmvDTOD8OHkcbm4QjaTaKq3mp1zlrfRJZ/dBwpshkKTBQA/kVJ6eDx2VWXQDx8Rs9agA7eTzUp/lkvL1ePN0jqwyGGUGaiVzN6PZW4jOoUXQWlmMi6a2FwOhAe3WCgi9VbWcIWtfyz2C2SVeg38vmRMmjeatT6K3Ido8+tH+UQ5qz//K41XyVNUZWgJa5GJt9yWNM1+S5/dhSHcuTjzDCo+OWVsouoDs5nvT8h89rHf2JMfLciv5HVoWdO7MvlOYiTpj0RwMgcsM9rehjvskmpKFmU3J2sMjjvd9rP0T2AkMAOnxTD85z7dXB4wu7jo8stOqPMVHNiigTsd4vWA1Ao0Ch9TrKRaL/L4uqYAAAAAAHGpDCqsLCu6rfjMBhiuK8h/qGSQLh6vVIVWJLRu6MS0Y6cvn7JCaE7zqTevEJmu8e3kY3GDrQwtb1JkPi/Q5cFhvAKbgME3DJE5G82nKz5FvxUd6UgAHPzIdB8h0HyIdf7Qv72k0MepPmRpObB4oGH2UsmNr850KJbM4EPtF5ZnWPSvmxtmCywV4rAr8ZjjVxHHH7a7n4dQfqN0C3mMuHPnSQu4a/ufOl8s3useJ35KoSDqbV2SUC/yvpZdiaX/C0WEBIIdgO6QHBx6gTdFpX8R6OOEojAMPXEdSh0W/awCoYb9clCLOWewDCwbYrETxvGkcd6Yk3sN6QHyt7ONdZtS6n2MiAejuzTGX2ViVlpUItzgkBPBhJ5aF9VVWrBnLGGYqSHsCT19rl6QbKfw8iKEOGFbeefP881AylAC7tQejm7zvH/Otn6uU2P/yOOtS94fW5E9o5SngmR8hiTWJ/LpNcpPxLNLiassI5Rr3E+CfYfS1c7Uc+e51eh91IqFCc6mi9QAO4KbWv/lxJ+aEt5JzdtZCJDrIQtiNy8GR87LhL5ds6+wfmThd2dSHOuTabOXhQzkYB1RoE8XHZMDCK6IX1eyYig/59xBDhGa3BEs1tNI1pHKvCx3coi0LRrmrP5iXX+3gcv0Wla8bGzP8fHUi7WOQLp+6iDqFIaGIAN//ux1bHK64xRvTR9InM1dAjMZDVmmdRG9PFioakKHXzp9Po773SZwiWIeNx5zRdex/06PQqr70ODiEsWqvbDQorZRfa2026jWHbm4XUozS9UKgc5K/F5OrzLgX+MpEBMWLHUaomaObIdhbB/e9GbTMn3i+bnHDkKN0UvMzxdcHIX1u0tnwV4CN1qTemak8sGN2wi737EV5FcNPOxWRmrEfFKPdwMC3TzhS7hLMlSNDWNS0CgwAPpj+gOk9wzMtb6Lt0A2AK3BSjMxtWPoZ1FDfuwwk+MfId9x83HauHZ1hUbJV8cfiWa/UBMPuB9Hybr4Z35gnc2wA68z28fKQXcQYPjzNGsU48k96Ls9aOEJx9HS879W84+8jgYJy9fJD0xc4RCbScQlodu+22NJRKbz738iQC/XSw+ngXT6FWnsJgsgmntvdAtB+Fh3gQWHelg9pStuLY0g8uORM8TXCKuns1LGg1f5j1BxyYSDwOue+bRSTG8oITdlMlFusVp6uvEXLZ/X58LBFuYpQO/i0g73b5rTpTdxwvZGcvfMSyKauvkeRjLHwvAq+S0l5oQJwZYMQdgogil3lY0vhZN6Pj6oOnKCzcb2UIU+RWE66an4A8H1l2WlWiWAZA6C7dw7Yo002i2HQKyDVjlVbITX9h5eht9PGC8lXmC3ttHeY652i+HbevYuEmRC8InrhYjtUKfsLFq/Moj2T/qyas+pQcamdKk2gUazPawz825qvTMwWmHvSSvMuhxqFNXSNmmxevO7mPnrXuyOUrtf2jOv4tgsxai2p7zNV5Gtr4QFWC1XUOtV7V0f5j5AMjLIGPnMyinqbJdLa4NzZ+B6Enn1ItAFmjnkXW6JYlWrtHvjLcw+dzN+/T86vW32GakYh2C1Je0BVnZkC0KLfIw8TjH8eK7MH81nN4QAAXPWAdjYRzDOfw1JK12cg2fANumKzVdEVYvKo3BK+vdBZK5T5z4oZvdALEEOLGz/78jU22HO4AFnGULO7qkB4wcEVPGxSvc/2RakvaRNz803NgPIppiWX30ZzXr7b9GZfxNPL8UJBsSegV0QrVRvBJLxjRtn80nNBKmCteRDMkY5KJgM64Pj1ZtM37hb8y3uI+ML8LZ0/Dls8p/RDMEOAqsE55gckEgcDFqNg0pHqsO3aRBSytqCfN7gSXQUGR8oo6HJohdMdMAPWna563dZiCK1plqqm4evAFZ/S1lkd2XfuWaasGObbBT+J9NSmAr+8fnLP6heaQA/QpZgh/9vbZqaOYwBBcMwNm4tZCpMJP8sl4GyBMauu69wfCiVhnrcpH8OAJ3IDZsjNTG9KSpZFnnn8IKKmHBCNxsMbspdJkqWJoAACBjO4dUqbNU/FwDiwN4UYlpvi/Jn26aeuPXNLZFdyQ4+MkQMEtAp50MZx82/Ndg8miyTn1AtWXB3M58gYPC8YgKpjzgIF8Fum9kQu4kP+02BAkEBkKAAAAAAAAAAKBgx0+wNXSFUGwti5KUis53TK6OoZFPuljxTy2cg9Uotoh2jNE7eqqDVxNsIVuM3WuQluQEmOqSMBGyEN5TQsgcn2XPwHl5tboviHczMnu+ApvEX3NfhKgbHWCwUlKrvO9OOeLxtdxCsug6V4QssBxHXIxyhBvZqq16o0d0sE9/314BJqKaHmzoCFO/Sj4a4bcpKT7Od6E8Zh3+vDqx7v5ddzbFqLvKZ0ZOlFiHmi6vH1JdJ6KfQ07aHybgY652Z48e2bU/IO7/1FCZwHFu2fKKzzoJa5i67btjycF5Yw6+s6BiBv4auFaFh645EavJQKq12Ay0dTalAmUiVlljca9xufiETBWNveY/H57lv+Ra8QWCIEJSTm787Tw2dob9HJ8IkQVBCVSyrjtUyeg+H6vWEJhkD36ZJADt2ekMTrGAZjOm58+hsO3ZkBuEsCHGvO44FcHMdp7v8LjhVk7vZ/lj2OQnBkX8gCO3xInHhF4Tuhdy7K2Sug/wAj95B2p/XEldRMK77lUv+QYjz4Owtpqkmy2UnTdkHJzCEZpr96IjcAn7u0JnmX2bh06YOGc7L0UpyeipiIDCyuOevxfzHvu8bCE3Ltuou5Y+LrBYD2i9lR758a+Kh6/V+gz9HrDzyajCX3gULU1qoAcE30J9NQ2L2d56rcD2YPOQdbKGFhxv25kYIX47x9LCTx4j2f+AnxaUxT0qB9CyNPLwYY4y6+McrmgxQExgxCjlqAAeLzzXGrrIsg4mtdr/hRpGcaCao8MSso90DDiZ6Cyradxl8zEGTtcrCWBHBDS0ma2c2faWOmecIdM0kv4rfaprHjDBgM8wJrHcK2ArKHsXYymaC5LiQf8OPgJZTZrkDCmWZ0WVvIEgWYQXorjJ+YQzRmnKLl1pQLfV868BpLlS1FB8IFXGcTfNlnzO/p3k7iz+QEHAcO34y65/eIxgaJkjYLzYkBPJJrE8FwCfA/7r5AcvyX3+Wv+kcRndzWpr58ST1SopSjs6faLDwUJslGgIhsUCouVxg68y/8UoowtGiMRkwroLcobuFJ5MGM2X7oL/JrKk/9kIsEB/3My1XRacyBk5naaA7//8FVq2SOOOSbdVeUwFHaieVd6euyGZ8Q5u8ityaW2Vq3ebqxc7cq3GvJg9plxIPTuC2vSI4vi73G6n09Wr523cqDwiGZHO1/Gd3LPS5bmtpQqEc13LXdYucqxmiUXlIAJ/QZjF2lmxC6ckIa289/z0sgVpeNhzel4avJLILcLCQcJpoB94HsCU1FyGtHZyVpkOoQ7gjuYN1j13k0R7RYAAAhVFVK6rAKpUk3SPPM1694mt/rbHaxrOsXv+bgy/axbNAZ6FxEDLbxaQRw3lKMRAkMGFfWqeizX38/JnMGSIq1K4DaOXfYZO7DgQSRzD/dXWv9GjJDAAAAYqxbyhsNhr/7Yac1yEfwH/HtMEtTkGKFGFPJCd4DPPj5kOeMOP8aSGhvAwb0qyZywwTZETFQHRC80/y1tTLgcNFUu490fG+KXFlbf9jicuyZIazLExN+3Ed+kX+9+KDjRgyGvj6TIUCL4HrR2/nwHyF7Mn7rf5hadgxWd31zSERFU7d3WuWSP1Y6mOF3AyRR6ALSbn1HFG3zWw3d285rzob/R9wkInxfvSPzKXOVvv4Hlk3AH7xG3ML4rZT58eyPIPluwed5s4IP0mWP8XXLUASwirJ+jOLdlr520Lw9v9rZrPen23btFI3BLa7nefnR/XwecOmnEuohmdOsJkKN6PSFI3WXldEjsJtFFYl5kw39CKrs4Rg1pmPfhAEcqAAmpuDISm6+ZGvSVvXcQ+KGwgW9/m58XBzW/OKQNRBgU3/DQZFmfFDM5x58G7KHA3pG9pjbjEwbncDMBuBUgAq6iNT2GrQV6yok6oNmlVVrmyKbO4DE7Vjm5+dXR4NQ7pOwlFrl9NmxUzaIPqHM1wrZfx1YyPyQB9/zr662KgjZztzUJ2TrltP7ibxXPieR6SkB+1pQzKot8gQ74RZR8PemDxrxcWEJWWUAsN4WTtBvvwrA58LtX1EFBO3GTI8qg8fz0Baj4jdbhd0MhSgJNu+rlQaX1sAZlzksu8mpr9meHT3cjNIaIgUVANI9CF4jJNnu+B9y4Xp2Fl9MbHeEE74LtkY88VL0lCO5A3rtNihN7clEaLKchmmgnFaz/S70dlAZFozeaKMpScX2bZCj1uuGoJ0EpUAy6xxf4Pgdmv1ObZxe/rAsMiblIPa3jlxD9NCX4ln+gg8/u/k84XgP0/DH6MsnMV8fBdIz+NLODBojJMJmgV91SQMhs1ugdsUyeIi6JnkD6+PKYqJjkVWZ7ZCeCTqM2AAAAAAABDN85qMtfwgrv65B1QmmYNBxD7Me9RQ4bkBNxi4DKmLbQGNuAmM3w1Seco3AJmXV1oGs4LnN1oHE2/JAAAAANAolhFxgxlrjhTUYzXdMcv7UTW5DzfbuItS+jswvV9GcdPI/nup2AfzguldKZxqyx0/Geixm0JfwefGAnDAPp8stjYRlM56yBQDy5nxNpy4wwWIIfZVQZUAC/i/04xYi+RI0rXaMOqDZfgMelY5dfJOEzfWOmmfG4RJcfrz8tq+Ff9Tr9kTEPV2dlOVKlrWgJ+UTNAoprCcSX6HBLMujQNuZzHDKO6dKgaJWlGZ6gFIxaXWCM1DVoUgo7v3QZ3+0tbVATFt75z/xWKMcebYg8n9wARLP5SlYHdfbBgt2+A4Mk8nfMDjWUB0ZZ7N6l0dxJABq+cOugN8QzyKU7wgvOlOFqr5PSiFu81ZtWNEPdVE1rd9+IJS+PwYnQkxDGu8ZiekKNkKvejm4iDt1U23PN2FkAHgBoiLXwQ3WKmZA5JNJisDE8duTlFUe2sOUXyPRPRSQ6YBDuTWOgtFI2FqsnFKXApnSH8QAvY+fg1Mq4XejyqhM2tnXDgjvPpG4H+8CKn4bFRITUbvyGqvanL855mHX0E1gGc/tG+XwpDid851IHBhw3icNTlBwvjFBDe7YVJdY4AAAAAAAAAAAk9m6cBu/bAqyhFjgKpWCakwMZSeQfGoapSCo0M6rj5SdplK83C4wkVxWMRPdrELbaxHX8QCSPNbvdSJNtlbr0MYjNd6/P4CefpJnGOUtfVYke/Sq39lT2qyby6EUZlQW9qQDG7wJpqZE5xCa3lfQmBVjXM1UDPuo+ZHopnq86g7thqwpziozD4nYq2MbtOVcHC9xWP9vcsEZMH1CwYjkokr0fHpfGLsFsYIousiHiifuYbB4DHeUXN3q6e6tu9JHhLdz0O4oFmb76PTtFAQltNfOjpiozpO3wMzQQxr/RyOYbJVDPfioRdHO0NPQjMw58qWeXC6cfC8n8DRkpjg8w9tntk6Ii0XFLAg9Tgn5rbfDC46jTGJOhM9X6Md7kEzJ45NRJjqLRsuIIoy2PxdmbO80hMTWz8rVmt3qa9RBMw2W6dDVfKfDM22CnfjzzQdTXtfxi9a7HojNp4iWq9nJe42cLAeU93mc2ymhdtg+Pg00SMdlFSMT4o4FNCBRD8EqLp/q+9EWnXWnszyiprwLegrMONCszHCqTF0HLDGNFjSq+iN5iWixqvifUl3cTjnmpIUlMZNGCSxTacsrEUp4QAAAAAAAAAAwLA3s0jOyymu5D3RWHlfZdVD5I7TitPE6lUoCEvTq3OQaIm9rE9kcu51QRroVJt0pRdolUwpzilYu7oUkn+7UQXQ/fJbmHL0AY8zc5DgDCbmwaHYB4WlyR9850wXcZ1ywcGao1pb8n/qiaoF9LxnTNC+2ERbYMfTYRJnfUkYmo9KZsWLWazr6NKs5tZqRQjfWzXAiFgHJPzyo8yqbO5F09DYNq/bGR2RHMpSAdM2nL5/dRvfBQhdlduIDKu7R+i+ZO4p0Apl7FCUsFMCQDkTiFN0sMYNW90nAZncrjeuSUGNTdopTo8na2Pcpdk/ogwge94B7X/Vg7pyVefSs/bZxjHqIiezxqjHiNnOXLiCXKrrI1jyelivQ8nF9PgfFbHjZY7rFObMdJvYMvlA2tELyhvg38k/p0dpAkEJRcCGBK/u/X92JYCCzhOP1ublvreJtx38YF2Y3YVRm9jkU1WyDZxdYUj2iXUujPQo8ZlOw4824PM+CpDP+ZaMvjjWRVmr76flL5vJqH5pF5o620hg5NDz0EStZN1p9dui4yaz8fGOZJTFPd+aHue8t4anbMOQgeylUnLK1GCj1zKEK1XVJbKGii0/TC4uhM+PZigfFegBYXwnN1F2C1MMoCDtocDk+7k717TBORfBzMOltwl7dj8B9NVkuqc+/VyL/VoC+dwsrQz/kYvbWJ3K6QyCQKt7KGuojZdukO7keFWdjXRaAkSRu1XIl3eRj/3Q2yKLo1BpjL3oKUJESMDqHoAh7q9MMyzoXVIfi8wB3aZxoXSTo7Oa5gNslHw3Ty2Nn5cj34WpIot0JtM2pzyJciemNUWeD0QY1NMWkCTqW8j/V5XO6mpkIzG5bkakG9TxC8NrE6164NpESBtjd7FcmNCvRPYOYrW2GZcAAAAAAAAAAAuEhbvzbAtqep9qY/4C9EQz8BNI1fS1eNWsW1EnNT4z2ZslGoelRcdHIumEP+W6X9pFJtXupy7r7JzH6CoZNtIU/Jq1yNcLEqsRXmUu1W3hG+lg3u2TDx1cTe2IPNrHoSmcECatu18wGjNbewcgBXiRLas56ttL3qQEUuosZLMKPpBYjbLhBulNay5UatsUFOtXY2Na1O2H3AibttQV0PoJTBLP67VEUYGceffWJODDgaMkwfa2/zN45D5cS0VnLkMUwpwVms2p89lpZ0FROgL+bp26/Nulx4dx+U0NjXhQTN9jAySdIu37JaLG8QYiYWhe2qsrGGqcFDkTAQX85wa9IPYKykFaNzNnrCLcMpNj0ocB9ry2Y8c9qbGVKatqKa8qH2liyIRYmIt9dnH7AmtOSPUlIFqDOuTPIDBwj049JaXSqA0j6wKgnDtCO9yMI/yU+R4fgnnxWx4DP3vHFg0DRk2SXimK9ZCQhFUMDUtZfIZfISP6MHca696smQwh0GffDWSDHUG/ZP+rkd+EdpKrx9i1Ey+qVZZ6dsszjyADJFpvykp+274hdsK6ir3uHYHrm0BGZx1ROoJjGJgOJkms3dTjb3HrV++1HKnF5eDNKov/tO+9IYIkGoDtHXIXBuXgmfrROhDZgG8JXTAwnwWREX+6mDHQxOo0aP8fZCkouPT4Zj06d+z/GbQSbC2HU4JX1Es/vTcvuuhpLY+dWb8Go7w05HJ4TXat4HPM6VeJm+XbqDbSgfRmIHauGL1QDsXwsPF8LhAAAAAAAAAAAAAyWuxmnMi0mayY7X/byy5J0INRWmmrkgoxNM7uhaqN7JT8QVVu+k9K2Z0k2uFp3XYz+yLTMXV1aLrlbwnA/aaxRT0uS8/94oGkgPsX7B/f5rIBEN7HT6GsWhZPKnuDDp6iqT14Ztr0fPmvPKJsmzrKW20PY+2JkZBcUP2XXIk3ZpNXPFkG3s+sPwFJDwUsciqvEVpAOLGbMiv7bgSzl/ZFTwUQZm7qOLIRRl6jxIGXWFl1WqEIiZt6gaLOfM04X/iandXkxOa0e+EmZyCPUSRUG7kyOH6uwE23J+dmSOPco7GwrjxEFuH6M1+QrM1/hG7gvVSjoyGJr+ZHsETva2Oscaf1nZnLii9M1STgo+d8uw4lSZsQOjFs6sCy2Wr5gHAymjzC5wmJDq7TqKq6I4+AuGIxwnoULxSStoUphDpWzhjqkITkCjfFTAwgq5Q4KbVRuxwAAAAAAAAAAAAml3l++kEdp2Jg7GF5rUADcHOeVFNSC6Xvv4dQIEEQoMtm1WTlpC3KGZbagPByLzHdSRXE84aLYj2hgvjDUaRqxfqnGVNcRdsaS8jdwiz4/eSIS7yafr2q/VeHzsGDsYy8zACVMlr16FETerRIU1IdIK5JQHT26TxAR6WiZD0wxkANsKtoL7Argo4+nXCU+O/lH/vRx1GymVbp/lXPhXlAc2tI8e2GJAEwAAAAAAAAAABy4/dw3Snno/j17ncT9lbFxWHOWvl+iaq0N+8iiQKmLdVK+J7wT8gAAAAAAAAAAAAA=;fontSize=14;align=center;fontStyle=2" vertex="1" parent="1">
                    <mxGeometry x="459.08" y="-505" width="185.68" height="75.25" as="geometry"/>
                </mxCell>
                <mxCell id="29" value="" style="aspect=fixed;perimeter=ellipsePerimeter;html=1;align=center;shadow=0;dashed=0;spacingTop=3;image;image=img/lib/active_directory/list.svg;fontSize=14;fontStyle=2" vertex="1" parent="1">
                    <mxGeometry x="824.08" y="-519.5" width="61.6" height="88" as="geometry"/>
                </mxCell>
                <mxCell id="30" value="Visualize" style="text;html=1;align=center;verticalAlign=middle;resizable=0;points=[];autosize=1;strokeColor=none;fillColor=none;fontSize=14;fontStyle=2" vertex="1" parent="1">
                    <mxGeometry x="828" y="-556" width="80" height="30" as="geometry"/>
                </mxCell>
                <mxCell id="31" value="" style="shape=flexArrow;endArrow=classic;html=1;fontSize=14;startSize=0;endSize=7;targetPerimeterSpacing=0;align=center;fontStyle=2" edge="1" parent="1">
                    <mxGeometry width="50" height="50" relative="1" as="geometry">
                        <mxPoint x="736.08" y="-470.87" as="sourcePoint"/>
                        <mxPoint x="800" y="-470" as="targetPoint"/>
                    </mxGeometry>
                </mxCell>
                <mxCell id="38" value="" style="endArrow=none;html=1;fontSize=14;targetPerimeterSpacing=0;align=center;fontStyle=2" edge="1" parent="1">
                    <mxGeometry width="50" height="50" relative="1" as="geometry">
                        <mxPoint x="60" y="-560" as="sourcePoint"/>
                        <mxPoint x="920" y="-560" as="targetPoint"/>
                    </mxGeometry>
                </mxCell>
                <mxCell id="39" value="" style="endArrow=none;dashed=1;html=1;dashPattern=1 3;strokeWidth=1;fontSize=14;targetPerimeterSpacing=0;align=center;fontStyle=2" edge="1" parent="1">
                    <mxGeometry width="50" height="50" relative="1" as="geometry">
                        <mxPoint x="280" y="-400" as="sourcePoint"/>
                        <mxPoint x="280" y="-560" as="targetPoint"/>
                    </mxGeometry>
                </mxCell>
                <mxCell id="40" value="" style="endArrow=none;dashed=1;html=1;dashPattern=1 3;strokeWidth=1;fontSize=14;targetPerimeterSpacing=0;align=center;fontStyle=2" edge="1" parent="1">
                    <mxGeometry width="50" height="50" relative="1" as="geometry">
                        <mxPoint x="440" y="-400" as="sourcePoint"/>
                        <mxPoint x="440" y="-560" as="targetPoint"/>
                    </mxGeometry>
                </mxCell>
                <mxCell id="41" value="" style="endArrow=none;dashed=1;html=1;strokeWidth=1;fontSize=14;targetPerimeterSpacing=0;align=center;fontStyle=2" edge="1" parent="1">
                    <mxGeometry width="50" height="50" relative="1" as="geometry">
                        <mxPoint x="640" y="-400" as="sourcePoint"/>
                        <mxPoint x="640" y="-560" as="targetPoint"/>
                    </mxGeometry>
                </mxCell>
                <mxCell id="42" value="" style="endArrow=none;dashed=1;html=1;strokeWidth=1;fontSize=14;targetPerimeterSpacing=0;align=center;fontStyle=2" edge="1" parent="1">
                    <mxGeometry width="50" height="50" relative="1" as="geometry">
                        <mxPoint x="810" y="-400" as="sourcePoint"/>
                        <mxPoint x="810" y="-560" as="targetPoint"/>
                    </mxGeometry>
                </mxCell>
                <mxCell id="43" value="" style="endArrow=none;html=1;strokeWidth=1;fontSize=14;targetPerimeterSpacing=0;align=center;fontStyle=2" edge="1" parent="1">
                    <mxGeometry width="50" height="50" relative="1" as="geometry">
                        <mxPoint x="60" y="-520" as="sourcePoint"/>
                        <mxPoint x="920" y="-520" as="targetPoint"/>
                    </mxGeometry>
                </mxCell>
                <mxCell id="44" value="&lt;span style=&quot;font-size: 14px;&quot;&gt;Giả lập crawler&lt;/span&gt;" style="text;html=1;align=center;verticalAlign=middle;resizable=0;points=[];autosize=1;strokeColor=none;fillColor=none;fontSize=14;fontStyle=2" vertex="1" parent="1">
                    <mxGeometry x="90" y="-555" width="120" height="30" as="geometry"/>
                </mxCell>
                <mxCell id="46" value="Data Collecting" style="text;html=1;align=center;verticalAlign=middle;resizable=0;points=[];autosize=1;strokeColor=none;fillColor=none;fontSize=14;fontStyle=2" vertex="1" parent="1">
                    <mxGeometry x="295" y="-555" width="120" height="30" as="geometry"/>
                </mxCell>
                <mxCell id="48" value="Data processing" style="text;html=1;align=center;verticalAlign=middle;resizable=0;points=[];autosize=1;strokeColor=none;fillColor=none;fontSize=14;fontStyle=2" vertex="1" parent="1">
                    <mxGeometry x="475" y="-555" width="120" height="30" as="geometry"/>
                </mxCell>
                <mxCell id="51" value="" style="endArrow=classic;html=1;strokeWidth=3;fontSize=14;targetPerimeterSpacing=0;entryX=0;entryY=0.5;entryDx=0;entryDy=0;align=center;fontStyle=2" edge="1" parent="1" target="28">
                    <mxGeometry width="50" height="50" relative="1" as="geometry">
                        <mxPoint x="420" y="-467" as="sourcePoint"/>
                        <mxPoint x="480" y="-310" as="targetPoint"/>
                    </mxGeometry>
                </mxCell>
                <mxCell id="53" value="&lt;a style=&quot;text-decoration-line: none; -webkit-tap-highlight-color: rgba(255, 255, 255, 0.1); font-size: 14px; outline: 0px; font-family: arial, sans-serif;&quot; data-ved=&quot;2ahUKEwjXjf_M7IaAAxXgsVYBHWmXCPAQkeECKAB6BAgfEAE&quot; href=&quot;https://www.google.com/search?sxsrf=AB5stBihBpLWI6Ebt1H16SdOt1MzwatTig:1689085171196&amp;amp;q=Data+storage&amp;amp;spell=1&amp;amp;sa=X&amp;amp;ved=2ahUKEwjXjf_M7IaAAxXgsVYBHWmXCPAQkeECKAB6BAgfEAE&quot; class=&quot;gL9Hy&quot; id=&quot;fprsl&quot;&gt;&lt;font color=&quot;#000000&quot; style=&quot;background-color: rgb(255, 255, 255); font-size: 14px;&quot;&gt;Data&amp;nbsp;&lt;b style=&quot;font-size: 14px;&quot;&gt;&lt;span style=&quot;font-size: 14px;&quot;&gt;storage&lt;/span&gt;&lt;/b&gt;&lt;/font&gt;&lt;/a&gt;" style="text;html=1;align=center;verticalAlign=middle;resizable=0;points=[];autosize=1;strokeColor=none;fillColor=none;fontSize=14;fontStyle=2" vertex="1" parent="1">
                    <mxGeometry x="676.08" y="-554.5" width="110" height="30" as="geometry"/>
                </mxCell>
                <mxCell id="54" value="Kibana" style="text;html=1;align=center;verticalAlign=middle;resizable=0;points=[];autosize=1;strokeColor=none;fillColor=none;fontSize=14;fontColor=#000000;fontStyle=2" vertex="1" parent="1">
                    <mxGeometry x="835" y="-425" width="70" height="30" as="geometry"/>
                </mxCell>
            </root>
        </mxGraphModel>
    </diagram>
</mxfile>